<svg width="837" height="289" viewBox="0 0 837 289" fill="none" xmlns="http://www.w3.org/2000/svg" xmlns:xlink="http://www.w3.org/1999/xlink">
<g clip-path="url(#clip0_1677_1796)">
<path d="M0 24C0 10.7452 10.7452 0 24 0H813C826.255 0 837 10.7452 837 24V265C837 278.255 826.255 289 813 289H24C10.7452 289 0 278.255 0 265V24Z" fill="url(#pattern0_1677_1796)" fill-opacity="0.08"/>
<g opacity="0.7">
<path d="M440.851 313.596H396.438C395.472 313.596 394.791 312.671 394.922 311.552L395.56 306.083C396.733 296.042 402.812 288.088 410.504 284.731C411.136 284.456 411.543 283.831 411.543 283.141V282.819C411.543 282.122 411.126 281.491 410.482 281.221C402.664 277.934 396.457 269.912 395.27 259.756L394.631 254.285C394.501 253.168 395.183 252.243 396.148 252.243H440.561C441.527 252.243 442.208 253.168 442.076 254.285L441.437 259.756C440.247 269.951 433.998 277.994 426.138 281.257C425.491 281.526 425.07 282.158 425.07 282.859C425.07 283.568 425.501 284.206 426.159 284.469C434.144 287.661 440.523 295.771 441.728 306.082L442.368 311.551C442.498 312.67 441.816 313.594 440.851 313.594V313.596Z" fill="#D6D4FF"/>
<path d="M410.933 294.249C411.179 294.689 411.48 295.081 411.824 295.423L413.175 296.773C415.015 298.681 418.179 299.096 420.846 297.605C423.963 295.863 425.219 292.179 423.652 289.373C423.414 288.946 423.124 288.565 422.792 288.23L422.775 288.212L421.407 286.846L421.394 286.833C419.551 284.94 416.398 284.53 413.738 286.017C410.621 287.757 409.365 291.443 410.933 294.249Z" fill="#FDCA5B"/>
<path d="M413.741 286.017C416.4 284.532 419.554 284.94 421.397 286.833L421.41 286.846C421.622 287.066 421.817 287.306 421.991 287.564C422.072 287.686 422.151 287.813 422.225 287.943C423.791 290.749 422.535 294.433 419.418 296.175C417.127 297.455 414.471 297.329 412.6 296.058C412.324 295.871 412.065 295.659 411.826 295.423C411.483 295.081 411.181 294.689 410.936 294.249" stroke="#FFA624" stroke-width="0.851175" stroke-miterlimit="10" stroke-linecap="round"/>
<path d="M421.988 287.564C421.814 287.305 421.62 287.065 421.408 286.846L422.775 288.212L422.793 288.229C423.125 288.564 423.415 288.946 423.653 289.373C425.22 292.179 423.963 295.863 420.846 297.605C418.18 299.094 415.016 298.68 413.176 296.773L411.824 295.423C412.063 295.658 412.322 295.872 412.598 296.058C414.467 297.327 417.125 297.453 419.416 296.175C422.533 294.433 423.789 290.748 422.222 287.943C422.149 287.813 422.072 287.685 421.988 287.564Z" stroke="#FFA624" stroke-width="0.851175" stroke-miterlimit="10" stroke-linecap="round"/>
<path d="M412.098 289.55C412.547 288.583 413.322 287.72 414.366 287.138C415.863 286.303 417.558 286.236 418.927 286.818" stroke="#FFA624" stroke-width="0.851175" stroke-miterlimit="10" stroke-linecap="round"/>
<path d="M403.565 264.107C403.28 264.523 403.062 264.966 402.907 265.427L402.296 267.236C401.404 269.731 402.433 272.75 404.951 274.481C407.894 276.502 411.755 275.994 413.573 273.346C413.85 272.942 414.063 272.513 414.217 272.067L414.224 272.044L414.843 270.212L414.849 270.195C415.729 267.704 414.697 264.697 412.185 262.972C409.242 260.951 405.381 261.458 403.562 264.107H403.565Z" fill="#32DBC6"/>
<path d="M412.188 262.973C414.698 264.697 415.731 267.704 414.852 270.195L414.846 270.213C414.744 270.501 414.615 270.781 414.46 271.051C414.388 271.178 414.309 271.306 414.224 271.428C412.405 274.077 408.545 274.585 405.602 272.564C403.44 271.077 402.374 268.641 402.684 266.401C402.729 266.071 402.804 265.744 402.91 265.427C403.064 264.966 403.283 264.523 403.569 264.108" stroke="#20BA90" stroke-width="0.851175" stroke-linecap="round" stroke-linejoin="round"/>
<path d="M414.458 271.05C414.613 270.779 414.742 270.498 414.844 270.212L414.226 272.043L414.218 272.066C414.066 272.513 413.851 272.941 413.575 273.345C411.755 275.994 407.895 276.501 404.952 274.48C402.435 272.751 401.404 269.73 402.297 267.235L402.909 265.426C402.803 265.745 402.727 266.069 402.682 266.4C402.373 268.639 403.438 271.076 405.6 272.562C408.543 274.584 412.405 274.075 414.223 271.427C414.308 271.304 414.387 271.177 414.458 271.05Z" stroke="#20BA90" stroke-width="0.851175" stroke-linecap="round" stroke-linejoin="round"/>
<path d="M408.295 263.067C409.361 263.041 410.479 263.354 411.463 264.029C412.875 264.999 413.688 266.491 413.773 267.976" stroke="#20BA90" stroke-width="0.851175" stroke-linecap="round" stroke-linejoin="round"/>
<path d="M411.186 272.115C409.704 272.728 407.857 272.554 406.327 271.504C405.348 270.831 404.658 269.91 404.298 268.912" stroke="#20BA90" stroke-width="0.851175" stroke-linecap="round" stroke-linejoin="round"/>
<path d="M427.946 275.724C428.414 275.535 428.841 275.288 429.224 274.989L430.735 273.822C432.86 272.24 433.676 269.155 432.538 266.32C431.209 263.006 427.713 261.29 424.731 262.486C424.277 262.668 423.86 262.908 423.487 263.194L423.468 263.209L421.938 264.391L421.924 264.403C419.811 265.988 419.004 269.064 420.138 271.892C421.467 275.205 424.963 276.922 427.944 275.724H427.946Z" fill="#32DBC6"/>
<path d="M420.14 271.891C419.006 269.065 419.812 265.989 421.926 264.402L421.94 264.391C422.185 264.208 422.447 264.046 422.726 263.907C422.858 263.841 422.992 263.779 423.131 263.724C426.114 262.527 429.608 264.243 430.939 267.557C431.916 269.993 431.452 272.611 429.955 274.303C429.734 274.553 429.491 274.783 429.226 274.989C428.843 275.288 428.416 275.535 427.948 275.724" stroke="#20BA90" stroke-width="0.851175" stroke-linecap="round" stroke-linejoin="round"/>
<path d="M422.722 263.907C422.443 264.046 422.181 264.208 421.937 264.391L423.466 263.209L423.486 263.194C423.86 262.908 424.275 262.669 424.729 262.486C427.711 261.29 431.206 263.006 432.537 266.32C433.675 269.155 432.86 272.24 430.733 273.822L429.222 274.989C429.487 274.783 429.73 274.554 429.951 274.303C431.448 272.611 431.912 269.991 430.935 267.558C429.605 264.245 426.11 262.527 423.127 263.724C422.988 263.779 422.852 263.841 422.722 263.907Z" stroke="#20BA90" stroke-width="0.851175" stroke-linecap="round" stroke-linejoin="round"/>
<path d="M423.434 273.969C422.531 273.4 421.775 272.521 421.33 271.412C420.693 269.822 420.842 268.131 421.595 266.849" stroke="#20BA90" stroke-width="0.851175" stroke-linecap="round" stroke-linejoin="round"/>
<path d="M426.041 264.835C427.613 265.145 429.056 266.314 429.747 268.037C430.189 269.138 430.254 270.289 430.001 271.319" stroke="#20BA90" stroke-width="0.851175" stroke-linecap="round" stroke-linejoin="round"/>
<path d="M410.386 277.793C410.632 278.233 410.933 278.625 411.277 278.967L412.628 280.317C414.468 282.224 417.632 282.64 420.299 281.149C423.416 279.407 424.672 275.723 423.106 272.917C422.867 272.49 422.578 272.109 422.246 271.774L422.228 271.756L420.86 270.39L420.847 270.377C419.004 268.484 415.851 268.074 413.191 269.561C410.074 271.301 408.818 274.987 410.386 277.793Z" fill="#32DBC6"/>
<path d="M413.191 269.56C415.85 268.075 419.004 268.483 420.847 270.376L420.86 270.389C421.072 270.609 421.267 270.849 421.441 271.107C421.523 271.229 421.602 271.356 421.675 271.486C423.241 274.292 421.985 277.976 418.868 279.718C416.577 280.998 413.921 280.872 412.05 279.601C411.774 279.414 411.515 279.202 411.277 278.966C410.933 278.624 410.631 278.232 410.386 277.792" stroke="#20BA90" stroke-width="0.851175" stroke-linecap="round" stroke-linejoin="round"/>
<path d="M421.439 271.107C421.265 270.848 421.07 270.608 420.858 270.389L422.226 271.755L422.243 271.772C422.575 272.107 422.865 272.489 423.103 272.916C424.67 275.722 423.413 279.406 420.296 281.148C417.63 282.637 414.466 282.223 412.626 280.316L411.274 278.966C411.513 279.201 411.772 279.415 412.048 279.601C413.917 280.87 416.575 280.996 418.866 279.718C421.983 277.976 423.239 274.291 421.673 271.486C421.6 271.356 421.522 271.228 421.439 271.107Z" stroke="#20BA90" stroke-width="0.851175" stroke-linecap="round" stroke-linejoin="round"/>
<path d="M411.549 273.093C411.998 272.126 412.773 271.263 413.817 270.681C415.314 269.846 417.009 269.779 418.378 270.361" stroke="#20BA90" stroke-width="0.851175" stroke-linecap="round" stroke-linejoin="round"/>
<path d="M420.944 274.512C420.836 276.112 419.862 277.69 418.241 278.596C417.204 279.175 416.072 279.384 415.019 279.264" stroke="#20BA90" stroke-width="0.851175" stroke-linecap="round" stroke-linejoin="round"/>
<path d="M442.427 249.859H394.569C393.724 249.859 393.039 250.544 393.039 251.389V254.078C393.039 254.923 393.724 255.608 394.569 255.608H442.427C443.272 255.608 443.957 254.923 443.957 254.078V251.389C443.957 250.544 443.272 249.859 442.427 249.859Z" fill="#817AF4"/>
<path d="M405.244 272.024C405.668 272.55 406.123 273.063 406.61 273.559" stroke="white" stroke-width="4.35384" stroke-miterlimit="10" stroke-linecap="round"/>
<path d="M399.941 260.71C400.32 262.323 400.929 264.367 401.893 266.51" stroke="white" stroke-width="4.35384" stroke-miterlimit="10" stroke-linecap="round"/>
<path d="M67.0679 321.035C65.2942 321.442 63.7035 319.87 64.0892 318.093C65.0832 313.502 64.6632 308.409 62.502 304.247C59.6536 298.373 54.5743 293.734 51.8628 288.311C49.0178 283.202 48.7936 276.149 51.0511 270.89C51.3574 270.175 52.0021 269.664 52.76 269.49L79.098 263.44C80.8928 263.029 82.4949 264.645 82.0662 266.436C80.9199 271.202 81.4803 276.747 83.8304 280.967C86.5419 286.389 91.6177 291.028 94.4696 296.902C97.0577 301.889 97.1501 308.205 95.3044 313.397C95.0237 314.186 94.3467 314.769 93.5294 314.955L67.0686 321.031L67.0679 321.035Z" fill="#FD76B3"/>
<path d="M72.7033 286.17C72.0792 283.806 74.0779 281.722 75.4695 281.071L75.471 281.07C75.7733 280.929 75.7948 280.919 75.4697 280.839C74.3551 280.567 71.7225 279.561 70.6205 277.401M75.0323 281.155L62.7952 284.413" stroke="#FFECC2" stroke-width="2.1932" stroke-linecap="round"/>
<path fill-rule="evenodd" clip-rule="evenodd" d="M78.8865 288.604C78.7094 288.159 78.2188 287.926 77.7624 288.071L66.5649 291.617C66.0594 291.777 65.796 292.332 65.9922 292.825C66.1693 293.27 66.6598 293.502 67.1163 293.358L69.6736 292.548C69.9886 292.448 70.3289 292.463 70.6338 292.591C71.4799 292.945 71.7609 294.004 71.2014 294.731L68.1315 298.718C68.0387 298.838 68.0108 298.997 68.0567 299.142C68.1714 299.504 68.6488 299.583 68.8739 299.277L72.8299 293.899C72.9497 293.737 73.1704 293.685 73.35 293.778C73.5718 293.893 73.6403 294.178 73.4949 294.382L68.8156 300.928C68.7313 301.046 68.7074 301.197 68.7512 301.335C68.8666 301.699 69.3503 301.773 69.5689 301.459L73.5123 295.798C74.0877 294.972 75.1671 294.669 76.0887 295.074L79.1658 296.426C80.0183 296.801 80.8593 295.879 80.4081 295.064C80.3087 294.885 80.1553 294.742 79.9696 294.655L73.3983 291.578C73.3692 291.565 73.3471 291.539 73.3373 291.509C73.3181 291.448 73.3517 291.383 73.4124 291.364L78.3137 289.812C78.8193 289.652 79.0827 289.096 78.8865 288.604Z" fill="#FFECC2"/>
<path d="M302.671 298.615C301.358 298.62 300.488 297.261 301.041 296.072C302.469 292.999 302.981 289.348 302.12 286.076C301.047 281.491 298.208 277.421 297.16 273.175C295.968 269.128 296.928 264.129 299.351 260.786C299.68 260.332 300.215 260.074 300.776 260.072L320.27 259.991C321.598 259.986 322.47 261.378 321.884 262.57C320.321 265.742 319.836 269.733 320.821 273.076C321.869 277.322 324.706 281.391 325.781 285.977C326.812 289.897 325.875 294.357 323.753 297.718C323.43 298.229 322.862 298.531 322.257 298.532L302.672 298.613L302.671 298.615Z" fill="#20BA90"/>
<path d="M312.166 274.974C312.102 273.211 313.839 272.061 314.921 271.824L314.922 271.824C315.158 271.772 315.174 271.768 314.958 271.661C314.217 271.292 312.524 270.167 312.091 268.472M314.6 271.813L305.472 272.166" stroke="#FFECC2" stroke-width="1.58214" stroke-linecap="round"/>
<path d="M308.911 284.035C309.513 284.044 310.101 283.853 310.582 283.49C311.063 283.128 311.41 282.615 311.566 282.033L312.04 280.249C312.133 279.903 312.349 279.603 312.647 279.406C312.946 279.209 313.306 279.127 313.66 279.177C314.015 279.227 314.338 279.405 314.571 279.677C314.803 279.949 314.927 280.297 314.921 280.655L314.908 281.434C314.902 281.794 314.762 282.14 314.517 282.405C314.272 282.67 313.937 282.834 313.578 282.868C313.415 282.884 313.264 282.963 313.16 283.09C313.056 283.216 313.006 283.379 313.021 283.542C313.037 283.706 313.117 283.856 313.243 283.96C313.37 284.065 313.533 284.115 313.696 284.099C314.321 284.039 314.906 283.762 315.349 283.316C315.792 282.87 316.065 282.284 316.121 281.658L316.759 281.669C316.922 281.672 317.081 281.609 317.199 281.495C317.316 281.381 317.384 281.225 317.387 281.061C317.39 280.897 317.327 280.739 317.213 280.621C317.099 280.503 316.943 280.435 316.779 280.433L316.136 280.422C316.088 279.787 315.817 279.19 315.37 278.737C314.924 278.283 314.332 278.002 313.698 277.943C313.065 277.884 312.431 278.051 311.909 278.415C311.387 278.779 311.01 279.316 310.846 279.931L310.372 281.715C310.278 282.06 310.062 282.359 309.764 282.555C309.466 282.752 309.106 282.832 308.753 282.783C308.399 282.733 308.076 282.555 307.843 282.284C307.611 282.013 307.486 281.666 307.491 281.309L307.504 280.53C307.511 280.17 307.65 279.824 307.895 279.559C308.14 279.294 308.475 279.13 308.834 279.096C308.997 279.081 309.148 279.001 309.252 278.874C309.304 278.812 309.343 278.739 309.366 278.662C309.39 278.584 309.398 278.503 309.391 278.422C309.375 278.258 309.295 278.108 309.169 278.004C309.042 277.899 308.88 277.849 308.716 277.865C308.099 277.925 307.522 278.195 307.081 278.63C306.64 279.066 306.363 279.64 306.296 280.257L305.654 280.246C305.491 280.243 305.332 280.305 305.214 280.419C305.096 280.533 305.029 280.69 305.026 280.853C305.023 281.017 305.086 281.176 305.2 281.294C305.314 281.411 305.47 281.479 305.634 281.482L306.271 281.493C306.308 282.172 306.6 282.812 307.09 283.284C307.58 283.756 308.231 284.024 308.911 284.035Z" fill="#FFECC2"/>
<path d="M309.21 291.381C309.813 291.391 310.401 291.2 310.882 290.837C311.363 290.475 311.709 289.962 311.866 289.38L312.34 287.595C312.433 287.25 312.649 286.95 312.947 286.753C313.245 286.555 313.606 286.474 313.96 286.524C314.314 286.574 314.638 286.752 314.87 287.024C315.103 287.296 315.227 287.644 315.221 288.002L315.208 288.78C315.201 289.141 315.062 289.487 314.817 289.752C314.571 290.016 314.237 290.181 313.878 290.215C313.715 290.23 313.564 290.31 313.46 290.436C313.355 290.563 313.306 290.726 313.321 290.889C313.337 291.052 313.417 291.203 313.543 291.307C313.67 291.411 313.832 291.461 313.996 291.446C314.621 291.385 315.206 291.108 315.649 290.663C316.092 290.217 316.365 289.631 316.421 289.005L317.058 289.015C317.222 289.018 317.381 288.956 317.498 288.842C317.616 288.728 317.684 288.572 317.687 288.408C317.69 288.244 317.627 288.086 317.513 287.968C317.399 287.85 317.243 287.782 317.079 287.779L316.436 287.769C316.388 287.134 316.116 286.537 315.67 286.083C315.224 285.63 314.632 285.348 313.998 285.29C313.365 285.231 312.731 285.398 312.209 285.762C311.687 286.126 311.31 286.662 311.146 287.277L310.672 289.062C310.578 289.407 310.362 289.705 310.064 289.902C309.766 290.098 309.406 290.179 309.052 290.129C308.699 290.079 308.375 289.902 308.143 289.631C307.911 289.36 307.786 289.013 307.791 288.656L307.804 287.877C307.81 287.516 307.95 287.17 308.195 286.906C308.44 286.641 308.775 286.476 309.134 286.443C309.297 286.427 309.448 286.347 309.552 286.221C309.604 286.158 309.642 286.086 309.666 286.008C309.69 285.931 309.698 285.849 309.691 285.768C309.675 285.605 309.595 285.455 309.469 285.35C309.342 285.246 309.179 285.196 309.016 285.212C308.399 285.271 307.822 285.542 307.381 285.977C306.94 286.413 306.663 286.987 306.596 287.603L305.954 287.592C305.79 287.59 305.632 287.652 305.514 287.766C305.396 287.88 305.329 288.036 305.326 288.2C305.323 288.364 305.386 288.522 305.499 288.64C305.613 288.758 305.77 288.826 305.933 288.829L306.571 288.839C306.607 289.518 306.9 290.159 307.39 290.63C307.88 291.102 308.53 291.371 309.21 291.381Z" fill="#FFECC2"/>
<path d="M352.211 304.955C350.941 304.62 350.452 303.083 351.293 302.077C353.466 299.477 354.903 296.082 354.917 292.699C355.064 287.992 353.373 283.327 353.457 278.954C353.35 274.737 355.57 270.156 358.773 267.552C359.209 267.198 359.792 267.087 360.334 267.23L379.188 272.186C380.473 272.525 380.955 274.094 380.081 275.094C377.753 277.755 376.253 281.486 376.341 284.969C376.257 289.342 377.947 294.006 377.801 298.714C377.784 302.767 375.728 306.834 372.81 309.532C372.366 309.943 371.738 310.088 371.154 309.933L352.212 304.953L352.211 304.955Z" fill="#FD76B3"/>
<path d="M367.49 284.567C367.883 282.847 369.858 282.185 370.965 282.235L370.966 282.235C371.207 282.246 371.224 282.247 371.043 282.087C370.422 281.54 369.077 280.015 369.096 278.267M370.658 282.142L361.748 280.125" stroke="#FFECC2" stroke-width="1.58214" stroke-linecap="round"/>
<path d="M362.004 292.481C362.584 292.646 363.201 292.613 363.76 292.387C364.318 292.161 364.785 291.755 365.086 291.233L366.005 289.632C366.184 289.322 366.47 289.088 366.809 288.974C367.149 288.861 367.518 288.875 367.847 289.015C368.177 289.155 368.443 289.41 368.597 289.733C368.752 290.056 368.782 290.424 368.683 290.768L368.47 291.517C368.37 291.864 368.147 292.162 367.841 292.354C367.536 292.547 367.17 292.62 366.815 292.559C366.653 292.532 366.487 292.57 366.353 292.666C366.22 292.761 366.13 292.905 366.103 293.067C366.076 293.229 366.114 293.395 366.209 293.528C366.304 293.662 366.449 293.752 366.61 293.779C367.23 293.882 367.867 293.766 368.41 293.45C368.953 293.133 369.368 292.637 369.584 292.047L370.197 292.222C370.355 292.267 370.524 292.248 370.667 292.168C370.81 292.088 370.916 291.955 370.961 291.797C371.006 291.64 370.986 291.471 370.907 291.327C370.827 291.184 370.694 291.078 370.536 291.033L369.917 290.857C370.035 290.231 369.927 289.585 369.613 289.031C369.299 288.478 368.8 288.053 368.203 287.832C367.606 287.612 366.95 287.61 366.352 287.826C365.754 288.043 365.251 288.464 364.934 289.016L364.015 290.618C363.836 290.927 363.55 291.159 363.211 291.272C362.872 291.385 362.504 291.37 362.175 291.23C361.846 291.091 361.58 290.836 361.425 290.514C361.271 290.192 361.24 289.825 361.337 289.481L361.551 288.732C361.65 288.385 361.874 288.087 362.179 287.895C362.484 287.703 362.85 287.63 363.206 287.69C363.367 287.717 363.533 287.679 363.667 287.584C363.733 287.537 363.789 287.477 363.832 287.408C363.875 287.339 363.904 287.263 363.918 287.182C363.945 287.021 363.906 286.855 363.811 286.721C363.716 286.588 363.572 286.498 363.41 286.471C362.798 286.369 362.171 286.481 361.632 286.788C361.094 287.095 360.678 287.578 360.454 288.156L359.837 287.98C359.679 287.935 359.51 287.954 359.367 288.034C359.224 288.113 359.118 288.247 359.073 288.404C359.028 288.562 359.047 288.731 359.127 288.874C359.207 289.018 359.34 289.123 359.498 289.168L360.111 289.344C359.971 290.009 360.088 290.703 360.439 291.285C360.791 291.868 361.35 292.295 362.004 292.481Z" fill="#FFECC2"/>
<path d="M123.328 300.727C121.466 299.618 121.389 296.955 123.183 295.742C127.815 292.606 131.643 287.873 133.205 282.509C135.584 275.106 135.024 266.932 137.149 260.031C138.901 253.289 144.51 247.029 150.781 244.356C151.633 243.992 152.609 244.082 153.405 244.556L181.069 261.01C182.954 262.132 183.004 264.843 181.162 266.032C176.254 269.195 172.175 274.433 170.728 280.001C168.603 286.902 169.16 295.073 166.784 302.479C164.911 308.904 159.795 314.421 153.935 317.375C153.044 317.824 151.981 317.769 151.124 317.257L123.332 300.724L123.328 300.727Z" fill="#4888FB"/>
<path d="M156.863 275.33C158.27 272.78 161.706 272.629 163.44 273.213L163.442 273.214C163.819 273.341 163.845 273.35 163.631 273.014C162.895 271.862 161.455 268.83 162.282 266.063M162.995 272.926L149.774 265.666" stroke="#FFECC2" stroke-width="2.6123" stroke-linecap="round"/>
<path d="M144.56 285.39C145.405 285.916 146.4 286.144 147.389 286.04C148.378 285.936 149.304 285.504 150.02 284.814L152.208 282.69C152.633 282.28 153.193 282.039 153.784 282.013C154.374 281.988 154.953 282.179 155.412 282.551C155.871 282.923 156.178 283.45 156.276 284.032C156.373 284.615 156.254 285.213 155.941 285.714L155.26 286.805C154.945 287.311 154.454 287.682 153.882 287.848C153.309 288.014 152.696 287.963 152.159 287.705C151.915 287.589 151.634 287.574 151.379 287.664C151.123 287.754 150.915 287.942 150.798 288.187C150.681 288.431 150.666 288.712 150.757 288.967C150.847 289.222 151.035 289.431 151.279 289.548C152.216 289.994 153.279 290.099 154.285 289.845C155.291 289.59 156.176 288.992 156.787 288.154L157.68 288.711C157.91 288.854 158.187 288.9 158.451 288.839C158.715 288.778 158.943 288.615 159.086 288.385C159.23 288.155 159.276 287.878 159.215 287.614C159.153 287.351 158.99 287.122 158.76 286.979L157.859 286.417C158.33 285.478 158.453 284.402 158.207 283.381C157.962 282.359 157.362 281.458 156.515 280.836C155.668 280.214 154.629 279.912 153.581 279.983C152.532 280.055 151.543 280.495 150.788 281.225L148.6 283.349C148.175 283.757 147.615 283.996 147.026 284.021C146.437 284.045 145.859 283.854 145.401 283.483C144.943 283.112 144.636 282.586 144.537 282.005C144.439 281.423 144.557 280.826 144.868 280.325L145.548 279.234C145.864 278.729 146.354 278.357 146.927 278.191C147.499 278.025 148.112 278.076 148.649 278.334C148.894 278.451 149.174 278.465 149.43 278.375C149.556 278.33 149.672 278.261 149.772 278.172C149.872 278.082 149.953 277.973 150.01 277.852C150.127 277.608 150.142 277.327 150.052 277.072C149.961 276.817 149.773 276.608 149.529 276.491C148.605 276.051 147.558 275.943 146.563 276.185C145.569 276.427 144.689 277.004 144.07 277.819L143.171 277.259C142.942 277.116 142.664 277.07 142.401 277.131C142.137 277.192 141.908 277.355 141.765 277.585C141.622 277.815 141.576 278.092 141.637 278.356C141.698 278.619 141.862 278.848 142.091 278.991L142.985 279.548C142.459 280.54 142.329 281.695 142.621 282.78C142.914 283.864 143.607 284.797 144.56 285.39Z" fill="#FFECC2"/>
<path d="M138.741 296.047C139.585 296.573 140.581 296.802 141.57 296.697C142.559 296.593 143.485 296.162 144.201 295.471L146.389 293.347C146.814 292.937 147.374 292.696 147.964 292.671C148.555 292.645 149.134 292.836 149.593 293.208C150.052 293.58 150.359 294.107 150.456 294.689C150.554 295.272 150.435 295.87 150.121 296.371L149.441 297.463C149.125 297.968 148.635 298.339 148.062 298.505C147.49 298.671 146.877 298.62 146.34 298.362C146.095 298.246 145.815 298.231 145.559 298.321C145.304 298.412 145.095 298.6 144.979 298.844C144.862 299.088 144.847 299.369 144.937 299.624C145.028 299.88 145.216 300.089 145.46 300.205C146.397 300.652 147.46 300.757 148.466 300.502C149.471 300.248 150.357 299.65 150.968 298.812L151.861 299.368C152.091 299.512 152.368 299.558 152.632 299.496C152.895 299.435 153.124 299.272 153.267 299.042C153.41 298.813 153.456 298.535 153.395 298.272C153.334 298.008 153.171 297.779 152.941 297.636L152.039 297.074C152.511 296.135 152.634 295.059 152.388 294.038C152.142 293.016 151.543 292.115 150.696 291.493C149.849 290.871 148.809 290.569 147.761 290.641C146.713 290.712 145.724 291.152 144.969 291.882L142.781 294.006C142.355 294.414 141.796 294.653 141.206 294.678C140.617 294.703 140.04 294.511 139.581 294.14C139.123 293.769 138.816 293.244 138.718 292.662C138.62 292.081 138.737 291.483 139.048 290.982L139.729 289.891C140.044 289.386 140.535 289.015 141.107 288.849C141.68 288.683 142.293 288.733 142.83 288.991C143.074 289.108 143.355 289.123 143.61 289.032C143.737 288.988 143.853 288.918 143.953 288.829C144.052 288.739 144.133 288.631 144.191 288.51C144.308 288.265 144.323 287.985 144.232 287.729C144.142 287.474 143.954 287.265 143.71 287.149C142.786 286.708 141.738 286.6 140.744 286.842C139.75 287.084 138.869 287.661 138.251 288.477L137.352 287.916C137.122 287.773 136.845 287.727 136.581 287.788C136.318 287.849 136.089 288.013 135.946 288.242C135.803 288.472 135.756 288.749 135.818 289.013C135.879 289.276 136.042 289.505 136.272 289.648L137.166 290.206C136.64 291.198 136.51 292.353 136.802 293.437C137.095 294.521 137.787 295.454 138.741 296.047Z" fill="#FFECC2"/>
<path d="M267.294 296.777C267.516 298.763 265.601 300.303 263.71 299.659C258.825 298.001 253.215 297.822 248.402 299.66C241.636 302.034 235.938 306.996 229.682 309.277C223.751 311.743 216.026 311.105 210.569 307.984C209.828 307.56 209.35 306.793 209.255 305.944L205.947 276.446C205.723 274.436 207.687 272.89 209.588 273.581C214.645 275.428 220.766 275.51 225.665 273.473C231.922 271.193 237.618 266.234 244.385 263.856C250.151 261.656 257.055 262.345 262.49 265.008C263.316 265.413 263.867 266.225 263.968 267.14L267.29 296.776L267.294 296.777Z" fill="#FDCA5B"/>
<path d="M229.953 286.268C227.294 286.653 225.27 284.211 224.734 282.611L224.733 282.609C224.617 282.262 224.609 282.237 224.481 282.582C224.044 283.764 222.617 286.511 220.123 287.444M224.771 283.099L226.795 296.86" stroke="#FFECC2" stroke-width="2.40901" stroke-linecap="round"/>
<path fill-rule="evenodd" clip-rule="evenodd" d="M233.586 280.343C233.116 280.433 232.795 280.871 232.85 281.346L234.21 293.013C234.272 293.539 234.767 293.903 235.288 293.804C235.759 293.714 236.08 293.277 236.024 292.801L235.714 290.137C235.675 289.808 235.755 289.477 235.938 289.202C236.445 288.438 237.539 288.363 238.147 289.05L241.48 292.82C241.581 292.934 241.731 292.991 241.882 292.973C242.259 292.929 242.427 292.476 242.169 292.197L237.639 287.294C237.501 287.145 237.493 286.919 237.618 286.76C237.773 286.564 238.066 286.551 238.238 286.732L243.779 292.567C243.879 292.672 244.023 292.724 244.167 292.707C244.547 292.663 244.71 292.202 244.444 291.928L239.632 286.983C238.93 286.262 238.837 285.144 239.409 284.316L241.32 281.551C241.849 280.785 241.103 279.785 240.218 280.073C240.023 280.137 239.853 280.26 239.733 280.426L235.467 286.296C235.448 286.322 235.419 286.339 235.387 286.342C235.324 286.35 235.267 286.304 235.26 286.241L234.664 281.135C234.603 280.608 234.107 280.244 233.586 280.343Z" fill="#FFECC2"/>
<path fill-rule="evenodd" clip-rule="evenodd" d="M246.112 278.225C245.641 278.315 245.32 278.752 245.375 279.228L246.736 290.894C246.797 291.421 247.293 291.785 247.814 291.686C248.284 291.596 248.605 291.158 248.55 290.683L248.239 288.019C248.201 287.69 248.28 287.359 248.463 287.084C248.971 286.32 250.064 286.245 250.672 286.932L254.005 290.702C254.106 290.815 254.256 290.873 254.407 290.855C254.785 290.811 254.952 290.357 254.695 290.078L250.164 285.175C250.027 285.027 250.018 284.8 250.144 284.642C250.299 284.446 250.592 284.433 250.764 284.614L256.305 290.448C256.404 290.554 256.548 290.606 256.692 290.589C257.072 290.545 257.236 290.084 256.969 289.81L252.158 284.865C251.456 284.144 251.362 283.026 251.934 282.198L253.845 279.433C254.375 278.667 253.629 277.666 252.743 277.955C252.549 278.019 252.379 278.142 252.258 278.308L247.993 284.177C247.974 284.204 247.945 284.22 247.913 284.224C247.849 284.232 247.792 284.186 247.785 284.123L247.19 279.016C247.128 278.49 246.632 278.126 246.112 278.225Z" fill="#FFECC2"/>
<path d="M-13.651 267.184C-14.872 266.457 -14.9225 264.712 -13.7463 263.916C-10.7094 261.86 -8.1997 258.757 -7.17547 255.241C-5.61625 250.387 -5.98287 245.028 -4.58974 240.503C-3.44105 236.084 0.236058 231.979 4.34731 230.227C4.90571 229.989 5.54588 230.047 6.06758 230.358L24.2045 241.146C25.4402 241.881 25.4732 243.658 24.2653 244.438C21.0477 246.511 18.3735 249.945 17.4249 253.596C16.0318 258.121 16.3968 263.478 14.8392 268.333C13.6114 272.545 10.2572 276.162 6.41496 278.099C5.83067 278.393 5.13408 278.357 4.57231 278.021L-13.6487 267.183L-13.651 267.184Z" fill="#F53D6B"/>
<path d="M8.33264 250.534C9.25545 248.862 11.5083 248.762 12.6449 249.146L12.6462 249.146C12.8931 249.229 12.9106 249.235 12.77 249.015C12.2877 248.26 11.3434 246.272 11.8856 244.458M12.3529 248.957L3.68502 244.197" stroke="#FFECC2" stroke-width="1.71266" stroke-linecap="round"/>
<path d="M0.267833 257.132C0.821301 257.476 1.47401 257.626 2.12246 257.558C2.77091 257.49 3.37797 257.207 3.84737 256.754L5.28175 255.362C5.56037 255.093 5.9278 254.935 6.31477 254.918C6.70173 254.901 7.08149 255.026 7.38246 255.27C7.68343 255.514 7.88481 255.86 7.94864 256.242C8.01247 256.624 7.93433 257.016 7.72897 257.344L7.28289 258.06C7.07597 258.391 6.75414 258.634 6.37899 258.743C6.00384 258.852 5.60172 258.819 5.24959 258.65C5.08939 258.573 4.90537 258.563 4.73802 258.623C4.57067 258.682 4.4337 258.805 4.35723 258.965C4.28076 259.126 4.27107 259.31 4.33028 259.477C4.38949 259.644 4.51276 259.781 4.67296 259.858C5.28697 260.15 5.98395 260.219 6.64335 260.052C7.30276 259.886 7.88312 259.494 8.28406 258.944L8.86946 259.309C9.02005 259.403 9.20178 259.433 9.37465 259.393C9.54753 259.353 9.6974 259.246 9.7913 259.095C9.88519 258.945 9.91542 258.763 9.87533 258.59C9.83524 258.417 9.72812 258.267 9.57753 258.173L8.98645 257.805C9.2953 257.189 9.37629 256.484 9.21506 255.814C9.05384 255.145 8.66082 254.554 8.1056 254.146C7.55038 253.738 6.86879 253.54 6.18157 253.587C5.49434 253.634 4.84581 253.922 4.35085 254.401L2.91648 255.794C2.6375 256.061 2.27044 256.218 1.88422 256.234C1.49799 256.25 1.11914 256.125 0.818761 255.881C0.518385 255.638 0.317139 255.294 0.252789 254.912C0.18844 254.531 0.265412 254.14 0.469261 253.811L0.915341 253.096C1.12226 252.764 1.44409 252.521 1.81924 252.412C2.19439 252.303 2.59651 252.337 2.94864 252.506C3.10884 252.582 3.29286 252.592 3.46021 252.533C3.54307 252.503 3.61935 252.458 3.68469 252.399C3.75002 252.34 3.80314 252.269 3.841 252.19C3.91746 252.03 3.92716 251.846 3.86795 251.678C3.80873 251.511 3.68547 251.374 3.52527 251.298C2.9196 251.009 2.23295 250.938 1.58105 251.097C0.929145 251.255 0.351852 251.634 -0.0535344 252.168L-0.642913 251.801C-0.793503 251.707 -0.975227 251.677 -1.1481 251.717C-1.32098 251.757 -1.47085 251.864 -1.56475 252.015C-1.65864 252.165 -1.68887 252.347 -1.64878 252.52C-1.60869 252.693 -1.50157 252.843 -1.35098 252.937L-0.765005 253.302C-1.10986 253.952 -1.19504 254.709 -1.00333 255.42C-0.811629 256.131 -0.357325 256.743 0.267833 257.132Z" fill="#FFECC2"/>
<path d="M-3.54955 264.118C-2.99608 264.463 -2.34337 264.613 -1.69492 264.544C-1.04648 264.476 -0.439416 264.193 0.0299907 263.74L1.46437 262.348C1.74299 262.079 2.11042 261.921 2.49738 261.904C2.88435 261.887 3.26411 262.013 3.56508 262.257C3.86605 262.5 4.06743 262.846 4.13126 263.228C4.19508 263.61 4.11695 264.002 3.91158 264.331L3.4655 265.046C3.25859 265.377 2.93676 265.621 2.56161 265.73C2.18646 265.838 1.78434 265.805 1.43221 265.636C1.272 265.559 1.08799 265.55 0.920637 265.609C0.753287 265.668 0.616312 265.791 0.539847 265.952C0.463381 266.112 0.453688 266.296 0.5129 266.463C0.572111 266.631 0.695377 266.768 0.85558 266.844C1.46959 267.137 2.16656 267.206 2.82597 267.039C3.48537 266.872 4.06574 266.48 4.46668 265.93L5.05208 266.295C5.20267 266.389 5.38439 266.42 5.55727 266.379C5.73015 266.339 5.88002 266.232 5.97392 266.082C6.06781 265.931 6.09804 265.749 6.05795 265.576C6.01786 265.404 5.91074 265.254 5.76014 265.16L5.16906 264.791C5.47792 264.176 5.5589 263.47 5.39768 262.801C5.23646 262.131 4.84343 261.54 4.28821 261.132C3.733 260.725 3.05141 260.527 2.36418 260.573C1.67695 260.62 1.02843 260.909 0.533472 261.388L-0.900902 262.78C-1.17989 263.048 -1.54694 263.204 -1.93317 263.22C-2.31939 263.236 -2.69825 263.111 -2.99862 262.868C-3.299 262.624 -3.50024 262.28 -3.56459 261.899C-3.62894 261.518 -3.55197 261.126 -3.34812 260.798L-2.90204 260.082C-2.69513 259.751 -2.3733 259.507 -1.99815 259.399C-1.62299 259.29 -1.22087 259.323 -0.868744 259.492C-0.708542 259.569 -0.524524 259.578 -0.357174 259.519C-0.274311 259.49 -0.198033 259.444 -0.132698 259.386C-0.0673614 259.327 -0.0142459 259.256 0.0236158 259.176C0.100082 259.016 0.109775 258.832 0.0505633 258.665C-0.00864817 258.497 -0.131914 258.36 -0.292117 258.284C-0.897787 257.995 -1.58444 257.924 -2.23634 258.083C-2.88824 258.242 -3.46553 258.62 -3.87092 259.155L-4.4603 258.787C-4.61089 258.693 -4.79261 258.663 -4.96549 258.703C-5.13836 258.743 -5.28823 258.85 -5.38213 259.001C-5.47603 259.152 -5.50625 259.333 -5.46616 259.506C-5.42607 259.679 -5.31895 259.829 -5.16836 259.923L-4.58239 260.288C-4.92725 260.939 -5.01242 261.696 -4.82072 262.407C-4.62901 263.117 -4.17471 263.729 -3.54955 264.118Z" fill="#FFECC2"/>
<path d="M769.928 321.035C771.702 321.442 773.293 319.87 772.907 318.093C771.913 313.502 772.333 308.409 774.494 304.247C777.342 298.373 782.422 293.734 785.133 288.311C787.978 283.202 788.203 276.149 785.945 270.89C785.639 270.175 784.994 269.664 784.236 269.49L757.898 263.44C756.103 263.029 754.501 264.645 754.93 266.436C756.076 271.202 755.516 276.747 753.166 280.967C750.454 286.389 745.378 291.028 742.527 296.902C739.938 301.889 739.846 308.205 741.692 313.397C741.972 314.186 742.649 314.769 743.467 314.955L769.928 321.031L769.928 321.035Z" fill="#42B9FB"/>
<path d="M764.293 286.17C764.917 283.806 762.918 281.722 761.527 281.071L761.525 281.07C761.223 280.929 761.201 280.919 761.526 280.839C762.641 280.567 765.274 279.561 766.376 277.401M761.964 281.155L774.201 284.413" stroke="#FFECC2" stroke-width="2.1932" stroke-linecap="round"/>
<path fill-rule="evenodd" clip-rule="evenodd" d="M758.109 288.604C758.286 288.159 758.776 287.926 759.233 288.071L770.43 291.617C770.936 291.777 771.199 292.332 771.003 292.825C770.826 293.27 770.335 293.502 769.879 293.358L767.322 292.548C767.006 292.448 766.666 292.463 766.361 292.591C765.515 292.945 765.234 294.004 765.794 294.731L768.864 298.718C768.956 298.838 768.984 298.997 768.938 299.142C768.824 299.504 768.346 299.583 768.121 299.277L764.165 293.899C764.045 293.737 763.825 293.685 763.645 293.778C763.423 293.893 763.355 294.178 763.5 294.382L768.179 300.928C768.264 301.046 768.288 301.197 768.244 301.335C768.129 301.699 767.645 301.773 767.426 301.459L763.483 295.798C762.907 294.972 761.828 294.669 760.906 295.074L757.829 296.426C756.977 296.801 756.136 295.879 756.587 295.064C756.686 294.885 756.84 294.742 757.025 294.655L763.597 291.578C763.626 291.565 763.648 291.539 763.658 291.509C763.677 291.448 763.643 291.383 763.583 291.364L758.681 289.812C758.176 289.652 757.912 289.096 758.109 288.604Z" fill="#FFECC2"/>
<path d="M534.325 298.615C535.638 298.62 536.508 297.261 535.955 296.072C534.528 292.999 534.015 289.348 534.876 286.076C535.949 281.491 538.788 277.421 539.836 273.175C541.028 269.128 540.068 264.129 537.645 260.786C537.316 260.332 536.781 260.074 536.22 260.072L516.726 259.991C515.398 259.986 514.527 261.378 515.112 262.57C516.675 265.742 517.16 269.733 516.175 273.076C515.127 277.322 512.29 281.391 511.215 285.977C510.184 289.897 511.121 294.357 513.243 297.718C513.566 298.229 514.135 298.531 514.739 298.532L534.324 298.613L534.325 298.615Z" fill="#FD76B3"/>
<path d="M524.83 274.974C524.894 273.211 523.157 272.061 522.075 271.824L522.074 271.824C521.839 271.772 521.822 271.768 522.038 271.661C522.779 271.292 524.472 270.167 524.905 268.472M522.396 271.813L531.524 272.166" stroke="#FFECC2" stroke-width="1.58214" stroke-linecap="round"/>
<path d="M528.085 284.035C527.483 284.044 526.895 283.853 526.414 283.49C525.933 283.128 525.587 282.615 525.43 282.033L524.956 280.249C524.863 279.903 524.647 279.603 524.349 279.406C524.05 279.209 523.69 279.127 523.336 279.177C522.982 279.227 522.658 279.405 522.426 279.677C522.193 279.949 522.069 280.297 522.075 280.655L522.088 281.434C522.095 281.794 522.234 282.14 522.479 282.405C522.724 282.67 523.059 282.834 523.418 282.868C523.581 282.884 523.732 282.963 523.836 283.09C523.94 283.216 523.99 283.379 523.975 283.542C523.959 283.706 523.879 283.856 523.753 283.96C523.626 284.065 523.463 284.115 523.3 284.099C522.675 284.039 522.09 283.762 521.647 283.316C521.204 282.87 520.931 282.284 520.875 281.658L520.238 281.669C520.074 281.672 519.915 281.609 519.797 281.495C519.68 281.381 519.612 281.225 519.609 281.061C519.606 280.897 519.669 280.739 519.783 280.621C519.897 280.503 520.053 280.435 520.217 280.433L520.86 280.422C520.908 279.787 521.179 279.19 521.626 278.737C522.072 278.283 522.664 278.002 523.298 277.943C523.931 277.884 524.565 278.051 525.087 278.415C525.609 278.779 525.986 279.316 526.15 279.931L526.624 281.715C526.718 282.06 526.934 282.359 527.232 282.555C527.53 282.752 527.89 282.832 528.244 282.783C528.597 282.733 528.92 282.555 529.153 282.284C529.385 282.013 529.51 281.666 529.505 281.309L529.492 280.53C529.485 280.17 529.346 279.824 529.101 279.559C528.856 279.294 528.521 279.13 528.162 279.096C527.999 279.081 527.848 279.001 527.744 278.874C527.692 278.812 527.653 278.739 527.63 278.662C527.606 278.584 527.598 278.503 527.605 278.422C527.621 278.258 527.701 278.108 527.827 278.004C527.954 277.899 528.117 277.849 528.28 277.865C528.897 277.925 529.474 278.195 529.915 278.63C530.356 279.066 530.633 279.64 530.7 280.257L531.342 280.246C531.506 280.243 531.664 280.305 531.782 280.419C531.9 280.533 531.967 280.69 531.97 280.853C531.973 281.017 531.91 281.176 531.796 281.294C531.682 281.411 531.526 281.479 531.362 281.482L530.725 281.493C530.688 282.172 530.396 282.812 529.906 283.284C529.416 283.756 528.766 284.024 528.085 284.035Z" fill="#FFECC2"/>
<path d="M527.786 291.381C527.183 291.391 526.595 291.2 526.114 290.837C525.633 290.475 525.287 289.962 525.13 289.38L524.656 287.595C524.564 287.25 524.348 286.95 524.049 286.753C523.751 286.555 523.39 286.474 523.036 286.524C522.682 286.574 522.358 286.752 522.126 287.024C521.893 287.296 521.769 287.644 521.775 288.002L521.788 288.78C521.795 289.141 521.934 289.487 522.179 289.752C522.425 290.016 522.759 290.181 523.118 290.215C523.281 290.23 523.432 290.31 523.536 290.436C523.641 290.563 523.69 290.726 523.675 290.889C523.659 291.052 523.579 291.203 523.453 291.307C523.326 291.411 523.164 291.461 523 291.446C522.375 291.385 521.79 291.108 521.347 290.663C520.904 290.217 520.631 289.631 520.575 289.005L519.938 289.015C519.774 289.018 519.616 288.956 519.498 288.842C519.38 288.728 519.312 288.572 519.309 288.408C519.307 288.244 519.369 288.086 519.483 287.968C519.597 287.85 519.753 287.782 519.917 287.779L520.56 287.769C520.609 287.134 520.88 286.537 521.326 286.083C521.772 285.63 522.364 285.348 522.998 285.29C523.631 285.231 524.265 285.398 524.788 285.762C525.31 286.126 525.686 286.662 525.85 287.277L526.324 289.062C526.418 289.407 526.634 289.705 526.932 289.902C527.231 290.098 527.59 290.179 527.944 290.129C528.297 290.079 528.621 289.902 528.853 289.631C529.085 289.36 529.21 289.013 529.205 288.656L529.192 287.877C529.186 287.516 529.046 287.17 528.801 286.906C528.556 286.641 528.221 286.476 527.862 286.443C527.699 286.427 527.549 286.347 527.444 286.221C527.393 286.158 527.354 286.086 527.33 286.008C527.306 285.931 527.298 285.849 527.306 285.768C527.321 285.605 527.401 285.455 527.527 285.35C527.654 285.246 527.817 285.196 527.98 285.212C528.597 285.271 529.174 285.542 529.615 285.977C530.056 286.413 530.333 286.987 530.4 287.603L531.042 287.592C531.206 287.59 531.364 287.652 531.482 287.766C531.6 287.88 531.668 288.036 531.67 288.2C531.673 288.364 531.611 288.522 531.497 288.64C531.383 288.758 531.227 288.826 531.063 288.829L530.425 288.839C530.389 289.518 530.096 290.159 529.606 290.63C529.116 291.102 528.466 291.371 527.786 291.381Z" fill="#FFECC2"/>
<path d="M484.785 304.955C486.055 304.62 486.545 303.083 485.703 302.077C483.53 299.477 482.093 296.082 482.079 292.699C481.932 287.992 483.623 283.327 483.539 278.954C483.646 274.737 481.427 270.156 478.223 267.552C477.788 267.198 477.204 267.087 476.662 267.23L457.808 272.186C456.523 272.525 456.041 274.094 456.915 275.094C459.244 277.755 460.743 281.486 460.655 284.969C460.739 289.342 459.049 294.006 459.195 298.714C459.212 302.767 461.268 306.834 464.186 309.532C464.63 309.943 465.258 310.088 465.842 309.933L484.784 304.953L484.785 304.955Z" fill="#FFA624"/>
<path d="M469.506 284.567C469.113 282.847 467.138 282.185 466.031 282.235L466.03 282.235C465.789 282.246 465.772 282.247 465.953 282.087C466.574 281.54 467.919 280.015 467.9 278.267M466.338 282.142L475.248 280.125" stroke="#FFECC2" stroke-width="1.58214" stroke-linecap="round"/>
<path d="M474.992 292.481C474.413 292.646 473.795 292.613 473.236 292.387C472.678 292.161 472.211 291.755 471.91 291.233L470.991 289.632C470.812 289.322 470.526 289.088 470.187 288.974C469.847 288.861 469.478 288.875 469.149 289.015C468.82 289.155 468.553 289.41 468.399 289.733C468.245 290.056 468.214 290.424 468.313 290.768L468.526 291.517C468.626 291.864 468.849 292.162 469.155 292.354C469.46 292.547 469.826 292.62 470.181 292.559C470.343 292.532 470.509 292.57 470.643 292.666C470.776 292.761 470.866 292.905 470.893 293.067C470.92 293.229 470.882 293.395 470.787 293.528C470.692 293.662 470.547 293.752 470.386 293.779C469.766 293.882 469.129 293.766 468.586 293.45C468.043 293.133 467.628 292.637 467.412 292.047L466.799 292.222C466.642 292.267 466.472 292.248 466.329 292.168C466.186 292.088 466.08 291.955 466.035 291.797C465.99 291.64 466.01 291.471 466.089 291.327C466.169 291.184 466.302 291.078 466.46 291.033L467.079 290.857C466.961 290.231 467.069 289.585 467.383 289.031C467.697 288.478 468.196 288.053 468.793 287.832C469.39 287.612 470.046 287.61 470.644 287.826C471.242 288.043 471.745 288.464 472.062 289.016L472.981 290.618C473.161 290.927 473.447 291.159 473.785 291.272C474.124 291.385 474.493 291.37 474.821 291.23C475.15 291.091 475.417 290.836 475.571 290.514C475.725 290.192 475.757 289.825 475.659 289.481L475.445 288.732C475.346 288.385 475.122 288.087 474.817 287.895C474.512 287.703 474.146 287.63 473.79 287.69C473.629 287.717 473.463 287.679 473.329 287.584C473.263 287.537 473.207 287.477 473.164 287.408C473.121 287.339 473.092 287.263 473.078 287.182C473.051 287.021 473.09 286.855 473.185 286.721C473.28 286.588 473.425 286.498 473.586 286.471C474.198 286.369 474.825 286.481 475.364 286.788C475.902 287.095 476.318 287.578 476.542 288.156L477.159 287.98C477.317 287.935 477.486 287.954 477.629 288.034C477.772 288.113 477.878 288.247 477.923 288.404C477.968 288.562 477.949 288.731 477.869 288.874C477.789 289.018 477.656 289.123 477.498 289.168L476.885 289.344C477.025 290.009 476.908 290.703 476.557 291.285C476.205 291.868 475.646 292.295 474.992 292.481Z" fill="#FFECC2"/>
<path d="M713.668 300.727C715.53 299.618 715.607 296.955 713.813 295.742C709.181 292.606 705.353 287.873 703.791 282.509C701.412 275.106 701.972 266.932 699.847 260.031C698.095 253.289 692.486 247.029 686.215 244.356C685.363 243.992 684.387 244.082 683.591 244.556L655.927 261.01C654.042 262.132 653.992 264.843 655.834 266.032C660.742 269.195 664.821 274.433 666.268 280.001C668.393 286.902 667.836 295.073 670.212 302.479C672.085 308.904 677.201 314.421 683.061 317.375C683.953 317.824 685.015 317.769 685.872 317.257L713.664 300.724L713.668 300.727Z" fill="#FD76B3"/>
<path d="M680.134 275.33C678.726 272.78 675.29 272.629 673.556 273.213L673.554 273.214C673.178 273.341 673.151 273.35 673.365 273.014C674.101 271.862 675.541 268.83 674.714 266.063M674.001 272.926L687.223 265.666" stroke="#FFECC2" stroke-width="2.6123" stroke-linecap="round"/>
<path d="M692.436 285.39C691.592 285.916 690.596 286.144 689.607 286.04C688.618 285.936 687.692 285.504 686.976 284.814L684.788 282.69C684.363 282.28 683.803 282.039 683.212 282.013C682.622 281.988 682.043 282.179 681.584 282.551C681.125 282.923 680.818 283.45 680.72 284.032C680.623 284.615 680.742 285.213 681.055 285.714L681.736 286.805C682.051 287.311 682.542 287.682 683.114 287.848C683.687 288.014 684.3 287.963 684.837 287.705C685.081 287.589 685.362 287.574 685.617 287.664C685.873 287.754 686.082 287.942 686.198 288.187C686.315 288.431 686.33 288.712 686.239 288.967C686.149 289.222 685.961 289.431 685.717 289.548C684.78 289.994 683.717 290.099 682.711 289.845C681.705 289.59 680.82 288.992 680.209 288.154L679.316 288.711C679.086 288.854 678.809 288.9 678.545 288.839C678.281 288.778 678.053 288.615 677.91 288.385C677.766 288.155 677.72 287.878 677.782 287.614C677.843 287.351 678.006 287.122 678.236 286.979L679.137 286.417C678.666 285.478 678.543 284.402 678.789 283.381C679.035 282.359 679.634 281.458 680.481 280.836C681.328 280.214 682.367 279.912 683.416 279.983C684.464 280.055 685.453 280.495 686.208 281.225L688.396 283.349C688.821 283.757 689.381 283.996 689.97 284.021C690.559 284.045 691.137 283.854 691.595 283.483C692.054 283.112 692.361 282.586 692.459 282.005C692.557 281.423 692.439 280.826 692.128 280.325L691.448 279.234C691.132 278.729 690.642 278.357 690.069 278.191C689.497 278.025 688.884 278.076 688.347 278.334C688.102 278.451 687.822 278.465 687.566 278.375C687.44 278.33 687.324 278.261 687.224 278.172C687.124 278.082 687.043 277.973 686.986 277.852C686.869 277.608 686.854 277.327 686.945 277.072C687.035 276.817 687.223 276.608 687.467 276.491C688.391 276.051 689.438 275.943 690.433 276.185C691.427 276.427 692.308 277.004 692.926 277.819L693.825 277.259C694.055 277.116 694.332 277.07 694.595 277.131C694.859 277.192 695.088 277.355 695.231 277.585C695.374 277.815 695.42 278.092 695.359 278.356C695.298 278.619 695.135 278.848 694.905 278.991L694.011 279.548C694.537 280.54 694.667 281.695 694.375 282.78C694.082 283.864 693.389 284.797 692.436 285.39Z" fill="#FFECC2"/>
<path d="M698.255 296.047C697.411 296.573 696.415 296.802 695.426 296.697C694.437 296.593 693.511 296.162 692.795 295.471L690.607 293.347C690.182 292.937 689.622 292.696 689.032 292.671C688.442 292.645 687.862 292.836 687.403 293.208C686.944 293.58 686.637 294.107 686.54 294.689C686.442 295.272 686.561 295.87 686.875 296.371L687.555 297.463C687.871 297.968 688.362 298.339 688.934 298.505C689.506 298.671 690.119 298.62 690.656 298.362C690.901 298.246 691.181 298.231 691.437 298.321C691.692 298.412 691.901 298.6 692.018 298.844C692.134 299.088 692.149 299.369 692.059 299.624C691.968 299.88 691.78 300.089 691.536 300.205C690.599 300.652 689.536 300.757 688.531 300.502C687.525 300.248 686.64 299.65 686.028 298.812L685.135 299.368C684.905 299.512 684.628 299.558 684.365 299.496C684.101 299.435 683.872 299.272 683.729 299.042C683.586 298.813 683.54 298.535 683.601 298.272C683.662 298.008 683.825 297.779 684.055 297.636L684.957 297.074C684.486 296.135 684.362 295.059 684.608 294.038C684.854 293.016 685.453 292.115 686.3 291.493C687.147 290.871 688.187 290.569 689.235 290.641C690.283 290.712 691.272 291.152 692.027 291.882L694.215 294.006C694.641 294.414 695.201 294.653 695.79 294.678C696.379 294.703 696.957 294.511 697.415 294.14C697.873 293.769 698.18 293.244 698.278 292.662C698.376 292.081 698.259 291.483 697.948 290.982L697.267 289.891C696.952 289.386 696.461 289.015 695.889 288.849C695.317 288.683 694.703 288.733 694.166 288.991C693.922 289.108 693.641 289.123 693.386 289.032C693.259 288.988 693.143 288.918 693.043 288.829C692.944 288.739 692.863 288.631 692.805 288.51C692.688 288.265 692.674 287.985 692.764 287.729C692.854 287.474 693.042 287.265 693.287 287.149C694.21 286.708 695.258 286.6 696.252 286.842C697.246 287.084 698.127 287.661 698.745 288.477L699.644 287.916C699.874 287.773 700.151 287.727 700.415 287.788C700.678 287.849 700.907 288.013 701.05 288.242C701.194 288.472 701.24 288.749 701.178 289.013C701.117 289.276 700.954 289.505 700.724 289.648L699.83 290.206C700.356 291.198 700.486 292.353 700.194 293.437C699.902 294.521 699.209 295.454 698.255 296.047Z" fill="#FFECC2"/>
<path d="M569.702 296.777C569.481 298.763 571.395 300.303 573.286 299.659C578.171 298.001 583.781 297.822 588.594 299.66C595.36 302.034 601.058 306.996 607.314 309.277C613.245 311.743 620.97 311.105 626.427 307.984C627.168 307.56 627.646 306.793 627.741 305.944L631.049 276.446C631.273 274.436 629.309 272.89 627.408 273.581C622.351 275.428 616.23 275.51 611.331 273.473C605.074 271.193 599.378 266.234 592.611 263.856C586.845 261.656 579.941 262.345 574.506 265.008C573.68 265.413 573.129 266.225 573.028 267.14L569.706 296.776L569.702 296.777Z" fill="#4888FB"/>
<path d="M607.043 286.268C609.702 286.653 611.726 284.211 612.262 282.611L612.263 282.609C612.379 282.262 612.387 282.237 612.515 282.582C612.952 283.764 614.379 286.511 616.873 287.444M612.225 283.099L610.201 296.86" stroke="#FFECC2" stroke-width="2.40901" stroke-linecap="round"/>
<path fill-rule="evenodd" clip-rule="evenodd" d="M603.41 280.343C603.88 280.433 604.202 280.871 604.146 281.346L602.786 293.013C602.724 293.539 602.229 293.903 601.708 293.804C601.238 293.714 600.916 293.277 600.972 292.801L601.282 290.137C601.321 289.808 601.241 289.477 601.058 289.202C600.551 288.438 599.457 288.363 598.85 289.05L595.516 292.82C595.416 292.934 595.265 292.991 595.114 292.973C594.737 292.929 594.569 292.476 594.827 292.197L599.357 287.294C599.495 287.145 599.503 286.919 599.378 286.76C599.223 286.564 598.93 286.551 598.758 286.732L593.217 292.567C593.117 292.672 592.973 292.724 592.829 292.707C592.449 292.663 592.286 292.202 592.552 291.928L597.364 286.983C598.066 286.262 598.159 285.144 597.587 284.316L595.676 281.551C595.147 280.785 595.893 279.785 596.778 280.073C596.973 280.137 597.143 280.26 597.263 280.426L601.529 286.296C601.548 286.322 601.577 286.339 601.609 286.342C601.672 286.35 601.729 286.304 601.737 286.241L602.332 281.135C602.393 280.608 602.889 280.244 603.41 280.343Z" fill="#FFECC2"/>
<path fill-rule="evenodd" clip-rule="evenodd" d="M590.885 278.225C591.355 278.315 591.676 278.752 591.621 279.228L590.26 290.894C590.199 291.421 589.703 291.785 589.183 291.686C588.712 291.596 588.391 291.158 588.446 290.683L588.757 288.019C588.795 287.69 588.716 287.359 588.533 287.084C588.025 286.32 586.932 286.245 586.324 286.932L582.991 290.702C582.89 290.815 582.74 290.873 582.589 290.855C582.212 290.811 582.044 290.357 582.302 290.078L586.832 285.175C586.969 285.027 586.978 284.8 586.852 284.642C586.697 284.446 586.405 284.433 586.232 284.614L580.692 290.448C580.592 290.554 580.448 290.606 580.304 290.589C579.924 290.545 579.76 290.084 580.027 289.81L584.838 284.865C585.54 284.144 585.634 283.026 585.062 282.198L583.151 279.433C582.621 278.667 583.367 277.666 584.253 277.955C584.448 278.019 584.617 278.142 584.738 278.308L589.004 284.177C589.022 284.204 589.051 284.22 589.083 284.224C589.147 284.232 589.204 284.186 589.211 284.123L589.807 279.016C589.868 278.49 590.364 278.126 590.885 278.225Z" fill="#FFECC2"/>
<path d="M850.647 267.184C851.868 266.457 851.919 264.712 850.742 263.916C847.705 261.86 845.196 258.757 844.172 255.241C842.612 250.387 842.979 245.028 841.586 240.503C840.437 236.084 836.76 231.979 832.649 230.227C832.09 229.989 831.45 230.047 830.929 230.358L812.792 241.146C811.556 241.881 811.523 243.658 812.731 244.438C815.948 246.511 818.623 249.945 819.571 253.596C820.964 258.121 820.599 263.478 822.157 268.333C823.385 272.545 826.739 276.162 830.581 278.099C831.165 278.393 831.862 278.357 832.424 278.021L850.645 267.183L850.647 267.184Z" fill="#32DBC6"/>
<path d="M828.663 250.534C827.741 248.862 825.488 248.762 824.351 249.146L824.35 249.146C824.103 249.229 824.085 249.235 824.226 249.015C824.708 248.26 825.653 246.272 825.11 244.458M824.643 248.957L833.311 244.197" stroke="#FFECC2" stroke-width="1.71266" stroke-linecap="round"/>
<path d="M836.728 257.132C836.175 257.476 835.522 257.626 834.874 257.558C834.225 257.49 833.618 257.207 833.149 256.754L831.714 255.362C831.436 255.093 831.068 254.935 830.681 254.918C830.294 254.901 829.915 255.026 829.614 255.27C829.313 255.514 829.111 255.86 829.047 256.242C828.984 256.624 829.062 257.016 829.267 257.344L829.713 258.06C829.92 258.391 830.242 258.634 830.617 258.743C830.992 258.852 831.394 258.819 831.747 258.65C831.907 258.573 832.091 258.563 832.258 258.623C832.425 258.682 832.562 258.805 832.639 258.965C832.715 259.126 832.725 259.31 832.666 259.477C832.607 259.644 832.483 259.781 832.323 259.858C831.709 260.15 831.012 260.219 830.353 260.052C829.693 259.886 829.113 259.494 828.712 258.944L828.127 259.309C827.976 259.403 827.794 259.433 827.621 259.393C827.449 259.353 827.299 259.246 827.205 259.095C827.111 258.945 827.081 258.763 827.121 258.59C827.161 258.417 827.268 258.267 827.419 258.173L828.01 257.805C827.701 257.189 827.62 256.484 827.781 255.814C827.942 255.145 828.335 254.554 828.89 254.146C829.446 253.738 830.127 253.54 830.815 253.587C831.502 253.634 832.15 253.922 832.645 254.401L834.08 255.794C834.359 256.061 834.726 256.218 835.112 256.234C835.498 256.25 835.877 256.125 836.177 255.881C836.478 255.638 836.679 255.294 836.743 254.912C836.808 254.531 836.731 254.14 836.527 253.811L836.081 253.096C835.874 252.764 835.552 252.521 835.177 252.412C834.802 252.303 834.4 252.337 834.047 252.506C833.887 252.582 833.703 252.592 833.536 252.533C833.453 252.503 833.377 252.458 833.311 252.399C833.246 252.34 833.193 252.269 833.155 252.19C833.079 252.03 833.069 251.846 833.128 251.678C833.187 251.511 833.311 251.374 833.471 251.298C834.076 251.009 834.763 250.938 835.415 251.097C836.067 251.255 836.644 251.634 837.05 252.168L837.639 251.801C837.79 251.707 837.971 251.677 838.144 251.717C838.317 251.757 838.467 251.864 838.561 252.015C838.655 252.165 838.685 252.347 838.645 252.52C838.605 252.693 838.498 252.843 838.347 252.937L837.761 253.302C838.106 253.952 838.191 254.709 837.999 255.42C837.808 256.131 837.353 256.743 836.728 257.132Z" fill="#FFECC2"/>
<path d="M840.546 264.118C839.992 264.463 839.339 264.613 838.691 264.544C838.043 264.476 837.436 264.193 836.966 263.74L835.532 262.348C835.253 262.079 834.886 261.921 834.499 261.904C834.112 261.887 833.732 262.013 833.431 262.257C833.13 262.5 832.929 262.846 832.865 263.228C832.801 263.61 832.879 264.002 833.085 264.331L833.531 265.046C833.738 265.377 834.059 265.621 834.434 265.73C834.81 265.838 835.212 265.805 835.564 265.636C835.724 265.559 835.908 265.55 836.075 265.609C836.243 265.668 836.38 265.791 836.456 265.952C836.533 266.112 836.542 266.296 836.483 266.463C836.424 266.631 836.301 266.768 836.141 266.844C835.527 267.137 834.83 267.206 834.17 267.039C833.511 266.872 832.93 266.48 832.529 265.93L831.944 266.295C831.793 266.389 831.612 266.42 831.439 266.379C831.266 266.339 831.116 266.232 831.022 266.082C830.928 265.931 830.898 265.749 830.938 265.576C830.978 265.404 831.085 265.254 831.236 265.16L831.827 264.791C831.518 264.176 831.437 263.47 831.598 262.801C831.76 262.131 832.153 261.54 832.708 261.132C833.263 260.725 833.945 260.527 834.632 260.573C835.319 260.62 835.968 260.909 836.463 261.388L837.897 262.78C838.176 263.048 838.543 263.204 838.929 263.22C839.315 263.236 839.694 263.111 839.995 262.868C840.295 262.624 840.496 262.28 840.561 261.899C840.625 261.518 840.548 261.126 840.344 260.798L839.898 260.082C839.691 259.751 839.369 259.507 838.994 259.399C838.619 259.29 838.217 259.323 837.865 259.492C837.705 259.569 837.521 259.578 837.353 259.519C837.27 259.49 837.194 259.444 837.129 259.386C837.063 259.327 837.01 259.256 836.972 259.176C836.896 259.016 836.886 258.832 836.946 258.665C837.005 258.497 837.128 258.36 837.288 258.284C837.894 257.995 838.581 257.924 839.232 258.083C839.884 258.242 840.462 258.62 840.867 259.155L841.456 258.787C841.607 258.693 841.789 258.663 841.962 258.703C842.134 258.743 842.284 258.85 842.378 259.001C842.472 259.152 842.502 259.333 842.462 259.506C842.422 259.679 842.315 259.829 842.164 259.923L841.578 260.288C841.923 260.939 842.009 261.696 841.817 262.407C841.625 263.117 841.171 263.729 840.546 264.118Z" fill="#FFECC2"/>
</g>
</g>
<defs>
<clipPath id="clip0_1677_1796">
<path d="M0 24C0 10.7452 10.7452 0 24 0H813C826.255 0 837 10.7452 837 24V265C837 278.255 826.255 289 813 289H24C10.7452 289 0 278.255 0 265V24Z" fill="white"/>
</clipPath>
<pattern id="pattern0_1677_1796" patternUnits="userSpaceOnUse" viewBox="-9469.51 -11452.6 4.6 4.6" width="0.54958182851046222%" height="1.5916954687309925%" patternContentUnits="objectBoundingBox">
<circle cx="-9468.51" cy="-11451.6" r="1" fill="#D6D4FF"/>
</pattern></defs>
</svg>
