<svg width="74" height="64" viewBox="0 0 74 64" fill="none" xmlns="http://www.w3.org/2000/svg">
<path d="M-30.7944 28.29C-34.7699 28.29 -37.1278 27.3079 -37.8152 25.3617C-38.5183 23.3728 -37.2133 21.0543 -33.9386 18.4737C-33.348 18.008 -32.4908 18.1092 -32.0251 18.7009C-31.5593 19.2915 -31.6606 20.1487 -32.2523 20.6145C-34.9443 22.735 -35.3875 24.0534 -35.2458 24.4539C-35.1029 24.8566 -33.6922 25.832 -28.9348 25.4945C-24.6465 25.1919 -19.2187 23.9421 -13.6524 21.9745C-8.08508 20.0081 -3.07682 17.5704 0.449886 15.1135C4.36245 12.3866 4.84955 10.7431 4.70668 10.3403C4.59419 10.0231 3.79773 9.44039 1.52421 9.27502C0.773869 9.22102 0.209148 8.56743 0.264271 7.81709C0.319393 7.06675 0.972988 6.50428 1.7222 6.55715C4.81355 6.78214 6.68209 7.7496 7.27606 9.43251C8.07477 11.6925 6.30186 14.3564 2.00681 17.3499C-1.71564 19.944 -6.95451 22.4988 -12.7457 24.545C-18.537 26.5902 -24.2191 27.8929 -28.7447 28.2124C-29.4703 28.2641 -30.1543 28.29 -30.7966 28.29H-30.7944Z" fill="#FDCA5B"/>
<path d="M6.46535 55.8224L-5.05021 58.908C-5.30051 58.9751 -5.54147 58.7827 -5.58507 58.4835L-5.79968 57.0211C-6.19314 54.3361 -5.16958 51.8514 -3.40832 50.4466C-3.26359 50.3314 -3.20155 50.1412 -3.24951 49.9622L-3.27187 49.8788C-3.32034 49.6979 -3.47223 49.5634 -3.6579 49.5379C-5.91333 49.2289 -8.08015 47.5804 -9.09337 45.0293L-9.63916 43.6553C-9.75055 43.3746 -9.63805 43.0875 -9.38774 43.0205L2.12782 39.9349C2.37812 39.8678 2.61908 40.0601 2.66258 40.359L2.87691 41.8218C3.27649 44.5479 2.21514 47.0676 0.403759 48.4598C0.254829 48.5745 0.189504 48.7676 0.23818 48.9492C0.287466 49.1332 0.443651 49.2685 0.632606 49.2911C2.92467 49.5639 5.14206 51.2236 6.17088 53.8132L6.71657 55.1868C6.82806 55.4679 6.71556 55.755 6.46525 55.822L6.46535 55.8224Z" fill="#C8EBFF"/>
<path d="M-2.6358 52.8854C-2.5415 52.9825 -2.43614 53.0632 -2.32324 53.1281L-1.87902 53.3842C-1.26941 53.7509 -0.42023 53.6388 0.167593 53.0671C0.854747 52.3989 0.924542 51.3563 0.323458 50.7377C0.231968 50.6435 0.130353 50.5646 0.0209923 50.5009L0.0152221 50.4975L-0.43429 50.2383L-0.438618 50.2358C-1.04797 49.8731 -1.89409 49.986 -2.48032 50.5561C-3.16757 51.2239 -3.23727 52.267 -2.6358 52.8854Z" fill="#FDCA5B"/>
<path d="M-2.47962 50.556C-1.89329 49.9863 -1.04727 49.873 -0.437921 50.2357L-0.433593 50.2382C-0.363359 50.2803 -0.296253 50.329 -0.233136 50.3841C-0.203463 50.4099 -0.174143 50.4374 -0.146136 50.466C0.454948 51.0846 0.385152 52.1272 -0.302001 52.7955C-0.806989 53.2864 -1.50445 53.4384 -2.07782 53.2388C-2.1625 53.2094 -2.24436 53.1724 -2.32254 53.1279C-2.43545 53.0631 -2.54081 52.9824 -2.63511 52.8853" stroke="#FFA624" stroke-width="0.22848" stroke-miterlimit="10" stroke-linecap="round"/>
<path d="M-0.232663 50.3844C-0.29578 50.3293 -0.362887 50.2806 -0.433121 50.2385L0.0163914 50.4977L0.0221616 50.501C0.131522 50.5648 0.233137 50.6437 0.324628 50.7378C0.925712 51.3564 0.855916 52.399 0.168763 53.0673C-0.419162 53.6386 -1.26824 53.7511 -1.87785 53.3844L-2.32207 53.1282C-2.24389 53.1727 -2.16193 53.2101 -2.07734 53.2391C-1.50446 53.4384 -0.806619 53.2863 -0.301528 52.7957C0.385625 52.1275 0.455421 51.0849 -0.145663 50.4663C-0.17367 50.4376 -0.202611 50.41 -0.232663 50.3844Z" stroke="#FFA624" stroke-width="0.22848" stroke-miterlimit="10" stroke-linecap="round"/>
<path d="M-0.12772 51.3022C-0.0446121 51.7246 -0.187545 52.2015 -0.544852 52.5489C-0.773499 52.7711 -1.05251 52.904 -1.3339 52.9461" stroke="#FFA624" stroke-width="0.22848" stroke-miterlimit="10" stroke-linecap="round"/>
<path d="M0.486553 46.8991C0.594804 46.8177 0.68837 46.7239 0.767004 46.6199L1.07768 46.2123C1.51878 45.6543 1.51608 44.7978 1.02408 44.1419C0.449075 43.3748 -0.576533 43.1729 -1.2667 43.6903C-1.37167 43.7688 -1.46309 43.86 -1.53988 43.9602L-1.54379 43.9653L-1.85838 44.3781L-1.86136 44.3821C-2.29884 44.94 -2.29448 45.7936 -1.80413 46.448C-1.22922 47.2146 -0.203513 47.417 0.486173 46.8992L0.486553 46.8991Z" fill="#32DBC6"/>
<path d="M-1.80409 46.4474C-2.29434 45.7934 -2.29908 44.9399 -1.86132 44.3816L-1.85834 44.3775C-1.80771 44.3131 -1.7511 44.2528 -1.68832 44.1974C-1.65876 44.1712 -1.62813 44.1459 -1.59597 44.1219C-0.9058 43.6044 0.119429 43.8065 0.694817 44.5734C1.11735 45.137 1.17903 45.8481 0.908253 46.3909C0.868363 46.4711 0.821361 46.5475 0.767046 46.6194C0.688412 46.7234 0.594845 46.8171 0.486594 46.8986" stroke="#20BA90" stroke-width="0.22848" stroke-linecap="round" stroke-linejoin="round"/>
<path d="M-1.68683 44.1986C-1.74961 44.254 -1.80622 44.3143 -1.85685 44.3787L-1.54226 43.966L-1.53835 43.9608C-1.46118 43.8605 -1.37004 43.7698 -1.26517 43.6909C-0.575004 43.1735 0.450225 43.3756 1.02561 44.1425C1.51761 44.7984 1.52068 45.6548 1.07921 46.213L0.768533 46.6206C0.822849 46.5487 0.86985 46.4723 0.90974 46.3921C1.18052 45.8492 1.11874 45.1378 0.696304 44.5746C0.121397 43.808 -0.904313 43.6056 -1.59448 44.123C-1.62665 44.1471 -1.65765 44.1725 -1.68683 44.1986Z" stroke="#20BA90" stroke-width="0.22848" stroke-linecap="round" stroke-linejoin="round"/>
<path d="M-0.761719 44.208C-0.332481 44.1792 0.122654 44.382 0.421747 44.7807C0.612801 45.0356 0.709462 45.3296 0.715392 45.6141" stroke="#20BA90" stroke-width="0.22848" stroke-linecap="round" stroke-linejoin="round"/>
<path d="M-3.05254 57.2675C-3.00592 57.355 -2.94592 57.4288 -2.875 57.4887L-2.59788 57.725C-2.22172 58.0623 -1.52139 57.9849 -0.896822 57.4972C-0.166682 56.9272 0.183647 56.0122 -0.114424 55.4535C-0.15957 55.3685 -0.217446 55.2966 -0.285576 55.238L-0.289247 55.2349L-0.56956 54.9958L-0.572168 54.9937C-0.949031 54.6597 -1.64706 54.7382 -2.26994 55.2246C-3.00008 55.7946 -3.3504 56.7096 -3.05233 57.2683L-3.05254 57.2675Z" fill="#FDCA5B"/>
<path d="M-2.26765 55.2244C-1.64477 54.738 -0.946744 54.6595 -0.569881 54.9935L-0.567273 54.9956C-0.523953 55.0344 -0.484824 55.0788 -0.450748 55.1286C-0.434735 55.152 -0.419556 55.1768 -0.405691 55.2027C-0.107721 55.7611 -0.457672 56.6759 -1.18809 57.2464C-1.72458 57.6653 -2.31702 57.7814 -2.71164 57.592C-2.76992 57.5642 -2.82393 57.5295 -2.87272 57.4885C-2.94325 57.4285 -3.00315 57.3551 -3.05025 57.2674" stroke="#FFA624" stroke-width="0.22848" stroke-miterlimit="10" stroke-linecap="round"/>
<path d="M-0.515453 55.0729C-0.553783 55.0193 -0.597165 54.9712 -0.644738 54.9286L-0.337083 55.1909L-0.332931 55.1943C-0.258421 55.2584 -0.194164 55.3359 -0.142157 55.4269C0.199105 56.0224 -0.127072 56.9577 -0.870833 57.5163C-1.507 57.9941 -2.24259 58.0416 -2.65605 57.6727L-2.95955 57.4138C-2.90593 57.4592 -2.84728 57.4976 -2.78427 57.5295C-2.35853 57.7454 -1.73875 57.6525 -1.19221 57.2423C-0.44845 56.6837 -0.122273 55.7484 -0.463535 55.1528C-0.479527 55.125 -0.496353 55.0986 -0.514871 55.0735L-0.515453 55.0729Z" stroke="#FFA624" stroke-width="0.22848" stroke-miterlimit="10" stroke-linecap="round"/>
<path d="M3.25044 53.1035L0.31087 53.8911C0.223318 53.9146 0.171361 54.0046 0.194821 54.0921L0.340848 54.6371C0.364308 54.7247 0.4543 54.7766 0.541852 54.7532L3.48142 53.9655C3.56897 53.942 3.62093 53.852 3.59747 53.7645L3.45144 53.2195C3.42798 53.132 3.33799 53.08 3.25044 53.1035Z" fill="#FDCA5B"/>
<path d="M2.83247 54.0615L-0.107098 54.8491C-0.19465 54.8726 -0.246607 54.9626 -0.223148 55.0501L-0.0771204 55.5951C-0.0536609 55.6827 0.0363317 55.7346 0.123884 55.7112L3.06345 54.9235C3.151 54.9 3.20296 54.8101 3.1795 54.7225L3.03347 54.1775C3.01002 54.09 2.92002 54.038 2.83247 54.0615Z" fill="#FDCA5B"/>
<path d="M3.50044 54.7402L0.560871 55.5278C0.473319 55.5513 0.421362 55.6413 0.444821 55.7288L0.590849 56.2738C0.614308 56.3614 0.704301 56.4133 0.791853 56.3899L3.73142 55.6022C3.81897 55.5788 3.87093 55.4888 3.84747 55.4012L3.70144 54.8562C3.67798 54.7687 3.58799 54.7167 3.50044 54.7402Z" fill="#FDCA5B"/>
<path d="M3.2231 55.6474L0.283526 56.4351C0.195975 56.4585 0.144018 56.5485 0.167477 56.6361L0.313505 57.181C0.336964 57.2686 0.426957 57.3206 0.514508 57.2971L3.45408 56.5094C3.54163 56.486 3.59359 56.396 3.57013 56.3084L3.4241 55.7635C3.40064 55.6759 3.31065 55.6239 3.2231 55.6474Z" fill="#FDCA5B"/>
<path d="M0.480469 54.7275L2.57203 54.1671" stroke="#FFA624" stroke-width="0.22848" stroke-miterlimit="10" stroke-linecap="round"/>
<path d="M1 55.4297L3.09195 54.8692" stroke="#FFA624" stroke-width="0.22848" stroke-miterlimit="10" stroke-linecap="round"/>
<path d="M0.773438 56.3047L2.86538 55.7442" stroke="#FFA624" stroke-width="0.22848" stroke-miterlimit="10" stroke-linecap="round"/>
<path d="M0.859375 53.8701L1.04514 54.5634" stroke="#FFA624" stroke-width="0.22848" stroke-miterlimit="10" stroke-linecap="round"/>
<path d="M1.53516 53.6885L1.72092 54.3817" stroke="#FFA624" stroke-width="0.22848" stroke-miterlimit="10" stroke-linecap="round"/>
<path d="M2.21484 53.5068L2.4006 54.2001" stroke="#FFA624" stroke-width="0.22848" stroke-miterlimit="10" stroke-linecap="round"/>
<path d="M2.88672 53.3262L3.07248 54.0194" stroke="#FFA624" stroke-width="0.22848" stroke-miterlimit="10" stroke-linecap="round"/>
<path d="M1.27734 55.4365L1.463 56.1294" stroke="#FFA624" stroke-width="0.22848" stroke-miterlimit="10" stroke-linecap="round"/>
<path d="M1.95312 55.2549L2.13878 55.9478" stroke="#FFA624" stroke-width="0.22848" stroke-miterlimit="10" stroke-linecap="round"/>
<path d="M2.63281 55.0742L2.81847 55.7671" stroke="#FFA624" stroke-width="0.22848" stroke-miterlimit="10" stroke-linecap="round"/>
<path d="M3.30469 54.8926L3.49035 55.5855" stroke="#FFA624" stroke-width="0.22848" stroke-miterlimit="10" stroke-linecap="round"/>
<path d="M0.117188 54.873L0.302847 55.5659" stroke="#FFA624" stroke-width="0.22848" stroke-miterlimit="10" stroke-linecap="round"/>
<path d="M0.957031 54.6484L1.14269 55.3413" stroke="#FFA624" stroke-width="0.22848" stroke-miterlimit="10" stroke-linecap="round"/>
<path d="M1.80078 54.4229L1.98644 55.1157" stroke="#FFA624" stroke-width="0.22848" stroke-miterlimit="10" stroke-linecap="round"/>
<path d="M2.64062 54.1982L2.82628 54.8911" stroke="#FFA624" stroke-width="0.22848" stroke-miterlimit="10" stroke-linecap="round"/>
<path d="M0.542969 56.4521L0.72873 57.1454" stroke="#FFA624" stroke-width="0.22848" stroke-miterlimit="10" stroke-linecap="round"/>
<path d="M1.38281 56.2275L1.56857 56.9208" stroke="#FFA624" stroke-width="0.22848" stroke-miterlimit="10" stroke-linecap="round"/>
<path d="M2.22656 56.002L2.41232 56.6952" stroke="#FFA624" stroke-width="0.22848" stroke-miterlimit="10" stroke-linecap="round"/>
<path d="M3.06641 55.7764L3.25217 56.4696" stroke="#FFA624" stroke-width="0.22848" stroke-miterlimit="10" stroke-linecap="round"/>
<path d="M-3.92096 48.6559C-3.82666 48.753 -3.7213 48.8337 -3.6084 48.8986L-3.16417 49.1547C-2.55456 49.5214 -1.70539 49.4093 -1.11756 48.8376C-0.430409 48.1694 -0.360614 47.1268 -0.961698 46.5082C-1.05319 46.414 -1.1548 46.3352 -1.26416 46.2714L-1.26993 46.268L-1.71945 46.0088L-1.72377 46.0063C-2.33313 45.6436 -3.17924 45.7565 -3.76547 46.3266C-4.45273 46.9945 -4.52242 48.0375 -3.92096 48.6559Z" fill="#32DBC6"/>
<path d="M-1.51782 46.1539C-1.58094 46.0988 -1.64804 46.0502 -1.71828 46.008L-1.26876 46.2672L-1.26299 46.2706C-1.15363 46.3343 -1.05202 46.4132 -0.960528 46.5074C-0.359445 47.1259 -0.42924 48.1686 -1.11639 48.8368C-1.70432 49.4081 -2.5534 49.5206 -3.163 49.1539L-3.60723 48.8978C-3.52905 48.9422 -3.44708 48.9796 -3.3625 49.0086C-2.78961 49.2079 -2.09178 49.0559 -1.58668 48.5653C-0.899531 47.897 -0.829736 46.8544 -1.43082 46.2359C-1.45883 46.2072 -1.48777 46.1796 -1.51782 46.1539Z" stroke="#20BA90" stroke-width="0.22848" stroke-linecap="round" stroke-linejoin="round"/>
<path d="M2.44601 39.187L-9.96268 42.5119C-10.1818 42.5706 -10.3118 42.7958 -10.2531 43.0149L-10.0663 43.7119C-10.0076 43.931 -9.7824 44.061 -9.56331 44.0023L2.84538 40.6774C3.06447 40.6187 3.19448 40.3935 3.13578 40.1744L2.949 39.4774C2.8903 39.2583 2.6651 39.1283 2.44601 39.187Z" fill="#43B9FB"/>
<path d="M-5.36789 59.6548L7.0408 56.3299C7.25989 56.2712 7.38991 56.046 7.33121 55.8269L7.14443 55.1299C7.08572 54.9108 6.86053 54.7808 6.64144 54.8395L-5.76725 58.1644C-5.98634 58.2231 -6.11636 58.4483 -6.05765 58.6674L-5.87088 59.3644C-5.81217 59.5835 -5.58698 59.7135 -5.36789 59.6548Z" fill="#43B9FB"/>
<path d="M23.3164 5.12598L23.3254 5.12839" stroke="#FF5A5A" stroke-width="0.0352618" stroke-linecap="round" stroke-linejoin="round"/>
<path d="M25.8272 7.57902L25.8012 7.57206C25.8489 7.56475 25.8724 7.55919 25.8724 7.55919L26.2963 5.9774C26.2963 5.9774 25.4382 4.8279 23.27 4.24692C21.1017 3.66595 19.5121 4.10706 19.5121 4.10706L19.0536 5.81829C18.5604 5.90332 16.8339 6.34287 16.2877 8.38143L13.7727 17.7675C13.7727 17.7675 14.316 19.5605 18.5537 20.696C23.4482 22.0075 24.4827 20.6533 24.4827 20.6533L26.6658 12.5058C26.9657 11.3866 27.8999 9.09393 25.8269 7.57896L25.8272 7.57902Z" fill="#C8EBFF"/>
<path d="M16.5607 13.4862C16.3681 13.6043 16.1977 13.746 16.0504 13.9063L15.4697 14.5354C14.6482 15.3937 14.5186 16.8183 15.2332 17.986C16.0688 19.3513 17.7418 19.8485 18.9706 19.0969C19.1576 18.9826 19.3236 18.8457 19.4674 18.6913L19.4749 18.6831L20.0627 18.0462L20.0682 18.0402C20.8836 17.1812 21.0103 15.7614 20.2979 14.5967C19.4626 13.2315 17.7893 12.7343 16.5607 13.4862Z" fill="#FDCA5B"/>
<path d="M20.2962 14.597C21.0089 15.7616 20.8819 17.1815 20.0665 18.0405L20.061 18.0465C19.9665 18.1454 19.8629 18.2367 19.7497 18.3193C19.6969 18.3584 19.6413 18.3958 19.5841 18.4306C18.3556 19.1822 16.6823 18.685 15.8467 17.3197C15.233 16.3165 15.2421 15.1241 15.7776 14.264C15.8565 14.1369 15.9469 14.0173 16.0485 13.9063C16.1956 13.746 16.3662 13.6043 16.5589 13.4862" stroke="#FFA624" stroke-width="0.38788" stroke-linecap="round" stroke-linejoin="round"/>
<path d="M19.7495 18.3188C19.8625 18.2362 19.9661 18.1449 20.0609 18.046L19.473 18.6829L19.4655 18.6911C19.3215 18.8455 19.1558 18.9824 18.9687 19.0967C17.7402 19.8484 16.067 19.3511 15.2314 17.9858C14.5167 16.8181 14.6466 15.3936 15.4678 14.5353L16.0485 13.9061C15.9469 14.0171 15.8565 14.1367 15.7776 14.2638C15.2421 15.1239 15.2328 16.3161 15.8467 17.3195C16.6823 18.6848 18.3553 19.182 19.5841 18.4304C19.6413 18.3956 19.6966 18.3581 19.7497 18.3191L19.7495 18.3188Z" stroke="#FFA624" stroke-width="0.38788" stroke-linecap="round" stroke-linejoin="round"/>
<path d="M18.6875 13.9248C19.1288 14.1087 19.5289 14.4408 19.8084 14.8978C20.2093 15.5529 20.2692 16.3115 20.0327 16.9348" stroke="#FFA624" stroke-width="0.38788" stroke-linecap="round" stroke-linejoin="round"/>
<path d="M18.2185 18.1567C17.4999 18.1368 16.7755 17.7281 16.3412 17.0186C16.0634 16.5645 15.9494 16.0608 15.9844 15.5869" stroke="#FFA624" stroke-width="0.38788" stroke-linecap="round" stroke-linejoin="round"/>
<path d="M19.7023 11.3909C19.4851 11.4533 19.283 11.5444 19.0984 11.6596L18.3708 12.1111C17.3502 12.7195 16.8452 14.0575 17.2226 15.3736C17.6638 16.9123 19.1436 17.8376 20.5283 17.4409C20.7392 17.3807 20.9355 17.2931 21.1155 17.1825L21.1251 17.1766L21.8615 16.7197L21.8684 16.7155C22.8833 16.1051 23.3842 14.7706 23.0081 13.458C22.5671 11.9196 21.0871 10.9939 19.7025 11.391L19.7023 11.3909Z" fill="#FDCA5B"/>
<path d="M23.0078 13.4587C23.384 14.771 22.883 16.1055 21.8681 16.7161L21.8612 16.7203C21.7436 16.7905 21.6195 16.8507 21.4885 16.9004C21.427 16.9241 21.3637 16.9451 21.2992 16.9634C19.9147 17.3602 18.4346 16.4349 17.9935 14.8961C17.6695 13.7655 17.9964 12.619 18.7417 11.9328C18.8515 11.8312 18.9706 11.7401 19.098 11.6602C19.2827 11.5448 19.4848 11.4539 19.702 11.3915" stroke="#FFA624" stroke-width="0.38788" stroke-linecap="round" stroke-linejoin="round"/>
<path d="M21.4892 16.8997C21.6202 16.8503 21.7443 16.7899 21.8619 16.7197L21.1255 17.1766L21.1159 17.1825C20.936 17.2929 20.7396 17.3805 20.5288 17.4409C19.1443 17.8377 17.6642 16.9123 17.223 15.3736C16.8456 14.0575 17.3507 12.7192 18.3713 12.1111L19.0988 11.6596C18.9713 11.7395 18.8522 11.8306 18.7425 11.9321C17.9969 12.6183 17.67 13.7648 17.9942 14.8955C18.4354 16.4342 19.9152 17.3596 21.2999 16.9628C21.3644 16.9445 21.4277 16.9232 21.4892 16.8997Z" stroke="#FFA624" stroke-width="0.38788" stroke-linecap="round" stroke-linejoin="round"/>
<path d="M21.6367 12.3799C22.0129 12.6749 22.3099 13.1016 22.4576 13.6165C22.6692 14.3548 22.5247 15.102 22.1305 15.6397" stroke="#FFA624" stroke-width="0.38788" stroke-linecap="round" stroke-linejoin="round"/>
<path d="M20.0533 16.3354C19.3662 16.1246 18.7769 15.5374 18.5476 14.7377C18.4009 14.2261 18.4254 13.7101 18.5854 13.2627" stroke="#FFA624" stroke-width="0.38788" stroke-linecap="round" stroke-linejoin="round"/>
<path d="M21.5148 14.5472C21.2976 14.6095 21.0955 14.7007 20.9109 14.8158L20.1833 15.2674C19.1627 15.8757 18.6577 17.2137 19.0351 18.5298C19.4763 20.0686 20.9561 20.9939 22.3408 20.5972C22.5517 20.5369 22.748 20.4494 22.928 20.3387L22.9376 20.3328L23.674 19.876L23.6809 19.8718C24.6958 19.2614 25.1967 17.9269 24.8206 16.6143C24.3796 15.0758 22.8996 14.1502 21.515 14.5472L21.5148 14.5472Z" fill="#FDCA5B"/>
<path d="M24.8242 16.6139C25.2004 17.9263 24.6995 19.2608 23.6845 19.8714L23.6776 19.8756C23.56 19.9458 23.4359 20.006 23.3049 20.0556C23.2434 20.0793 23.1801 20.1004 23.1156 20.1187C21.7311 20.5155 20.251 19.5901 19.8099 18.0514C19.4859 16.9208 19.8128 15.7743 20.5581 15.088C20.6679 14.9865 20.787 14.8954 20.9144 14.8155C21.0991 14.7001 21.3012 14.6092 21.5184 14.5468" stroke="#FFA624" stroke-width="0.38788" stroke-linecap="round" stroke-linejoin="round"/>
<path d="M23.3017 20.056C23.4327 20.0066 23.5568 19.9461 23.6744 19.876L22.938 20.3328L22.9284 20.3388C22.7485 20.4491 22.5521 20.5367 22.3413 20.5972C20.9568 20.994 19.4767 20.0686 19.0355 18.5298C18.6581 17.2137 19.1632 15.8755 20.1838 15.2674L20.9113 14.8158C20.7838 14.8957 20.6647 14.9868 20.555 15.0884C19.8094 15.7746 19.4825 16.9211 19.8067 18.0517C20.2479 19.5905 21.7277 20.5158 23.1124 20.1191C23.1769 20.1008 23.2402 20.0795 23.3017 20.056Z" stroke="#FFA624" stroke-width="0.38788" stroke-linecap="round" stroke-linejoin="round"/>
<path d="M23.4492 15.5361C23.8254 15.8311 24.1224 16.2579 24.2701 16.7728C24.4817 17.5111 24.3372 18.2583 23.943 18.796" stroke="#FFA624" stroke-width="0.38788" stroke-linecap="round" stroke-linejoin="round"/>
<path d="M21.8658 19.4906C21.1787 19.2799 20.5894 18.6927 20.3601 17.893C20.2134 17.3813 20.2379 16.8654 20.3979 16.418" stroke="#FFA624" stroke-width="0.38788" stroke-linecap="round" stroke-linejoin="round"/>
<path d="M19.5139 4.1071L19.0554 5.81833C19.0554 5.81833 19.5508 6.41644 22.1697 7.11817C24.7886 7.81991 25.874 7.55894 25.874 7.55894L26.2978 5.97715C26.2978 5.97715 25.4398 4.82765 23.2715 4.24667C21.1033 3.6657 19.5136 4.10704 19.5136 4.10704L19.5139 4.1071Z" stroke="#43B9FB" stroke-width="0.423142" stroke-linecap="round" stroke-linejoin="round"/>
<path d="M19.5352 4.28809C19.5352 4.28809 19.4269 4.93073 22.4809 5.74904C25.5349 6.56736 26.2673 6.09197 26.2673 6.09197" stroke="#43B9FB" stroke-width="0.423142" stroke-linecap="round" stroke-linejoin="round"/>
<path d="M21.8694 6.28535C22.4234 6.50208 24.6715 7.23133 26.0563 6.88475" stroke="#43B9FB" stroke-width="0.423142" stroke-linecap="round" stroke-linejoin="round"/>
<path d="M25.7354 -0.120011C25.5403 -0.236186 25.3347 -0.321565 25.1233 -0.377484L24.2924 -0.600117C23.145 -0.929112 21.8176 -0.378744 21.1132 0.802679C20.2896 2.18389 20.6296 3.90424 21.8723 4.64545C22.0614 4.75835 22.2606 4.84198 22.4652 4.89778L23.3171 5.12604L23.3251 5.12794C24.4701 5.45144 25.792 4.90059 26.4946 3.72254C27.3181 2.34155 26.9782 0.620979 25.7354 -0.120011Z" fill="#FDCA5B"/>
<path d="M26.4932 3.72264C25.7906 4.90069 24.4687 5.45154 23.3237 5.12804L23.3158 5.12592C23.1836 5.08807 23.054 5.03857 22.9277 4.97665C22.8682 4.94785 22.8091 4.91606 22.7513 4.88144C21.5086 4.14023 21.1686 2.41988 21.9922 1.03867C22.5975 0.023897 23.662 -0.525218 24.6772 -0.451013C24.8272 -0.440378 24.9758 -0.415809 25.1219 -0.377384C25.3333 -0.321465 25.539 -0.236086 25.734 -0.119912" stroke="#FFA624" stroke-width="0.38788" stroke-linecap="round" stroke-linejoin="round"/>
<path d="M22.9292 4.97731C23.0554 5.03923 23.185 5.08873 23.3172 5.12658L22.4762 4.90122L22.4653 4.89854C22.2606 4.84274 22.0615 4.75911 21.8724 4.64621C20.6296 3.905 20.2897 2.18465 21.1132 0.803438C21.8177 -0.377986 23.145 -0.928353 24.2924 -0.599132L25.1233 -0.3765C24.9772 -0.415151 24.8286 -0.439719 24.6786 -0.450354C23.6635 -0.52456 22.5989 0.0245559 21.9936 1.03933C21.17 2.42054 21.51 4.14089 22.7527 4.8821C22.8105 4.91672 22.8696 4.94851 22.9292 4.97731Z" stroke="#FFA624" stroke-width="0.38788" stroke-linecap="round" stroke-linejoin="round"/>
<path d="M26.3382 1.97534C26.3809 2.45384 26.2726 2.96475 25.997 3.42695C25.6017 4.08956 24.9551 4.49763 24.2901 4.57852" stroke="#FFA624" stroke-width="0.38788" stroke-linecap="round" stroke-linejoin="round"/>
<path d="M22.3557 3.53647C22.0374 2.88824 22.0622 2.05279 22.4903 1.33509C22.7642 0.875809 23.1588 0.538943 23.5965 0.348486" stroke="#FFA624" stroke-width="0.38788" stroke-linecap="round" stroke-linejoin="round"/>
<path d="M25.0454 10.2808C25.1037 10.0632 24.9747 9.8396 24.7571 9.78132C24.5396 9.72303 24.316 9.85217 24.2577 10.0698L23.2274 13.9151C23.1691 14.1327 23.2981 14.3563 23.5157 14.4146C23.7332 14.4729 23.9568 14.3438 24.0151 14.1262L25.0454 10.2808Z" fill="white"/>
<path d="M23.5962 15.6802C23.6545 15.4627 23.5255 15.239 23.3079 15.1807C23.0904 15.1224 22.8668 15.2516 22.8085 15.4692L22.5051 16.6014C22.4468 16.819 22.5759 17.0426 22.7934 17.1009C23.0109 17.1592 23.2345 17.0301 23.2928 16.8125L23.5962 15.6802Z" fill="white"/>
<path d="M2.48821 33.6782L0.209557 36.691C-0.733742 33.1059 -1.15211 29.6985 -1.33366 27.6488C-1.43234 26.5357 -0.799523 25.4793 0.237185 25.0609C5.61281 22.8954 9.6044 19.3327 11.7186 17.133C12.6435 16.17 14.1393 16.091 15.1642 16.9172L12.4659 20.4839L2.48821 33.6782Z" fill="#FDCA5B"/>
<path d="M20.7421 21.4806L18.9041 23.8908L15.7151 28.0719L7.75032 38.5152L5.06646 42.0332L3.24959 44.4158C2.34049 42.8542 1.60506 41.1281 1.01172 39.3743L3.11671 36.5905L6.91885 31.5635L9.5593 28.0719L15.1309 20.7057L16.8518 18.4297C18.2187 19.6124 19.5264 20.6228 20.7421 21.4806Z" fill="#FDCA5B"/>
<path d="M28.7273 27.9115C27.9287 33.8423 24.6383 50.9427 13.1925 50.9427C10.2455 50.9427 7.88787 49.7982 6.00391 47.9944L7.6879 45.7855L11.2677 41.0927L14.4278 36.9485L14.5081 32.8609C14.5252 32.0057 15.1725 31.2913 15.9553 31.2913C16.738 31.2913 17.3195 32.0057 17.259 32.8609L17.2301 33.2766L20.2757 29.2837L22.5583 26.2894L24.4371 23.8252C25.5474 24.4501 26.4921 24.9093 27.2275 25.2355C28.2655 25.6973 28.8786 26.784 28.7273 27.9115Z" fill="#FDCA5B"/>
<path d="M12.4658 20.4834L2.48814 33.6777C2.19475 32.049 2.02109 30.5887 1.92111 29.5046C1.8198 28.4087 2.42893 27.3694 3.4367 26.9286C7.21516 25.2801 10.0924 22.7423 11.7817 20.9886C11.9856 20.7768 12.2171 20.6084 12.4658 20.4834Z" fill="#8B85F4"/>
<path d="M18.9046 23.8912L15.7156 28.0722L7.7508 38.5156L5.06694 42.0336C4.21705 40.3246 3.58555 38.4301 3.11719 36.5908L6.91933 31.5639L9.55978 28.0722L15.1314 20.7061C15.2143 20.7666 15.2946 20.8337 15.3722 20.906C16.6141 22.0796 17.8034 23.0663 18.9046 23.8912Z" fill="#8B85F4"/>
<path d="M25.4773 29.7172C24.7774 34.8245 22.1106 48.1622 13.3105 48.1622C11.0081 48.1622 9.16363 47.24 7.6875 45.7862L11.2673 41.0934L14.4274 36.9492L14.5077 32.8616C14.5248 32.0064 15.1721 31.292 15.9549 31.292C16.7376 31.292 17.3192 32.0064 17.2586 32.8616L17.2297 33.2773L20.2753 29.2844L22.5579 26.29C23.1237 26.6084 23.6262 26.865 24.0551 27.0702C25.055 27.5491 25.6273 28.6187 25.4773 29.7172Z" fill="#8B85F4"/>
<path d="M0.140625 26.4949C0.140625 26.4949 1.8062 25.7713 3.13892 24.9307" stroke="#FFA624" stroke-width="0.518922" stroke-linecap="round" stroke-linejoin="round"/>
<path d="M14.4257 36.9492L14.3586 40.3843C14.3508 40.7777 14.0297 41.0934 13.6351 41.0934H11.2656L14.4257 36.9492Z" fill="#AAA5FC"/>
<path d="M15.7142 28.0723L7.74944 38.5157L6.91797 31.5639L9.55842 28.0723H15.7142Z" fill="#AAA5FC"/>
<path d="M20.2715 29.2832L18.9348 40.4541C18.8901 40.8186 18.5822 41.0922 18.2152 41.0922H17.4469C17.0259 41.0922 16.6943 40.7357 16.7246 40.3173L17.2245 33.2774H17.2258L20.2715 29.2832Z" fill="#AAA5FC"/>
<path d="M7.68627 45.7863L6.00228 47.9953C4.94189 46.9822 4.03279 45.76 3.25 44.4168L5.06687 42.0342C5.77731 43.4603 6.63904 44.7562 7.68627 45.7863Z" fill="#FFECC2"/>
<path d="M11.2656 41.0929L7.6858 45.7857C6.63857 44.7556 5.77684 43.4597 5.06641 42.0336L7.75027 38.5156L7.98182 40.4548C8.02523 40.8193 8.33309 41.0929 8.70015 41.0929H11.2656Z" fill="#D0CDFF"/>
<path d="M20.3207 28.8827L20.2734 29.2826L17.2277 33.2769L17.2567 32.8611C17.3172 32.006 16.7344 31.2916 15.9529 31.2916C15.1714 31.2916 14.5228 32.006 14.5057 32.8611L14.4255 36.9488L11.2653 41.093H8.69988C8.33282 41.093 8.02496 40.8193 7.98155 40.4549L7.75 38.5157L15.7148 28.0723H19.6011C20.0353 28.0723 20.3721 28.4512 20.3207 28.8827Z" fill="white"/>
<path d="M17.257 32.8615L17.228 33.2773H17.2267L14.4258 36.9492L14.506 32.8615C14.5231 32.0064 15.1704 31.292 15.9532 31.292C16.736 31.292 17.3175 32.0064 17.257 32.8615Z" fill="#AAA5FC"/>
<path d="M20.3208 28.8831C20.3721 28.4515 20.0353 28.0726 19.6012 28.0726H15.7148L18.9039 23.8916C20.2827 24.927 21.5233 25.7098 22.5561 26.29L20.2735 29.283L20.3208 28.8831Z" fill="#D0CDFF"/>
<path d="M24.4371 23.8249L22.5584 26.2891C21.5256 25.7089 20.285 24.9261 18.9062 23.8907L20.7442 21.4805C22.1032 22.4409 23.3491 23.2118 24.4371 23.8249Z" fill="#FFECC2"/>
<path d="M3.11846 36.5905L1.01347 39.3744C0.710873 38.4811 0.445118 37.5799 0.210937 36.6905L2.48959 33.6777C2.65667 34.6066 2.86323 35.5906 3.11846 36.5905Z" fill="#FFECC2"/>
<path d="M15.1353 20.7066L9.56364 28.0727H7.32051C6.88636 28.0727 6.54956 28.4516 6.60218 28.8831L6.92319 31.5644L3.12105 36.5913C2.86582 35.5915 2.65927 34.6074 2.49219 33.6786L12.4698 20.4842C13.3145 20.0553 14.3512 20.1264 15.1353 20.7066Z" fill="#D0CDFF"/>
<path d="M9.56064 28.0723L6.92019 31.5639L6.59918 28.8827C6.54655 28.4512 6.88335 28.0723 7.31751 28.0723H9.56064Z" fill="white"/>
<path d="M16.855 18.43L15.1342 20.706C14.3501 20.1258 13.3134 20.0547 12.4688 20.4836L15.1671 16.917C15.2171 16.9565 15.2644 16.9986 15.3118 17.042C15.8341 17.5288 16.3485 17.9919 16.855 18.43Z" fill="#FFECC2"/>
<path d="M16.8585 58.3892C16.3586 58.0916 16.3379 57.3768 16.8195 57.0511C18.0629 56.2092 19.0904 54.9388 19.5098 53.4991C20.1482 51.512 19.9981 49.3177 20.5685 47.4652C21.0388 45.6556 22.5443 43.9752 24.2276 43.2577C24.4562 43.1601 24.7183 43.1841 24.9319 43.3113L32.3578 47.7282C32.8637 48.0293 32.8772 48.7569 32.3827 49.0762C31.0653 49.9251 29.9704 51.3311 29.582 52.8257C29.0116 54.6783 29.1611 56.8716 28.5233 58.8597C28.0206 60.5842 26.6473 62.0651 25.0742 62.858C24.8349 62.9786 24.5497 62.9638 24.3197 62.8263L16.8594 58.3885L16.8585 58.3892Z" fill="#FD76B3"/>
<path d="M25.8627 51.5705C26.2405 50.8859 27.1629 50.8453 27.6283 51.0022L27.6288 51.0024C27.7298 51.0364 27.737 51.0389 27.6794 50.9487C27.482 50.6395 27.0954 49.8256 27.3174 49.0829M27.5087 50.925L23.9598 48.9762" stroke="#FFECC2" stroke-width="0.701218" stroke-linecap="round"/>
<path d="M22.5582 54.273C22.7848 54.4141 23.052 54.4755 23.3175 54.4475C23.583 54.4196 23.8316 54.3037 24.0238 54.1184L24.611 53.5483C24.7251 53.4382 24.8756 53.3735 25.034 53.3666C25.1924 53.3597 25.3479 53.411 25.4711 53.5109C25.5944 53.6107 25.6768 53.7521 25.7029 53.9086C25.7291 54.065 25.6971 54.2255 25.613 54.36L25.4304 54.6529C25.3456 54.7886 25.2139 54.8882 25.0603 54.9328C24.9067 54.9774 24.742 54.9637 24.5979 54.8945C24.5323 54.8632 24.4569 54.8592 24.3884 54.8835C24.3199 54.9077 24.2638 54.9582 24.2325 55.0238C24.2012 55.0894 24.1972 55.1647 24.2215 55.2332C24.2457 55.3017 24.2962 55.3578 24.3618 55.3891C24.6132 55.509 24.8985 55.5371 25.1685 55.4688C25.4385 55.4005 25.6761 55.24 25.8403 55.015L26.08 55.1645C26.1416 55.2029 26.216 55.2153 26.2868 55.1989C26.3576 55.1825 26.4189 55.1386 26.4574 55.077C26.4958 55.0153 26.5082 54.9409 26.4918 54.8701C26.4754 54.7993 26.4315 54.738 26.3699 54.6995L26.1279 54.5486C26.2543 54.2966 26.2875 54.0079 26.2215 53.7337C26.1555 53.4595 25.9945 53.2175 25.7672 53.0506C25.5399 52.8837 25.2608 52.8026 24.9794 52.8217C24.6981 52.8408 24.4325 52.9589 24.2299 53.1551L23.6426 53.7252C23.5284 53.8347 23.3781 53.8988 23.22 53.9055C23.0618 53.9121 22.9067 53.8608 22.7837 53.7611C22.6608 53.6615 22.5784 53.5204 22.552 53.3644C22.5257 53.2083 22.5572 53.048 22.6406 52.9135L22.8233 52.6206C22.908 52.4849 23.0398 52.3853 23.1934 52.3407C23.347 52.2961 23.5116 52.3098 23.6558 52.379C23.7214 52.4103 23.7967 52.4143 23.8652 52.39C23.8992 52.378 23.9304 52.3595 23.9571 52.3354C23.9839 52.3113 24.0056 52.2822 24.0211 52.2497C24.0525 52.1841 24.0564 52.1088 24.0322 52.0403C24.0079 51.9718 23.9575 51.9157 23.8919 51.8844C23.6439 51.7662 23.3628 51.7371 23.0958 51.8021C22.8289 51.867 22.5926 52.022 22.4266 52.2409L22.1853 52.0904C22.1236 52.052 22.0492 52.0396 21.9784 52.056C21.9077 52.0724 21.8463 52.1163 21.8079 52.1779C21.7694 52.2396 21.757 52.314 21.7735 52.3848C21.7899 52.4556 21.8337 52.5169 21.8954 52.5554L22.1353 52.7049C21.9941 52.9713 21.9592 53.2813 22.0377 53.5723C22.1162 53.8633 22.3022 54.1137 22.5582 54.273Z" fill="#FFECC2"/>
<path d="M20.9957 57.1333C21.2223 57.2744 21.4895 57.3359 21.755 57.3079C22.0205 57.2799 22.2691 57.1641 22.4613 56.9788L23.0485 56.4087C23.1626 56.2985 23.3131 56.2339 23.4715 56.227C23.6299 56.2201 23.7854 56.2714 23.9086 56.3712C24.0319 56.471 24.1143 56.6125 24.1404 56.7689C24.1666 56.9253 24.1346 57.0859 24.0505 57.2204L23.8679 57.5133C23.7831 57.6489 23.6514 57.7486 23.4978 57.7931C23.3442 57.8377 23.1795 57.8241 23.0354 57.7548C22.9698 57.7235 22.8944 57.7196 22.8259 57.7438C22.7574 57.7681 22.7013 57.8185 22.67 57.8841C22.6387 57.9497 22.6347 58.0251 22.659 58.0936C22.6832 58.1621 22.7337 58.2182 22.7993 58.2495C23.0507 58.3693 23.336 58.3975 23.606 58.3292C23.876 58.2609 24.1136 58.1004 24.2778 57.8754L24.5175 58.0248C24.5791 58.0633 24.6535 58.0757 24.7243 58.0593C24.7951 58.0428 24.8564 57.999 24.8949 57.9373C24.9333 57.8757 24.9457 57.8013 24.9293 57.7305C24.9129 57.6597 24.869 57.5983 24.8074 57.5599L24.5654 57.409C24.6918 57.1569 24.725 56.8682 24.659 56.594C24.593 56.3198 24.432 56.0779 24.2047 55.9109C23.9774 55.744 23.6983 55.6629 23.4169 55.6821C23.1356 55.7012 22.87 55.8193 22.6674 56.0154L22.0801 56.5855C21.9659 56.6951 21.8156 56.7592 21.6575 56.7658C21.4993 56.7724 21.3442 56.7211 21.2212 56.6215C21.0983 56.5219 21.0159 56.3808 20.9895 56.2247C20.9632 56.0686 20.9947 55.9083 21.0781 55.7738L21.2608 55.4809C21.3455 55.3453 21.4773 55.2456 21.6309 55.2011C21.7845 55.1565 21.9491 55.1701 22.0933 55.2394C22.1589 55.2707 22.2342 55.2746 22.3027 55.2504C22.3367 55.2384 22.3679 55.2198 22.3946 55.1957C22.4214 55.1717 22.4431 55.1426 22.4586 55.1101C22.49 55.0445 22.4939 54.9691 22.4697 54.9006C22.4454 54.8321 22.395 54.776 22.3294 54.7447C22.0814 54.6266 21.8003 54.5975 21.5333 54.6624C21.2664 54.7274 21.0301 54.8823 20.8641 55.1012L20.6228 54.9508C20.5611 54.9123 20.4867 54.8999 20.4159 54.9163C20.3452 54.9328 20.2838 54.9766 20.2454 55.0383C20.2069 55.0999 20.1945 55.1743 20.211 55.2451C20.2274 55.3159 20.2712 55.3773 20.3329 55.4157L20.5728 55.5653C20.4316 55.8316 20.3967 56.1416 20.4752 56.4326C20.5537 56.7237 20.7397 56.9741 20.9957 57.1333Z" fill="#FFECC2"/>
<path d="M41.8505 64.1665C40.917 63.4273 40.3032 62.4326 39.57 61.5066C39.1186 60.9197 38.6482 60.2997 38.4179 60.0258C38.3687 59.9709 38.3108 59.9038 38.2528 59.8855C38.1571 59.8796 38.1551 59.9818 38.1255 60.0858C38.0173 60.6897 37.922 61.5869 37.5312 62.1236C37.4221 62.2659 37.2855 62.372 37.1076 62.3536C36.5311 62.3255 35.7379 60.5348 35.3505 59.7085C35.0909 59.1358 34.8475 58.5561 34.6447 58.062C34.3803 57.4174 34.1974 56.9085 34.1169 56.7862C34.0539 56.6918 34.0439 56.8256 34.045 57.1673C34.0207 57.7643 34.1671 60.0183 33.2899 60.0604C32.1647 59.7684 31.3655 56.7015 31.0428 55.645L30.6016 55.2616C30.1431 54.8637 30.1447 54.1536 30.6033 53.7552C31.8686 52.6542 33.67 51.3609 35.1297 52.0889C37.4181 53.7214 43.4373 59.3397 43.7988 62.5315C43.9927 64.0826 43.3349 65.3287 41.8506 64.1657L41.8505 64.1665Z" fill="#FFDC91"/>
<path d="M18.1123 50.1429L17.5335 50.2236C16.6881 50.9352 14.3471 53.0701 13.2444 52.701C12.5312 52.1886 13.8831 50.3782 14.1866 49.8636C14.3742 49.5786 14.4392 49.4609 14.3346 49.5064C14.2007 49.5634 13.7708 49.8915 13.1977 50.2873C12.7586 50.5924 12.2382 50.9461 11.7082 51.2841C10.9333 51.7657 9.29165 52.8345 8.79289 52.5445C8.63511 52.4626 8.57754 52.2988 8.56386 52.1203C8.52823 51.4583 8.93759 50.6528 9.17631 50.0873C9.2066 49.9842 9.26209 49.8979 9.1787 49.8496C9.12041 49.8328 9.03491 49.8585 8.96393 49.8768C8.62073 49.9818 7.88856 50.2459 7.19106 50.4912C6.0713 50.8682 5.0138 51.3678 3.82951 51.4781C1.95167 51.6443 2.0777 50.2414 3.08626 49.047C5.12742 46.5673 13.2373 45.1367 16.0441 45.016C17.6651 45.2005 18.471 47.2663 18.9321 48.8786C19.0987 49.4624 18.7132 50.0587 18.1123 50.1429Z" fill="#FFDC91"/>
<path d="M47.3592 20.9743C50.2418 18.7142 50.8706 14.8594 47.5299 12.6373C45.7744 11.5016 43.5284 11.232 41.443 11.5902C41.1978 11.6324 40.9813 11.4277 41.0108 11.1801L41.0124 11.1666C41.0336 10.9911 41.1735 10.8536 41.3493 10.836L41.3523 10.8358C43.8065 10.6306 45.6646 8.69999 45.3602 6.48715C45.161 4.77229 43.8586 3.19949 42.4502 2.13326C41.3751 1.31884 40.0783 0.703876 38.7988 0.408969C36.225 -0.22939 32.7294 0.450411 32.4091 3.37405L32.4048 3.4079C32.2304 4.89273 32.871 6.48237 33.7347 7.71566C34.6216 8.96765 35.835 9.82394 37.1886 10.329C37.2771 10.3618 37.3504 10.4265 37.3924 10.5111L38.2762 12.2992C38.3617 12.4721 38.3012 12.6836 38.1353 12.782C38.0692 12.8213 38.0039 12.8609 37.9398 12.9017L37.9115 12.9195C35.5723 14.32 34.0749 17.665 35.4863 20.2565C36.7253 22.4541 39.0829 23.2805 41.4993 23.1715C41.7881 23.1583 42.0672 23.2777 42.2579 23.4946L44.3784 25.9089C44.8052 26.3947 45.6055 26.0828 45.5916 25.4367L45.5329 22.7433C45.5251 22.386 45.7196 22.0575 46.0318 21.8832C46.5137 21.6145 46.9607 21.3095 47.3586 20.9746L47.3592 20.9743Z" fill="#FFECC2"/>
<path d="M37.8492 8.62652C39.5059 9.07044 41.2088 8.08727 41.6527 6.43055C42.0967 4.77384 41.1135 3.07094 39.4568 2.62702C37.8001 2.18311 36.0972 3.16628 35.6533 4.82299C35.2093 6.47971 36.1925 8.18261 37.8492 8.62652Z" fill="#FDCA5B"/>
<path d="M37.5095 4.97054C37.7766 5.04209 38.051 4.88363 38.1226 4.61661C38.1941 4.34959 38.0357 4.07512 37.7686 4.00357C37.5016 3.93202 37.2272 4.09049 37.1556 4.35751C37.0841 4.62453 37.2425 4.89899 37.5095 4.97054Z" fill="#FFA624"/>
<path d="M39.8767 5.60433C40.1438 5.67588 40.4182 5.51742 40.4898 5.2504C40.5613 4.98337 40.4028 4.70891 40.1358 4.63736C39.8688 4.56581 39.5943 4.72428 39.5228 4.9913C39.4512 5.25832 39.6097 5.53278 39.8767 5.60433Z" fill="#FFA624"/>
<path d="M40.1841 6.48788C39.8002 7.17263 38.9887 7.5376 38.1957 7.32512C37.4058 7.11348 36.8865 6.39669 36.892 5.61584L40.184 6.48833L40.1841 6.48788Z" fill="#FFA624"/>
<path d="M43.1899 20.0987C43.1899 20.0987 38.3198 19.2981 39.5171 17.0677C40.2568 15.6898 41.6446 16.563 41.6446 16.563C41.6446 16.563 41.9859 14.9422 43.4967 15.347C45.9423 16.0023 43.1902 20.0993 43.1902 20.0993L43.1899 20.0987Z" fill="#FD76B3"/>
<path d="M43.3252 28.9878C42.1067 28.3911 40.8794 27.8068 39.563 27.399C37.0164 26.5937 33.8616 26.4506 31.4978 27.8355C29.2221 29.1152 27.9896 32.1525 29.0144 34.5594C30.0318 37.2011 33.6482 37.8487 35.7028 35.9885C37.4765 34.4123 36.9173 32.0736 34.8197 31.0101C33.0692 30.0794 30.7698 30.0399 28.7896 30.4476C26.107 31.0375 23.7207 32.3157 21.6061 33.9486" stroke="#B9B5FF" stroke-width="0.848824" stroke-miterlimit="10" stroke-linecap="round"/>
<path d="M73.9986 38.5366L45.4333 30.1092L44.6019 28.3883C44.4974 28.1719 44.4778 27.9292 44.5326 27.7128L46.4315 28.4092L73.9989 38.5365L73.9986 38.5366Z" fill="#8B85F4"/>
<path d="M73.9965 38.5357L46.429 28.4081L44.53 27.7118C44.5765 27.4891 44.6994 27.2856 44.8857 27.1392C44.9148 27.1148 44.9463 27.0944 44.9816 27.0722L50.5055 23.2831C51.6441 22.5018 53.1585 22.5411 54.2544 23.384L73.9962 38.5359L73.9965 38.5357Z" fill="#E6E4FF"/>
<path d="M51.9913 28.1542C51.8163 28.4603 51.6766 28.7867 51.5709 29.1248L51.1637 30.4165C50.6072 32.1026 50.954 34.2269 52.0779 35.6471C53.4308 37.357 55.5559 37.5852 56.8878 35.9828C57.1015 35.7259 57.2818 35.4371 57.4284 35.1243L57.436 35.1077L58.0514 33.7789L58.0573 33.7662C58.973 31.8497 58.6748 29.2082 57.1936 27.5766C55.5177 25.7307 53.1669 26.0979 51.9912 28.1546L51.9913 28.1542Z" fill="white"/>
<path d="M57.259 27.5453C58.7349 29.3314 58.8958 32.3474 57.8262 34.5813L57.8194 34.5963C57.7011 34.8421 57.5678 35.0766 57.4197 35.298C57.3512 35.4017 57.2785 35.5029 57.2031 35.6005C55.6724 37.5817 53.4185 37.5084 52.0676 35.663C51.0996 34.3404 50.763 32.3625 51.1041 30.5468C51.1558 30.2703 51.2232 29.9963 51.3071 29.7275C51.4298 29.3338 51.5873 28.9505 51.7813 28.5872" stroke="#B9B5FF" stroke-width="0.506971" stroke-miterlimit="10" stroke-linecap="round"/>
<path d="M54.8627 27.5404C55.5444 27.568 56.2009 27.9311 56.6952 28.6499C57.4141 29.6946 57.5935 31.1932 57.2808 32.5787" stroke="#B9B5FF" stroke-width="0.506971" stroke-miterlimit="10" stroke-linecap="round"/>
<path d="M55.3277 35.8841C54.3642 36.1486 53.385 35.7444 52.7483 34.7254C52.3461 34.0817 52.1335 33.2799 52.1016 32.4502" stroke="#EFEFEF" stroke-width="0.506971" stroke-miterlimit="10" stroke-linecap="round"/>
<path d="M55.5915 32.6589C55.6474 32.4015 55.6157 32.1328 55.5015 31.8954C55.3873 31.658 55.1972 31.4656 54.9612 31.3486L54.2364 30.9923C54.0962 30.9229 53.9862 30.8046 53.9272 30.6597C53.8681 30.5148 53.8641 30.3533 53.916 30.2056C53.9678 30.058 54.0718 29.9344 54.2085 29.8582C54.3451 29.7819 54.5049 29.7583 54.6578 29.7918L54.9906 29.8642C55.1447 29.8978 55.2811 29.9872 55.3735 30.1151C55.4659 30.243 55.508 30.4005 55.4915 30.5574C55.4842 30.6287 55.5056 30.7001 55.5508 30.7557C55.5961 30.8113 55.6616 30.8466 55.733 30.8539C55.8043 30.8612 55.8756 30.8399 55.9312 30.7946C55.9868 30.7493 56.0222 30.6838 56.0295 30.6125C56.0573 30.3391 55.9887 30.0646 55.8356 29.8365C55.6825 29.6083 55.4544 29.4409 55.1909 29.3631L55.2501 29.0907C55.2654 29.0207 55.2521 28.9474 55.2134 28.8871C55.1746 28.8268 55.1135 28.7844 55.0434 28.7691C54.9734 28.7539 54.9001 28.7671 54.8398 28.8059C54.7795 28.8446 54.7371 28.9058 54.7218 28.9758L54.662 29.2508C54.3858 29.217 54.1066 29.2821 53.8738 29.4345C53.6409 29.5869 53.4696 29.8168 53.39 30.0834C53.3104 30.3501 53.3278 30.6363 53.439 30.8913C53.5502 31.1464 53.7481 31.3539 53.9977 31.477L54.7224 31.8333C54.8621 31.903 54.9716 32.0214 55.0303 32.1661C55.0889 32.3108 55.0928 32.472 55.0411 32.6193C54.9894 32.7667 54.8856 32.8901 54.7494 32.9664C54.6132 33.0427 54.4537 33.0667 54.3011 33.0338L53.9683 32.9614C53.8141 32.9277 53.6777 32.8384 53.5853 32.7105C53.4929 32.5826 53.4509 32.4251 53.4673 32.2682C53.4746 32.1968 53.4533 32.1255 53.408 32.0699C53.3856 32.0424 53.358 32.0195 53.3267 32.0027C53.2955 31.9858 53.2612 31.9753 53.2259 31.9716C53.1545 31.9643 53.0832 31.9857 53.0276 32.031C52.972 32.0762 52.9366 32.1418 52.9293 32.2131C52.9019 32.4827 52.9683 32.7536 53.1173 32.98C53.2663 33.2064 53.4888 33.3746 53.7472 33.4561L53.6876 33.7302C53.6724 33.8003 53.6856 33.8735 53.7243 33.9338C53.7631 33.9941 53.8242 34.0366 53.8943 34.0518C53.9643 34.0671 54.0376 34.0538 54.0979 34.0151C54.1582 33.9763 54.2006 33.9152 54.2159 33.8451L54.2752 33.5726C54.5695 33.6153 54.8691 33.5447 55.1134 33.3751C55.3577 33.2056 55.5286 32.9496 55.5915 32.6589Z" fill="#B9B5FF"/>
<path d="M73.9976 38.5369L44.3376 36.3431L35.5585 35.6918C34.6198 35.621 34.2886 34.4036 35.0698 33.8721L40.9597 29.8342C41.6346 29.3714 42.4825 29.2375 43.2673 29.4693L45.4321 30.1092L73.9974 38.5366L73.9976 38.5369Z" fill="#E6E4FF"/>
<path d="M73.996 38.5368L48.046 40.3629C47.0125 40.436 46.041 39.8722 45.5921 38.9428L44.3359 36.3428L73.9959 38.5365L73.996 38.5368Z" fill="#8B85F4"/>
</svg>
