<svg width="37" height="104" viewBox="0 0 37 104" fill="none" xmlns="http://www.w3.org/2000/svg">
<path d="M1.38041 3.75434L1.3549 3.74583C1.40297 3.7414 1.42678 3.73725 1.42678 3.73725L1.94467 2.18372C1.94467 2.18372 1.15706 0.984851 -0.972454 0.274956C-3.10196 -0.43494 -4.71513 -0.0898951 -4.71513 -0.0898951L-5.2754 1.59077C-5.77284 1.64608 -7.52253 1.98136 -8.18997 3.98351L-11.2631 13.202C-11.2631 13.202 -10.8282 15.0243 -6.66617 16.4118C-1.85913 18.0143 -0.745296 16.7245 -0.745296 16.7245L1.92225 8.72251C2.28866 7.62336 3.35858 5.39077 1.38019 3.75426L1.38041 3.75434Z" fill="#C8EBFF"/>
<path d="M-3.3447 10.4523C-3.56524 10.5015 -3.77247 10.5804 -3.96365 10.6843L-4.71692 11.0914C-5.77216 11.6375 -6.35645 12.9428 -6.05866 14.2791C-5.71051 15.8416 -4.28878 16.8539 -2.88277 16.5409C-2.66873 16.4934 -2.46749 16.4178 -2.28119 16.3182L-2.27128 16.3128L-1.50877 15.9009L-1.5016 15.8972C-0.45198 15.3487 0.128026 14.0466 -0.168732 12.7138C-0.516736 11.1517 -1.93861 10.139 -3.34448 10.4524L-3.3447 10.4523Z" fill="#FDCA5B"/>
<path d="M-0.166124 12.714C0.130708 14.0465 -0.449297 15.3486 -1.49899 15.8973L-1.50616 15.901C-1.62775 15.964 -1.75525 16.0167 -1.88897 16.0584C-1.95183 16.0784 -2.01625 16.0956 -2.0817 16.11C-3.48749 16.4231 -4.90944 15.4107 -5.2576 13.8483C-5.51316 12.7003 -5.1182 11.5754 -4.33306 10.9351C-4.21739 10.8403 -4.09306 10.7565 -3.96105 10.6844C-3.76979 10.5803 -3.56263 10.5017 -3.34209 10.4524" stroke="#FFA624" stroke-width="0.38788" stroke-linecap="round" stroke-linejoin="round"/>
<path d="M-1.8907 16.0577C-1.75706 16.0162 -1.62948 15.9633 -1.50789 15.9003L-2.2704 16.3122L-2.28031 16.3176C-2.46654 16.4169 -2.66778 16.4926 -2.88189 16.5403C-4.28768 16.8534 -5.70963 15.841 -6.05778 14.2785C-6.35557 12.9422 -5.77121 11.6366 -4.71604 11.0908L-3.96278 10.6837C-4.09479 10.7558 -4.21912 10.8396 -4.33479 10.9344C-5.12016 11.5746 -5.51512 12.6995 -5.25933 13.8475C-4.91118 15.41 -3.48944 16.4223 -2.08343 16.1093C-2.01798 16.0949 -1.95349 16.0774 -1.8907 16.0577Z" stroke="#FFA624" stroke-width="0.38788" stroke-linecap="round" stroke-linejoin="round"/>
<path d="M-1.47266 11.5566C-1.11486 11.8736 -0.843964 12.3175 -0.727346 12.8403C-0.560369 13.5899 -0.749422 14.3271 -1.17513 14.8402" stroke="#FFA624" stroke-width="0.38788" stroke-linecap="round" stroke-linejoin="round"/>
<path d="M-4.71784 -0.0899528L-5.27811 1.59071C-5.27811 1.59071 -4.81944 2.21744 -2.2473 3.07489C0.324844 3.93234 1.42393 3.7369 1.42393 3.7369L1.94182 2.18337C1.94182 2.18337 1.1542 0.984498 -0.975309 0.274602C-3.10482 -0.435293 -4.71806 -0.0900268 -4.71806 -0.0900268L-4.71784 -0.0899528Z" stroke="#43B9FB" stroke-width="0.423142" stroke-linecap="round" stroke-linejoin="round"/>
<path d="M-4.70703 0.0917969C-4.70703 0.0917969 -4.85363 0.726791 -1.85417 1.7267C1.14529 2.7266 1.90492 2.29596 1.90492 2.29596" stroke="#43B9FB" stroke-width="0.423142" stroke-linecap="round" stroke-linejoin="round"/>
<path d="M-2.49555 2.22489C-1.95552 2.47444 0.244838 3.33713 1.64796 3.07417" stroke="#43B9FB" stroke-width="0.423142" stroke-linecap="round" stroke-linejoin="round"/>
<path d="M1.74889 -3.93727C1.56119 -4.06492 1.36099 -4.16248 1.15332 -4.23097L0.337281 -4.503C-0.78834 -4.90018 -2.14628 -4.43036 -2.92027 -3.29329C-3.82518 -1.96393 -3.58892 -0.226293 -2.39283 0.588081C-2.21083 0.712112 -2.01706 0.807521 -1.81612 0.875493L-0.979448 1.15441L-0.971609 1.15677C0.151941 1.54833 1.50448 1.0777 2.27641 -0.0561198C3.18123 -1.38526 2.94506 -3.12311 1.74889 -3.93727Z" fill="#FDCA5B"/>
<path d="M2.27517 -0.0556243C1.50325 1.0782 0.150705 1.54883 -0.972845 1.15727L-0.98061 1.15468C-1.11033 1.10897 -1.23672 1.0518 -1.35905 0.982425C-1.41681 0.950104 -1.47383 0.914825 -1.52944 0.876809C-2.72553 0.0624354 -2.96178 -1.6752 -2.05688 -3.00456C-1.39183 -3.98122 -0.296291 -4.46554 0.712631 -4.33062C0.861655 -4.31102 1.00853 -4.27758 1.15208 -4.23047C1.35975 -4.16198 1.55995 -4.06443 1.74765 -3.93677" stroke="#FFA624" stroke-width="0.38788" stroke-linecap="round" stroke-linejoin="round"/>
<path d="M-1.35774 0.983668C-1.23541 1.05304 -1.10902 1.11022 -0.979303 1.15592L-1.80533 0.88056L-1.81605 0.877232C-2.01699 0.80926 -2.21076 0.71385 -2.39276 0.589819C-3.58885 -0.224555 -3.8251 -1.96219 -2.9202 -3.29155C-2.14621 -4.42862 -0.788269 -4.89844 0.337278 -4.50104L1.15332 -4.229C1.00984 -4.27634 0.862962 -4.30977 0.713939 -4.32938C-0.294984 -4.4643 -1.39053 -3.97998 -2.05557 -3.00332C-2.96048 -1.67395 -2.72423 0.0636786 -1.52813 0.878053C-1.47252 0.916068 -1.4155 0.951347 -1.35774 0.983668Z" stroke="#FFA624" stroke-width="0.38788" stroke-linecap="round" stroke-linejoin="round"/>
<path d="M2.22587 -1.81009C2.23984 -1.32989 2.10108 -0.826388 1.79822 -0.381542C1.364 0.256181 0.694082 0.624768 0.0254328 0.66565" stroke="#FFA624" stroke-width="0.38788" stroke-linecap="round" stroke-linejoin="round"/>
<path d="M0.433732 6.40462C0.504972 6.19091 0.389534 5.95994 0.175893 5.88872C-0.0377476 5.8175 -0.268689 5.93301 -0.339929 6.14671L-1.59892 9.92338C-1.67016 10.1371 -1.55473 10.3681 -1.34108 10.4393C-1.12744 10.5105 -0.896503 10.395 -0.825263 10.1813L0.433732 6.40462Z" fill="white"/>
<path d="M3.05087 24.2223C1.89823 30.0945 -2.41122 46.967 -13.8365 46.2809C-16.7782 46.1043 -19.063 44.8204 -20.8354 42.907L-19.0221 40.803L-15.1674 36.3332L-11.7646 32.3859L-11.4394 28.3104C-11.3711 27.4578 -10.6822 26.7835 -9.90079 26.8304C-9.1194 26.8774 -8.58176 27.6253 -8.69343 28.4753L-8.74724 28.8886L-5.46772 25.0854L-3.00975 22.2332L-0.986717 19.8861C0.0842112 20.5765 0.999608 21.0914 1.71416 21.4612C2.72264 21.9844 3.26948 23.1059 3.05087 24.2223Z" fill="#FDCA5B"/>
<path d="M-0.299167 25.8291C-1.30395 30.8852 -4.76538 44.0392 -13.5497 43.5117C-15.8479 43.3737 -17.6338 42.3425 -19.0202 40.8029L-15.1655 36.3331L-11.7627 32.3858L-11.4375 28.3103C-11.3692 27.4577 -10.6803 26.7834 -9.89889 26.8303C-9.11751 26.8773 -8.57987 27.6252 -8.69154 28.4752L-8.74535 28.8884L-5.46583 25.0853L-3.00785 22.2331C-2.46224 22.5848 -1.97595 22.8711 -1.56013 23.1016C-0.590763 23.6396 -0.0836092 24.7416 -0.299167 25.8291Z" fill="#8B85F4"/>
<path d="M-10.6164 53.9343C-11.0976 53.6073 -11.0754 52.8926 -10.5751 52.5963C-9.28348 51.8305 -8.18163 50.6239 -7.67673 49.2119C-6.92038 47.2666 -6.93869 45.0674 -6.25828 43.2523C-5.68035 41.4742 -4.07681 39.8871 -2.35355 39.2717C-2.11948 39.188 -1.85928 39.2276 -1.65369 39.3674L5.49407 44.2215C5.98102 44.5524 5.95088 45.2795 5.43811 45.5686C4.07219 46.337 2.89499 47.6748 2.41772 49.1435C1.73732 50.9586 1.75502 53.1569 0.999273 55.1031C0.394111 56.7945 -1.06551 58.1904 -2.68335 58.8875C-2.92938 58.9935 -3.21319 58.9617 -3.43454 58.8107L-10.6154 53.9337L-10.6164 53.9343Z" fill="#FD76B3"/>
<path d="M-1.22064 47.6682C-0.802455 47.0075 0.120688 47.0223 0.575843 47.2068L0.576333 47.207C0.675207 47.2471 0.682237 47.2499 0.630147 47.1564C0.451564 46.8359 0.114454 46.0003 0.380552 45.2723M0.461111 47.1226L-2.9646 44.9646" stroke="#FFECC2" stroke-width="0.701218" stroke-linecap="round"/>
<path d="M13.9824 61.1996C13.0949 60.4058 12.5418 59.3762 11.8654 58.4078C11.4501 57.795 11.0176 57.1479 10.8042 56.8606C10.7584 56.8029 10.7047 56.7325 10.6479 56.7107C10.5526 56.6991 10.5445 56.801 10.5087 56.903C10.3646 57.4994 10.2156 58.3893 9.79335 58.9015C9.67597 59.0371 9.53319 59.1348 9.35673 59.1057C8.783 59.0431 8.09855 57.2081 7.7613 56.36C7.53657 55.7729 7.32836 55.1796 7.1555 54.6742C6.93022 54.0149 6.77813 53.496 6.70511 53.3691C6.64789 53.271 6.62989 53.4041 6.61047 53.7452C6.55052 54.3397 6.56151 56.5984 5.68333 56.5878C4.57765 56.2289 3.96376 53.1197 3.70495 52.0456L3.28752 51.6365C2.85367 51.2118 2.89789 50.5031 3.37955 50.133C4.70852 49.1098 6.58418 47.9268 7.99764 48.7409C10.1841 50.5077 15.8557 56.4767 16.0252 59.6844C16.1258 61.2443 15.3945 62.4488 13.9826 61.1988L13.9824 61.1996Z" fill="#FFDC91"/>
<path d="M22.0716 18.4155C25.0844 16.3323 25.9432 12.522 22.7417 10.1038C21.0574 8.86483 18.8316 8.46109 16.7285 8.6937C16.4812 8.72108 16.2774 8.50378 16.3216 8.25837L16.3241 8.24505C16.3557 8.0711 16.5036 7.94225 16.6802 7.93522L16.6831 7.93522C19.1452 7.87745 21.1157 6.06169 20.9445 3.83457C20.8484 2.11087 19.6427 0.462831 18.3007 -0.6859C17.2764 -1.5633 16.0187 -2.25489 14.7592 -2.62596C12.2283 -3.41745 8.69829 -2.94839 8.2033 -0.0492066L8.197 -0.0156756C7.93384 1.45603 8.47806 3.0812 9.26623 4.36404C10.0765 5.66695 11.2365 6.59443 12.5573 7.17972C12.6437 7.21779 12.713 7.28676 12.7499 7.37373L13.5249 9.21152C13.5998 9.38928 13.5268 9.59677 13.3553 9.68506C13.2869 9.72034 13.2194 9.75592 13.1529 9.79282L13.1236 9.80893C10.7047 11.0666 9.00945 14.3159 10.2631 16.9873C11.3681 19.2553 13.6719 20.2215 16.0905 20.2575C16.3796 20.2616 16.651 20.3975 16.8283 20.6255L18.8003 23.1625C19.1973 23.6731 20.0148 23.4097 20.0397 22.764L20.1425 20.0718C20.1562 19.7147 20.3699 19.3984 20.6921 19.2432C21.1892 19.0038 21.6537 18.7262 22.071 18.4158L22.0716 18.4155Z" fill="#FFECC2"/>
<path d="M13.3178 5.51903C14.945 6.06145 16.7037 5.18212 17.2462 3.55499C17.7886 1.92786 16.9092 0.169093 15.2821 -0.373328C13.655 -0.915749 11.8962 -0.0364203 11.3538 1.59071C10.8114 3.21784 11.6907 4.97661 13.3178 5.51903Z" fill="#FDCA5B"/>
<path d="M13.1973 1.85018C13.4596 1.93761 13.743 1.79588 13.8305 1.53363C13.9179 1.27138 13.7762 0.987909 13.5139 0.900484C13.2517 0.813059 12.9682 0.954785 12.8808 1.21704C12.7933 1.47929 12.9351 1.76276 13.1973 1.85018Z" fill="#FFA624"/>
<path d="M15.5254 2.62557C15.7877 2.713 16.0712 2.57127 16.1586 2.30902C16.246 2.04677 16.1043 1.7633 15.842 1.67587C15.5798 1.58845 15.2963 1.73018 15.2089 1.99243C15.1215 2.25468 15.2632 2.53815 15.5254 2.62557Z" fill="#FFA624"/>
<path d="M15.7777 3.5243C15.3535 4.1848 14.5215 4.50048 13.7427 4.24085C12.9669 3.98224 12.4915 3.23561 12.5438 2.45649L15.7776 3.52474L15.7777 3.5243Z" fill="#FFA624"/>
<path d="M17.9594 17.2912C17.9594 17.2912 13.1461 16.2001 14.4749 14.0455C15.296 12.7144 16.6288 13.6692 16.6288 13.6692C16.6288 13.6692 17.0667 12.0718 18.5505 12.5664C20.9525 13.3671 17.9597 17.2918 17.9597 17.2918L17.9594 17.2912Z" fill="#FD76B3"/>
<path d="M23.8025 37.7384L-4.20628 27.614L-4.93303 25.8463C-5.02442 25.624 -5.0294 25.3805 -4.96177 25.1679L-3.10797 25.9768L23.8028 37.7383L23.8025 37.7384Z" fill="#8B85F4"/>
<path d="M23.8027 37.7383L-3.10826 25.9765L-4.96207 25.1675C-4.90227 24.948 -4.7674 24.7522 -4.57271 24.6173C-4.54216 24.5947 -4.50953 24.5762 -4.47292 24.5561L1.2681 21.105C2.45153 20.3934 3.96087 20.5234 5.00429 21.4304L23.8024 37.7384L23.8027 37.7383Z" fill="#E6E4FF"/>
<path d="M2.45829 26.0556C2.26526 26.3507 2.10625 26.6682 1.98049 26.9993L1.49662 28.2642C0.840095 29.914 1.05889 32.0553 2.09561 33.5403C3.3436 35.3282 5.45122 35.6834 6.87679 34.1637C7.10545 33.9201 7.30273 33.6426 7.46791 33.3391L7.47644 33.323L8.17037 32.0335L8.177 32.0211C9.20597 30.163 9.0666 27.5084 7.68587 25.7909C6.12362 23.8478 3.75509 24.0736 2.45825 26.056L2.45829 26.0556Z" fill="white"/>
<path d="M7.75575 25.7647C9.12192 27.636 9.10176 30.6563 7.90018 32.822L7.89256 32.8366C7.75966 33.0749 7.61259 33.3009 7.45152 33.5131C7.37689 33.6124 7.2982 33.7091 7.21711 33.802C5.57041 35.688 3.32497 35.4796 2.08708 33.5566C1.2001 32.1783 0.982687 30.1838 1.43197 28.3918C1.50022 28.119 1.58385 27.8495 1.68377 27.5862C1.82985 27.2005 2.01006 26.8274 2.22549 26.4763" stroke="#B9B5FF" stroke-width="0.506971" stroke-miterlimit="10" stroke-linecap="round"/>
<path d="M5.36237 25.6146C6.04119 25.683 6.67476 26.0848 7.12507 26.8319C7.78004 27.9178 7.86931 29.4245 7.47413 30.7887" stroke="#B9B5FF" stroke-width="0.506971" stroke-miterlimit="10" stroke-linecap="round"/>
<path d="M5.32311 33.9727C4.34545 34.179 3.39226 33.7168 2.81781 32.6615C2.4549 31.9948 2.29075 31.1816 2.30859 30.3516" stroke="#EFEFEF" stroke-width="0.506971" stroke-miterlimit="10" stroke-linecap="round"/>
<path d="M5.78327 30.7686C5.85446 30.5149 5.83895 30.2448 5.7392 30.001C5.63944 29.7573 5.46115 29.5538 5.23261 29.4228L4.53053 29.0237C4.3947 28.946 4.29199 28.8214 4.24174 28.6732C4.1915 28.525 4.1972 28.3635 4.25777 28.2193C4.31835 28.075 4.4296 27.9579 4.57057 27.89C4.71154 27.8221 4.87248 27.8081 5.02305 27.8506L5.35092 27.9429C5.5028 27.9857 5.63355 28.083 5.71814 28.2162C5.80274 28.3494 5.83524 28.5092 5.80942 28.6649C5.79785 28.7356 5.81488 28.8081 5.85674 28.8663C5.89861 28.9245 5.96189 28.9637 6.03266 28.9753C6.10344 28.9869 6.17591 28.9698 6.23413 28.928C6.29235 28.8861 6.33156 28.8228 6.34312 28.7521C6.38728 28.4809 6.33527 28.2027 6.19609 27.9658C6.0569 27.7289 5.83929 27.5481 5.5809 27.4546L5.65636 27.1864C5.67577 27.1173 5.66697 27.0434 5.63189 26.9809C5.59682 26.9184 5.53834 26.8724 5.46933 26.853C5.40031 26.8335 5.32642 26.8423 5.26389 26.8774C5.20137 26.9125 5.15534 26.971 5.13593 27.04L5.05974 27.3109C4.78605 27.2606 4.50341 27.3088 4.26187 27.447C4.02034 27.5852 3.83549 27.8044 3.74008 28.0658C3.64467 28.3271 3.64484 28.6139 3.74057 28.8752C3.83631 29.1364 4.02142 29.3554 4.26312 29.4933L4.9652 29.8923C5.10049 29.9703 5.20268 30.095 5.25257 30.243C5.30246 30.391 5.29664 30.5521 5.23618 30.6961C5.17573 30.84 5.06481 30.957 4.92423 31.025C4.78366 31.093 4.62309 31.1074 4.47268 31.0654L4.1448 30.9732C3.99293 30.9304 3.86218 30.833 3.77759 30.6998C3.69299 30.5666 3.66049 30.4069 3.68631 30.2512C3.69787 30.1804 3.68085 30.108 3.63898 30.0497C3.61825 30.0209 3.59205 29.9965 3.56186 29.9778C3.53168 29.9591 3.49811 29.9465 3.46306 29.9408C3.39229 29.9292 3.31982 29.9462 3.2616 29.9881C3.20338 30.03 3.16417 30.0932 3.15261 30.164C3.10907 30.4315 3.15909 30.7059 3.29424 30.9408C3.42938 31.1757 3.64139 31.3569 3.89452 31.4538L3.81855 31.7239C3.79914 31.7929 3.80794 31.8668 3.84302 31.9293C3.87809 31.9918 3.93657 32.0378 4.00558 32.0573C4.0746 32.0767 4.14849 32.0679 4.21102 32.0328C4.27354 31.9977 4.31957 31.9392 4.33899 31.8702L4.41451 31.6017C4.70576 31.662 5.00903 31.6095 5.26308 31.4549C5.51714 31.3002 5.70305 31.0549 5.78327 30.7686Z" fill="#B9B5FF"/>
<path d="M23.8036 37.7391L-5.67154 33.7714L-14.3959 32.5951C-15.3286 32.4681 -15.5862 31.233 -14.7746 30.7493L-8.65323 27.0718C-7.95179 26.6502 -7.09742 26.5674 -6.32789 26.8458L-4.20536 27.6143L23.8035 37.7387L23.8036 37.7391Z" fill="#E6E4FF"/>
<path d="M23.7995 37.7394L-2.21336 38.0068C-3.24942 38.0178 -4.1853 37.3968 -4.57777 36.4422L-5.67578 33.7715L23.7993 37.7391L23.7995 37.7394Z" fill="#8B85F4"/>
<path d="M-8.6614 100.448C-0.198513 100.956 7.07397 94.5074 7.58215 86.0446C8.09033 77.5817 1.64177 70.3092 -6.82112 69.801C-15.284 69.2928 -22.5565 75.7414 -23.0647 84.2043C-23.5729 92.6672 -17.1243 99.9396 -8.6614 100.448Z" fill="#FFECC2"/>
<path d="M-3.30844 76.1514C-4.00883 78.0747 -0.898213 79.8922 0.291236 78.0072C1.3198 75.93 -2.29265 74.0429 -3.27544 76.0711L-3.30844 76.1514Z" fill="white"/>
<path d="M-1.95057 78.2126C-2.86554 78.7921 -2.15003 80.5582 -1.04264 80.1525C0.059153 79.6146 -0.844329 77.6569 -1.91084 78.1891L-1.95051 78.2115L-1.95057 78.2126Z" fill="white"/>
<path d="M-1.58217 93.5589C-2.84024 93.7527 -2.90031 95.9918 -1.517 96.0771C-0.0764417 96.016 -0.128246 93.4817 -1.52885 93.5531L-1.58217 93.5589Z" fill="#FDCA5B"/>
<path d="M3.51242 84.7749C1.94556 84.1241 0.11906 86.8025 1.6085 87.8792C3.27627 88.8201 5.20788 85.705 3.57712 84.8047L3.51242 84.7749Z" fill="#FDCA5B"/>
<path d="M-23.7821 95.4611C-27.7505 95.2228 -30.0453 94.1012 -30.6147 92.1173C-31.1973 90.0899 -29.7558 87.8537 -26.3323 85.474C-25.7148 85.0445 -24.8652 85.197 -24.4358 85.8156C-24.0063 86.433 -24.1587 87.2826 -24.7773 87.712C-27.5916 89.6674 -28.113 90.9569 -27.9955 91.3651C-27.8771 91.7757 -26.5274 92.8338 -21.7583 92.7821C-17.4596 92.7371 -11.9666 91.8149 -6.29242 90.1845C-0.617203 88.5554 4.52817 86.4222 8.1958 84.1811C12.2648 81.6937 12.8495 80.0823 12.731 79.6717C12.6378 79.3483 11.8777 78.7189 9.61815 78.4175C8.8724 78.3187 8.34787 77.6324 8.44787 76.8867C8.54787 76.141 9.234 75.6187 9.9787 75.7164C13.051 76.1263 14.8582 77.204 15.3502 78.9195C16.012 81.2233 14.0826 83.7761 9.61588 86.5068C5.74463 88.8731 0.362047 91.1093 -5.54142 92.8048C-11.4448 94.4991 -17.1948 95.4589 -21.7315 95.5065C-22.4588 95.5147 -23.1431 95.4995 -23.7843 95.461L-23.7821 95.4611Z" fill="#FDCA5B"/>
<path d="M9.47985 71.5217L-2.19995 73.9115C-2.45382 73.9634 -2.68282 73.757 -2.70841 73.4557L-2.83497 71.9831C-3.06678 69.2793 -1.89614 66.8604 -0.0538389 65.5637C0.0975375 65.4574 0.170866 65.2713 0.133717 65.0897L0.116402 65.0051C0.0788598 64.8216 -0.0646898 64.6782 -0.2485 64.6417C-2.48136 64.1981 -4.54547 62.4226 -5.40395 59.8154L-5.8664 58.4111C-5.96077 58.1243 -5.83126 57.8445 -5.57738 57.7925L6.10242 55.4027C6.35629 55.3508 6.58529 55.5572 6.6108 55.8582L6.73706 57.3312C6.97252 60.0763 5.76205 62.5278 3.87048 63.8089C3.71494 63.9145 3.63816 64.1034 3.67586 64.2876C3.71403 64.4742 3.86182 64.6187 4.04908 64.6525C6.32067 65.0622 8.43459 66.8519 9.30634 69.4985L9.76872 70.9023C9.86316 71.1896 9.73365 71.4694 9.47977 71.5213L9.47985 71.5217Z" fill="#C8EBFF"/>
<path d="M0.571278 68.045C0.659591 68.1476 0.759924 68.2344 0.868736 68.306L1.29681 68.5883C1.88334 68.9909 2.73771 68.9299 3.35874 68.3944C4.08472 67.7686 4.21688 66.732 3.65395 66.0785C3.56827 65.979 3.47157 65.8942 3.36623 65.824L3.36067 65.8203L2.9275 65.5346L2.92333 65.5319C2.33681 65.1333 1.48545 65.1953 0.866105 65.7292C0.140054 66.3546 0.00796751 67.3916 0.571278 68.045Z" fill="#FDCA5B"/>
<path d="M0.864314 65.7302C1.48374 65.1967 2.33502 65.1343 2.92154 65.5329L2.92571 65.5356C2.99329 65.5819 3.05736 65.6345 3.11706 65.6933C3.14514 65.7208 3.17276 65.75 3.19899 65.7803C3.76192 66.4338 3.62976 67.4703 2.90378 68.0962C2.37027 68.556 1.66496 68.6659 1.10459 68.4323C1.02181 68.3979 0.942317 68.3561 0.866946 68.307C0.758134 68.2354 0.657801 68.1486 0.569488 68.046" stroke="#FFA624" stroke-width="0.22848" stroke-miterlimit="10" stroke-linecap="round"/>
<path d="M3.11789 65.6927C3.05819 65.634 2.99412 65.5814 2.92654 65.5351L3.35971 65.8208L3.36527 65.8245C3.47061 65.8947 3.56731 65.9795 3.65299 66.079C4.21592 66.7325 4.08375 67.769 3.35778 68.3949C2.73667 68.9299 1.88238 68.9913 1.29584 68.5887L0.867775 68.3064C0.943146 68.3555 1.02272 68.3978 1.10542 68.4317C1.66533 68.665 2.37102 68.5551 2.90461 68.0957C3.63058 67.4698 3.76275 66.4332 3.19982 65.7798C3.17359 65.7495 3.14635 65.7202 3.11789 65.6927Z" stroke="#FFA624" stroke-width="0.22848" stroke-miterlimit="10" stroke-linecap="round"/>
<path d="M0.62457 66.7466C0.690636 66.4681 0.84807 66.1995 1.09139 65.9902C1.43996 65.69 1.88216 65.5811 2.27352 65.6605" stroke="#FFA624" stroke-width="0.22848" stroke-miterlimit="10" stroke-linecap="round"/>
<path d="M3.17154 66.6148C3.22917 67.0414 3.05791 67.5089 2.68043 67.8342C2.43887 68.0423 2.1524 68.1582 1.86899 68.1834" stroke="#FFA624" stroke-width="0.22848" stroke-miterlimit="10" stroke-linecap="round"/>
<path d="M-2.99041 60.5152C-3.04307 60.6398 -3.07653 60.7681 -3.09252 60.8976L-3.15595 61.4063C-3.25632 62.1106 -2.82307 62.8491 -2.06796 63.1687C-1.18526 63.5419 -0.197067 63.2007 0.13853 62.4062C0.189508 62.2852 0.222608 62.161 0.238992 62.0354L0.239656 62.0289L0.303828 61.514L0.304423 61.5091C0.401954 60.8066 -0.0314334 60.0713 -0.784687 59.7529C-1.66739 59.3797 -2.65558 59.7209 -2.99118 60.5154L-2.99041 60.5152Z" fill="#32DBC6"/>
<path d="M-0.783471 59.7533C-0.0306019 60.0718 0.402785 60.8071 0.305638 61.5094L0.305044 61.5144C0.293623 61.5957 0.274806 61.6761 0.248592 61.7556C0.236591 61.7929 0.222667 61.8306 0.206968 61.8675C-0.129014 62.662 -1.11682 63.0032 -1.99953 62.6299C-2.64802 62.3554 -3.05956 61.772 -3.0985 61.1664C-3.10437 61.077 -3.1023 60.9872 -3.0913 60.898C-3.0757 60.7686 -3.04185 60.6402 -2.98919 60.5156" stroke="#20BA90" stroke-width="0.22848" stroke-linecap="round" stroke-linejoin="round"/>
<path d="M0.248086 61.7549C0.274299 61.6754 0.293038 61.5946 0.304538 61.5137L0.240366 62.0286L0.239702 62.0351C0.223702 62.1606 0.190217 62.2849 0.139239 62.4059C-0.196743 63.2005 -1.18455 63.5417 -2.06725 63.1684C-2.82228 62.8492 -3.25599 62.1104 -3.15524 61.406L-3.09181 60.8973C-3.10234 60.9868 -3.10487 61.0763 -3.09901 61.1657C-3.05968 61.7712 -2.64852 62.3548 -2.00003 62.6293C-1.11733 63.0025 -0.129214 62.6609 0.206462 61.8668C0.222161 61.8299 0.236085 61.7922 0.248086 61.7549Z" stroke="#20BA90" stroke-width="0.22848" stroke-linecap="round" stroke-linejoin="round"/>
<path d="M-1.8007 59.9867C-1.5217 59.9224 -1.21098 59.9446 -0.915739 60.0694C-0.492361 60.2484 -0.198211 60.597 -0.0960155 60.9829" stroke="#20BA90" stroke-width="0.22848" stroke-linecap="round" stroke-linejoin="round"/>
<path d="M4.04617 62.2566C4.1591 62.1818 4.25812 62.0938 4.34285 61.9947L4.67739 61.6065C5.15115 61.0759 5.1998 60.2208 4.748 59.5365C4.22 58.7364 3.20834 58.4733 2.4884 58.9485C2.37892 59.0206 2.2822 59.1061 2.19954 59.2015L2.19532 59.2064L1.85656 59.5995L1.85335 59.6034C1.38321 60.134 1.3364 60.9864 1.78665 61.669C2.31457 62.4687 3.3263 62.7321 4.04578 62.2567L4.04617 62.2566Z" fill="#32DBC6"/>
<path d="M1.78654 61.6697C1.33637 60.9875 1.38281 60.1352 1.85324 59.6041L1.85646 59.6003C1.91086 59.539 1.97098 59.4823 2.03697 59.4307C2.06805 59.4063 2.10013 59.3829 2.13368 59.3608C2.85362 58.8857 3.8649 59.1488 4.39328 59.9489C4.78128 60.5367 4.80022 61.2502 4.49739 61.7759C4.45277 61.8535 4.40127 61.927 4.34274 61.9955C4.25802 62.0946 4.159 62.1826 4.04606 62.2574" stroke="#20BA90" stroke-width="0.22848" stroke-linecap="round" stroke-linejoin="round"/>
<path d="M2.03786 59.4314C1.97186 59.483 1.91175 59.5398 1.85735 59.601L2.19611 59.2079L2.20032 59.203C2.28337 59.1075 2.37978 59.0224 2.48919 58.9499C3.20913 58.4748 4.2204 58.738 4.74879 59.538C5.20058 60.2222 5.15231 61.0773 4.67818 61.608L4.34363 61.9962C4.40216 61.9277 4.45365 61.8543 4.49828 61.7766C4.80111 61.251 4.78208 60.5371 4.39417 59.9496C3.86625 59.1499 2.85451 58.8864 2.13457 59.3615C2.10102 59.3836 2.06855 59.4071 2.03786 59.4314Z" stroke="#20BA90" stroke-width="0.22848" stroke-linecap="round" stroke-linejoin="round"/>
<path d="M2.76432 62.0386C2.49637 61.9375 2.25019 61.747 2.0736 61.4794C1.82034 61.0955 1.76859 60.6429 1.89766 60.265" stroke="#20BA90" stroke-width="0.22848" stroke-linecap="round" stroke-linejoin="round"/>
<path d="M2.96094 59.4961C3.39113 59.493 3.83329 59.7228 4.10795 60.1387C4.28338 60.4046 4.36225 60.7038 4.35111 60.9882" stroke="#20BA90" stroke-width="0.22848" stroke-linecap="round" stroke-linejoin="round"/>
<path d="M-0.107391 72.3953C-0.0661039 72.4854 -0.0106289 72.5626 0.0565688 72.6266L0.31903 72.8791C0.67429 73.2385 1.378 73.2031 2.03068 72.7537C2.79368 72.2285 3.19822 71.3362 2.93417 70.7606C2.89421 70.673 2.84074 70.5978 2.77625 70.5352L2.77277 70.532L2.50729 70.2765L2.50481 70.2742C2.14865 69.9182 1.44717 69.9548 0.796256 70.4029C0.0332629 70.9282 -0.371279 71.8205 -0.107233 72.3961L-0.107391 72.3953Z" fill="#FDCA5B"/>
<path d="M0.798242 70.4034C1.44915 69.9552 2.15063 69.9187 2.5068 70.2747L2.50927 70.277C2.55019 70.3183 2.58659 70.3649 2.61762 70.4167C2.6322 70.441 2.64587 70.4666 2.65815 70.4934C2.92212 71.0686 2.51796 71.9608 1.75466 72.4865C1.19403 72.8725 0.595697 72.9528 0.213135 72.7402C0.156631 72.7089 0.104795 72.671 0.0585543 72.6271C-0.00825884 72.563 -0.0636549 72.4862 -0.105405 72.3958" stroke="#FFA624" stroke-width="0.22848" stroke-miterlimit="10" stroke-linecap="round"/>
<path d="M2.5544 70.3558C2.51935 70.3001 2.47893 70.2494 2.43399 70.2041L2.72537 70.4843L2.72932 70.4879C2.79984 70.5565 2.85934 70.6377 2.9058 70.7316C3.21076 71.3465 2.8291 72.2605 2.0532 72.7736C1.38954 73.2123 0.652417 73.2157 0.261819 72.8227L-0.0256213 72.5461C0.0251836 72.5946 0.0814256 72.6364 0.142415 72.672C0.55444 72.9131 1.17868 72.8575 1.74882 72.4808C2.52473 71.9677 2.90638 71.0537 2.60143 70.4388C2.58713 70.41 2.57192 70.3827 2.55494 70.3565L2.5544 70.3558Z" stroke="#FFA624" stroke-width="0.22848" stroke-miterlimit="10" stroke-linecap="round"/>
<path d="M0.310089 71.276C0.44309 71.0368 0.64721 70.8083 0.902616 70.6326C1.26864 70.3805 1.65559 70.2953 1.94661 70.3721" stroke="#FFA624" stroke-width="0.22848" stroke-miterlimit="10" stroke-linecap="round"/>
<path d="M2.33499 71.1056C2.2587 71.4751 1.98627 71.8751 1.58969 72.1482C1.33605 72.3228 1.07243 72.4172 0.837259 72.4332" stroke="#FFA624" stroke-width="0.22848" stroke-miterlimit="10" stroke-linecap="round"/>
<path d="M6.43525 68.6168L3.45376 69.2269C3.36496 69.245 3.3077 69.3318 3.32587 69.4206L3.43897 69.9733C3.45714 70.0621 3.54385 70.1194 3.63265 70.1012L6.61415 69.4912C6.70295 69.473 6.76021 69.3863 6.74204 69.2975L6.62894 68.7447C6.61077 68.6559 6.52405 68.5987 6.43525 68.6168Z" fill="#FDCA5B"/>
<path d="M5.95869 69.5485L2.97719 70.1585C2.88839 70.1767 2.83114 70.2634 2.8493 70.3522L2.9624 70.9049C2.98057 70.9937 3.06729 71.051 3.15609 71.0328L6.13759 70.4228C6.22639 70.4046 6.28364 70.3179 6.26547 70.2291L6.15238 69.6764C6.13421 69.5876 6.04749 69.5303 5.95869 69.5485Z" fill="#FDCA5B"/>
<path d="M6.5876 70.2653L3.6061 70.8753C3.5173 70.8935 3.46004 70.9802 3.47821 71.069L3.59131 71.6217C3.60948 71.7105 3.6962 71.7678 3.785 71.7496L6.76649 71.1396C6.85529 71.1214 6.91255 71.0347 6.89438 70.9459L6.78128 70.3932C6.76311 70.3044 6.6764 70.2471 6.5876 70.2653Z" fill="#FDCA5B"/>
<path d="M6.25556 71.1539L3.27407 71.764C3.18527 71.7821 3.12801 71.8689 3.14618 71.9577L3.25928 72.5104C3.27745 72.5992 3.36416 72.6565 3.45296 72.6383L6.43446 72.0283C6.52326 72.0101 6.58052 71.9234 6.56235 71.8346L6.44925 71.2818C6.43108 71.193 6.34437 71.1358 6.25556 71.1539Z" fill="#FDCA5B"/>
<path d="M3.57031 70.0723L5.69171 69.6382" stroke="#FFA624" stroke-width="0.22848" stroke-miterlimit="10" stroke-linecap="round"/>
<path d="M4.04688 70.8027L6.16866 70.3686" stroke="#FFA624" stroke-width="0.22848" stroke-miterlimit="10" stroke-linecap="round"/>
<path d="M3.76953 71.6641L5.89131 71.2299" stroke="#FFA624" stroke-width="0.22848" stroke-miterlimit="10" stroke-linecap="round"/>
<path d="M4 69.2363L4.14387 69.9395" stroke="#FFA624" stroke-width="0.22848" stroke-miterlimit="10" stroke-linecap="round"/>
<path d="M4.6875 69.0977L4.83137 69.8008" stroke="#FFA624" stroke-width="0.22848" stroke-miterlimit="10" stroke-linecap="round"/>
<path d="M5.375 68.9551L5.51887 69.6582" stroke="#FFA624" stroke-width="0.22848" stroke-miterlimit="10" stroke-linecap="round"/>
<path d="M6.05859 68.8164L6.20247 69.5196" stroke="#FFA624" stroke-width="0.22848" stroke-miterlimit="10" stroke-linecap="round"/>
<path d="M4.32422 70.8242L4.46801 71.527" stroke="#FFA624" stroke-width="0.22848" stroke-miterlimit="10" stroke-linecap="round"/>
<path d="M5.01172 70.6855L5.15551 71.3883" stroke="#FFA624" stroke-width="0.22848" stroke-miterlimit="10" stroke-linecap="round"/>
<path d="M5.69922 70.5449L5.84301 71.2477" stroke="#FFA624" stroke-width="0.22848" stroke-miterlimit="10" stroke-linecap="round"/>
<path d="M6.38281 70.4043L6.52661 71.1071" stroke="#FFA624" stroke-width="0.22848" stroke-miterlimit="10" stroke-linecap="round"/>
<path d="M3.19922 70.1953L3.34301 70.8981" stroke="#FFA624" stroke-width="0.22848" stroke-miterlimit="10" stroke-linecap="round"/>
<path d="M4.05078 70.0215L4.19457 70.7243" stroke="#FFA624" stroke-width="0.22848" stroke-miterlimit="10" stroke-linecap="round"/>
<path d="M4.90625 69.8477L5.05004 70.5504" stroke="#FFA624" stroke-width="0.22848" stroke-miterlimit="10" stroke-linecap="round"/>
<path d="M5.75781 69.6738L5.90161 70.3766" stroke="#FFA624" stroke-width="0.22848" stroke-miterlimit="10" stroke-linecap="round"/>
<path d="M3.52734 71.7969L3.67122 72.5" stroke="#FFA624" stroke-width="0.22848" stroke-miterlimit="10" stroke-linecap="round"/>
<path d="M4.37891 71.623L4.52278 72.3262" stroke="#FFA624" stroke-width="0.22848" stroke-miterlimit="10" stroke-linecap="round"/>
<path d="M5.23438 71.4492L5.37825 72.1524" stroke="#FFA624" stroke-width="0.22848" stroke-miterlimit="10" stroke-linecap="round"/>
<path d="M6.08594 71.2734L6.22981 71.9766" stroke="#FFA624" stroke-width="0.22848" stroke-miterlimit="10" stroke-linecap="round"/>
<path d="M-0.459972 63.7462C-0.371659 63.8487 -0.271326 63.9356 -0.162514 64.0071L0.265556 64.2894C0.852089 64.692 1.70646 64.631 2.32749 64.0956C3.05347 63.4697 3.18563 62.4332 2.6227 61.7797C2.53702 61.6802 2.44032 61.5954 2.33498 61.5252L2.32942 61.5215L1.89625 61.2358L1.89208 61.2331C1.30557 60.8345 0.454201 60.8965 -0.165146 61.4304C-0.891196 62.0558 -1.02328 63.0928 -0.459972 63.7462Z" fill="#32DBC6"/>
<path d="M-0.166936 61.4314C0.45249 60.8978 1.30377 60.8355 1.89029 61.2341L1.89446 61.2368C1.96204 61.2831 2.02611 61.3357 2.08581 61.3944C2.11389 61.422 2.14151 61.4512 2.16774 61.4815C2.73067 62.1349 2.59851 63.1715 1.87253 63.7974C1.33902 64.2572 0.633713 64.367 0.0733387 64.1334C-0.00943615 64.0991 -0.0889334 64.0572 -0.164304 64.0081C-0.273116 63.9366 -0.373449 63.8497 -0.461762 63.7472" stroke="#20BA90" stroke-width="0.22848" stroke-linecap="round" stroke-linejoin="round"/>
<path d="M2.08664 61.3939C2.02694 61.3352 1.96287 61.2826 1.89529 61.2363L2.32846 61.522L2.33402 61.5256C2.43936 61.5959 2.53606 61.6807 2.62174 61.7802C3.18467 62.4336 3.0525 63.4702 2.32653 64.0961C1.70542 64.6311 0.851127 64.6925 0.264595 64.2899L-0.163475 64.0076C-0.088104 64.0567 -0.00852867 64.0989 0.0741675 64.1329C0.634078 64.3662 1.33977 64.2563 1.87336 63.7968C2.59933 63.171 2.7315 62.1344 2.16857 61.4809C2.14234 61.4506 2.1151 61.4213 2.08664 61.3939Z" stroke="#20BA90" stroke-width="0.22848" stroke-linecap="round" stroke-linejoin="round"/>
<path d="M-0.40668 62.4477C-0.340614 62.1693 -0.18318 61.9006 0.0601426 61.6914C0.408709 61.3912 0.850908 61.2823 1.24227 61.3617" stroke="#20BA90" stroke-width="0.22848" stroke-linecap="round" stroke-linejoin="round"/>
<path d="M2.14029 62.3159C2.19792 62.7426 2.02666 63.21 1.64918 63.5353C1.40762 63.7435 1.12115 63.8594 0.837743 63.8845" stroke="#20BA90" stroke-width="0.22848" stroke-linecap="round" stroke-linejoin="round"/>
<path d="M6.46459 54.6765L-6.12108 57.2517C-6.3433 57.2971 -6.48658 57.5141 -6.44111 57.7363L-6.29645 58.4433C-6.25099 58.6656 -6.03399 58.8088 -5.81177 58.7634L6.7739 56.1882C6.99611 56.1428 7.1394 55.9258 7.09393 55.7035L6.94927 54.9965C6.9038 54.7743 6.6868 54.631 6.46459 54.6765Z" fill="#43B9FB"/>
<path d="M-2.56225 74.6399L10.0234 72.0647C10.2456 72.0193 10.3889 71.8023 10.3435 71.5801L10.1988 70.8731C10.1533 70.6509 9.93633 70.5076 9.71412 70.553L-2.87156 73.1282C-3.09377 73.1736 -3.23705 73.3906 -3.19159 73.6129L-3.04693 74.3199C-3.00146 74.5421 -2.78446 74.6854 -2.56225 74.6399Z" fill="#43B9FB"/>
<path d="M-0.238399 67.4882C-0.465091 67.8708 -0.727725 68.3794 -0.939621 68.9734" stroke="white" stroke-width="1.1687" stroke-miterlimit="10" stroke-linecap="round"/>
</svg>
