<svg width="239" height="202" viewBox="0 0 239 202" fill="none" xmlns="http://www.w3.org/2000/svg">
<path d="M79.5989 28.9784L79.5279 29.7436L79.0464 35.014C78.9501 36.0883 78.6764 37.1373 78.2355 38.1103C77.8655 38.9465 77.3738 39.7269 76.7707 40.4313L67.318 51.489L70.4199 44.9112C71.8594 41.8655 70.9724 38.2319 68.2912 36.1897L60.1614 29.997L58.2252 28.5223L39.1679 14.0034L35.2702 11.0337L33.917 10.005C31.4385 8.11978 28.5546 6.82752 25.4882 6.23967L20.0903 5.20587L16.0913 4.44065L6.26355 2.56054C8.81805 0.817255 11.9301 -0.0037119 15.0776 0.305417L32.3914 2.0183C33.6838 2.14499 34.9307 2.5656 36.0407 3.23961L50.7341 12.1942L77.3536 25.0256C78.8589 25.7452 79.7509 27.3263 79.6039 28.9834L79.5989 28.9784Z" fill="#7575E0"/>
<path d="M61.8535 57.8794L50.1352 71.5925C50.0592 71.6736 49.9832 71.7598 49.9072 71.8408C49.1418 72.677 48.2346 73.3713 47.2361 73.8933C46.5721 74.2379 45.8676 74.5064 45.1378 74.6889L40.0034 75.9811L39.2583 76.1737C37.6415 76.5791 35.9385 75.9406 34.9907 74.5673L18.1686 50.2728L7.03828 37.1627C6.20199 36.1694 5.59377 35.0039 5.26432 33.7471L0.880107 16.9173C0.332715 14.8041 0.317514 12.6351 0.788879 10.5675C0.920659 9.98977 1.09804 9.41712 1.31091 8.86475L10.1402 27.0527C11.0221 28.8568 12.2385 30.4734 13.7286 31.8163L46.045 60.8744C48.3461 62.942 51.7065 63.3423 54.4282 61.8727L61.8586 57.8794H61.8535Z" fill="#42429B"/>
<path d="M70.422 44.9161L67.3252 51.4888L61.8564 57.8842L54.426 61.8776C51.7043 63.3472 48.3489 62.9469 46.0428 60.8792L13.7264 31.8212C12.2363 30.4782 11.0199 28.8566 10.138 27.0575L1.30872 8.86963C1.8409 7.44054 2.62653 6.10774 3.64529 4.91177C4.4157 4.00972 5.30266 3.21916 6.2606 2.56543L16.0883 4.44554L20.0924 5.2057L25.4903 6.2395C28.5516 6.83242 31.4406 8.11961 33.914 10.0048L68.2933 36.1895C70.9796 38.2368 71.8615 41.8704 70.422 44.9211V44.9161Z" fill="#5D5DC9"/>
<path d="M48.4593 24.757L44.0396 29.9311C43.7507 30.2655 43.2591 30.3314 42.8941 30.0882L29.0877 20.7434C28.3731 20.2569 28.2362 19.2585 28.7988 18.5997L35.2661 11.0337L39.1637 14.0034C38.8495 14.13 38.5708 14.3125 38.3579 14.5659C37.6179 15.4375 37.9068 16.7196 39.0117 17.4342L48.2718 23.4698C48.7076 23.7536 48.7989 24.3617 48.4593 24.757Z" fill="#42429B"/>
<path d="M53.9847 18.3008L52.3628 20.2012C52.0841 20.5306 51.6026 20.6015 51.2376 20.3684L41.7191 14.2821C40.9284 13.7804 39.9451 13.6994 39.1747 14.0034L35.2771 11.0338L37.6035 8.31748C38.0698 7.77017 38.8656 7.64855 39.4789 8.02862L53.7972 17.0035C54.2483 17.2873 54.3395 17.9005 53.9949 18.3008H53.9847Z" fill="#5D5DC9"/>
<path d="M9.99008 11.5847L7.77717 14.1735C7.43526 14.5734 7.48238 15.1748 7.88243 15.5167L9.12692 16.5802C9.52697 16.9221 10.1284 16.8749 10.4704 16.475L12.6833 13.8862C13.0252 13.4862 12.9781 12.8848 12.578 12.5429L11.3335 11.4794C10.9335 11.1376 10.332 11.1847 9.99008 11.5847Z" fill="#42429B"/>
<path d="M76.1608 63.0029L238.969 202.126C238.969 202.126 226.689 186.573 220.064 174.375C213.44 162.177 200.632 141.912 192.836 135.253C180.464 124.682 157.499 127.656 138.249 111.207C123.242 98.3804 124.017 81.0033 111.757 70.5284C99.6125 60.1498 76.1558 63.0029 76.1558 63.0029H76.1608Z" fill="#FDCA5B"/>
<path d="M74.3227 71.2429C74.3227 71.2429 72.6754 81.581 82.1281 89.6589C94.1606 99.9412 101.707 97.0222 114.424 107.887C127.141 118.752 125.433 131.716 138.494 142.875C152.757 155.062 186.234 166.87 186.234 166.87L74.3227 71.2429Z" fill="#FDCA5B"/>
<path d="M23.5622 1.1415L20.0903 5.20579L16.0913 4.44057L19.2692 0.71582L23.5622 1.1415Z" fill="#5D5DC9"/>
<path d="M20.0913 5.20589L15.0888 11.0591C14.7492 11.4594 14.146 11.505 13.7456 11.1655L12.4988 10.1013C12.0984 9.76174 12.0528 9.15868 12.3924 8.75834L16.0822 4.44067L20.0812 5.20589H20.0913Z" fill="#42429B"/>
<path d="M62.1242 68.1008L63.7157 65.8001C64.1009 65.2426 64.8308 65.0501 65.444 65.3389L68.8196 66.9352C70.1729 67.5738 71.4349 65.9116 70.4517 64.7815L68.11 62.0855C67.6995 61.6142 67.6589 60.93 68.0036 60.4131L72.8085 53.217C73.4015 52.3302 74.7244 52.4163 75.1957 53.3741L83.1278 69.4488C84.547 72.3222 81.8962 75.5199 78.8095 74.6584L62.8946 70.2191C61.9823 69.9657 61.5869 68.8812 62.1293 68.1008H62.1242Z" fill="#FFA624"/>
<path d="M78.2419 38.1103C77.8719 38.9464 77.3752 39.7269 76.7771 40.4313L76.3818 40.8924L56.3563 23.7839L57.0913 22.9275L78.2419 38.1153V38.1103Z" fill="#5D5DC9"/>
<path d="M29.8892 54.7373L49.9096 71.8407C49.1442 72.682 48.2319 73.3762 47.2284 73.8881L29.1543 55.5937L29.8892 54.7373Z" fill="#2E2E6D"/>
<path d="M60.1586 29.9968L56.9604 33.7368C56.712 34.0257 56.2711 34.0662 55.9771 33.8128L55.1915 33.1388C54.9026 32.8905 54.8671 32.4496 55.1155 32.1557L58.2275 28.5171L60.1636 29.9918L60.1586 29.9968Z" fill="#42429B"/>
<path d="M62.9918 26.6776L60.1586 29.997L58.2224 28.5223L61.1469 25.1016C61.3952 24.8076 61.8362 24.7722 62.1302 25.0256L62.9158 25.6945C63.2098 25.9479 63.2452 26.3888 62.9969 26.6776H62.9918Z" fill="#5D5DC9"/>
</svg>
