<svg width="1076" height="340" viewBox="0 0 1076 340" fill="none" xmlns="http://www.w3.org/2000/svg">
<path d="M821 273H1076" stroke="#FFA623" stroke-width="5"/>
<path d="M846 234L941 232" stroke="#FFA623" stroke-width="6"/>
<path d="M874 321H972" stroke="#FFA623" stroke-width="5"/>
<path d="M696 337L763 336" stroke="#FFA623" stroke-width="6"/>
<path d="M321 179.5C385.333 179.833 530 169.9 594 127.5" stroke="#FDCA5B" stroke-width="5"/>
<path d="M71.0005 139.5C235.834 142.167 572.3 143.9 599.5 129.5" stroke="#FDCA5B" stroke-width="5"/>
<path d="M216.09 49.1874C214.73 32.486 208.549 26.6937 205.628 25.8852C199.943 24.3507 200.849 28.1603 202.012 30.257C211.719 43.985 209.253 55.9207 206.806 60.1724C206.217 62.0795 200.51 68.5244 182.402 79.0479C164.293 89.5713 145.299 85.7658 138.065 82.5477C131.595 82.9649 133.087 86.1973 134.642 87.7614C137.054 89.336 148.693 91.6346 154.211 92.5871C156.161 92.141 161.093 91.2782 165.223 91.3964C169.354 91.5145 169.6 94.0867 169.207 95.3581L167.15 99.8162L175.436 97.9202C175.372 92.2638 181.081 87.4724 183.943 85.7837C224.209 66.2913 230.181 37.5452 228.134 25.6088L224.666 10.4531C222.1 8.20485 220.022 10.3342 219.304 11.6799C224.694 37.0286 219.407 47.2468 216.09 49.1874Z" fill="#5E4D26"/>
<path d="M93.779 43.2669C96.179 24.0669 91.4456 15.9336 88.779 14.2669C83.5791 11.0669 83.6123 15.6002 84.2788 18.2669C90.6788 36.2669 85.6121 49.1002 82.2788 53.2669C81.2788 55.2669 74.2788 61.0669 54.279 68.2669C34.2791 75.4669 16.6124 66.2669 10.279 60.7669C3.87897 59.5669 4.61231 63.6002 5.77897 65.7669C7.77897 68.1669 18.6123 73.7669 23.779 76.2669C25.779 76.2669 30.779 76.5669 34.779 77.7669C38.779 78.9669 38.4456 81.9336 37.779 83.2669L34.779 87.7669L43.279 87.7669C44.479 81.3669 51.1123 77.4336 54.279 76.2669C97.879 64.6669 110.112 33.7669 110.779 19.7669L110.779 1.76689C108.779 -1.43311 106.279 0.433552 105.279 1.76689C104.879 31.7669 97.4456 41.9336 93.779 43.2669Z" fill="#5E4D26"/>
<path d="M160.112 240.762C143.144 230.609 135.961 215.092 134.49 208.603L152.066 199.965L179.673 231.879C173.724 239.478 162.434 253.895 164.871 250.77C167.307 247.645 162.713 242.796 160.112 240.762Z" fill="#9F9FFF"/>
<path d="M12.3107 209.5L41.3107 199L60.3105 217.5L28.8105 219V223L52.3105 249C54.7105 248.6 58.6439 250.167 60.3105 251C63.5105 249.8 65.3105 257.167 65.8105 261C65.1439 262.333 63.4105 264.6 61.8105 263C60.2105 261.4 54.8105 261 52.3105 261L46.8105 259.5L10.8107 220C8.8107 215.2 10.9774 211 12.3107 209.5Z" fill="#9F9FFF"/>
<path d="M86.5 218H62.5C52.9 228 27.5 273.167 16 294.5H28C55.2 249.7 78.3333 224.833 86.5 218Z" fill="#8B85F4"/>
<path d="M79.1043 82C79.1043 85.6666 77.004 93.7999 68.6043 97H61.1043C64.271 108.5 70.7043 132.6 71.1043 137C72.771 143.167 79.6044 156.3 93.6043 159.5H125.104C137.605 156.833 166.104 154.1 180.104 164.5L199.604 146.5C203.83 152.317 204.924 156.003 201.104 164.5C199.104 167.333 193.904 173 189.104 173C191.604 179.833 196.204 196.2 194.604 207C194.271 213 198.804 227 219.604 235L247.604 287C248.104 288.667 248.004 293.4 243.604 299L212.104 250.5C207.271 247.5 196.004 241.5 189.604 241.5C181.604 241.5 152.604 222.5 147.604 211L93.6043 222.5H66.1658C51.6039 218 48.766 210.325 41.994 201.531L42.1043 201.5L35.6043 187C33.9376 175 31.5043 148.4 35.1043 138L35.6043 119C28.4378 117.5 12.8047 114.6 7.6043 115C6.271 114.5 3.10431 112.8 1.1043 110C-0.895697 107.2 0.27097 103.833 1.1043 102.5L37.6043 86C40.6045 85.3334 47.6045 84.7001 51.6043 87.5H55.1043C56.4377 85.6666 59.9044 82 63.1043 82H79.1043Z" fill="#8B85F4"/>
<path d="M206.5 224H182.5C172.9 234 147.5 279.167 136 300.5H148C175.2 255.7 198.333 230.833 206.5 224Z" fill="#7777F4"/>
<path d="M285 249.523C273 239.923 268.667 226.856 268 221.523C271.6 217.523 281.5 216.856 286 217.023L306 237.523C305.6 242.723 310.833 251.023 313.5 254.523C316.7 256.523 314.167 261.023 312.5 263.023L280.5 305.023H269.5L294 268.023C297.6 262.023 295.5 258.523 294 257.523L285 249.523Z" fill="#7777F4"/>
<path d="M175.604 92L139.104 108.5C138.271 109.833 137.104 113.2 139.104 116C141.104 118.8 144.271 120.5 145.604 121C150.804 120.6 166.438 123.5 173.604 125L173.104 144C169.504 154.4 171.938 181 173.604 193L180.104 207.5C171.271 210 152.704 215.7 149.104 218.5C145.504 221.3 146.604 227.667 147.604 230.5L179.104 265C184.304 267.8 195.938 270.833 201.104 272L200.104 263C197.304 257.4 189.271 256 185.604 256L164.604 228.5H231.604L285.604 217C290.604 228.5 319.604 247.5 327.604 247.5C334.004 247.5 345.271 253.5 350.104 256.5L381.604 305C386.004 299.4 386.104 294.667 385.604 293L357.604 241C336.804 233 332.271 219 332.604 213C334.204 202.2 329.604 185.833 327.104 179C331.904 179 337.104 173.333 339.104 170.5C342.924 162.003 341.83 158.317 337.604 152.5L318.104 170.5C304.104 160.1 275.604 162.833 263.104 165.5H231.604C217.604 162.3 210.771 149.167 209.104 143C208.704 138.6 202.271 114.5 199.104 103H206.604C215.004 99.8 217.104 91.6667 217.104 88H201.104C197.904 88 194.438 91.6667 193.104 93.5H189.604C185.604 90.7 178.604 91.3333 175.604 92Z" fill="#5B5BD9"/>
<path d="M540 294.867L575.961 256.037" stroke="#5B5BD9" stroke-width="16" stroke-linecap="round"/>
<path d="M536.229 293.083L574 252.5" stroke="#8B85F4" stroke-width="8" stroke-linecap="round"/>
<path d="M780.961 294.756L745 255.925" stroke="#5B5BD9" stroke-width="16" stroke-linecap="round"/>
<path d="M784.732 292.972L746.961 252.389" stroke="#8B85F4" stroke-width="8" stroke-linecap="round"/>
<path d="M234.779 51.2669C237.179 32.0669 232.446 23.9336 229.779 22.2669C224.579 19.0669 224.612 23.6002 225.279 26.2669C231.679 44.2669 226.612 57.1002 223.279 61.2669C222.279 63.2669 215.279 69.0669 195.279 76.2669C175.279 83.4669 157.612 74.2669 151.279 68.7669C144.879 67.5669 145.612 71.6002 146.779 73.7669C148.779 76.1669 159.612 81.7669 164.779 84.2669C166.779 84.2669 171.779 84.5669 175.779 85.7669C179.779 86.9669 179.446 89.9336 178.779 91.2669L175.779 95.7669C179.837 97.7794 181.626 97.5987 184.279 95.7669C185.479 89.3669 192.112 85.4336 195.279 84.2669C238.879 72.6669 251.112 41.7669 251.779 27.7669L251.779 9.76689C249.779 6.56689 247.279 8.43355 246.279 9.76689C245.879 39.7669 238.446 49.9336 234.779 51.2669Z" fill="#5E4D26"/>
<path d="M229.5 165C226 164 224 163 220 160L216.5 228.5L227.5 228.5L229.5 165Z" fill="#FDCA5B"/>
<path d="M205 167C263.667 201.167 418.1 240.7 590.5 131.5" stroke="#5E4D26" stroke-width="5"/>
<path d="M508.764 235.892C497.564 200.692 523.097 178.892 537.264 172.392C540.864 170.487 543.097 171.598 543.764 172.392C560.564 221.592 611.764 201.892 635.264 185.892C636.264 186.392 645.064 179.092 672.264 145.892C699.464 112.692 730.93 96.7254 743.264 92.8921C759.764 78.3921 857.264 69.3921 864.264 74.3921C869.864 78.3921 866.597 83.7254 864.264 85.8921C831.464 99.8921 824.264 133.725 824.764 148.892C825.164 157.692 823.264 175.559 822.264 183.392C814.664 233.792 775.764 254.059 757.264 257.892H541.264C532.464 256.692 529.93 256.059 529.764 255.892C519.364 251.492 511.43 240.725 508.764 235.892Z" fill="#8B85F4"/>
<path d="M531.5 176.506C513.5 186.506 507.667 204.339 507 212.006C529 231.606 556.5 236.839 567.5 237.006C572.667 237.506 588.5 238.206 610.5 237.006C632.5 235.806 659 223.839 669.5 218.006C681.833 210.839 713.9 190.406 743.5 166.006C780.5 135.506 784 137.5 788.5 134.5C791.64 132.407 818.167 125.506 829.5 123.506C835.9 105.906 846.833 96 854.5 91C852 90.3333 844.4 85.3056 810 88.5056C775.6 91.7056 749.667 102.506 741 107.506C713.4 116.706 682.833 152.006 671 168.506C662.5 179.672 639.7 204.006 616.5 212.006C593.3 220.006 572.833 215.339 565.5 212.006C547.5 208.406 535.333 186.839 531.5 176.506Z" fill="#9F9FFF"/>
<path d="M477.327 268.5C480.494 256.667 479.527 232.8 450.327 232C436.16 232.333 410.927 243.1 423.327 283.5C427.327 290.5 438.327 303.8 450.327 301H846.327" stroke="#5B5BD9" stroke-width="19" stroke-linecap="round"/>
<path d="M471.5 270.5C474.667 258 474 236.1 452 238.5C440 237.667 418.9 244.9 428.5 278.5C430.334 283.834 437.1 294.5 449.5 294.5C461.9 294.5 718.833 295 848 295" stroke="#8B85F4" stroke-width="7" stroke-linecap="round"/>
<path d="M823.421 165.699C768.102 210.066 689.467 231.587 657.064 236.802C703.535 234.875 799.337 227.135 810.782 211.584C822.227 196.034 823.977 174.514 823.421 165.699Z" fill="#9F9FFF"/>
<path d="M716.5 98.1423C714.1 90.5423 707.167 77.9757 704 72.6423C696.4 75.4423 669.167 73.809 656.5 72.6423L635.5 139.642V155.142H618.5C606.9 155.942 600.333 164.476 598.5 168.642L583 203.642C626.6 210.442 666.5 163.809 681 139.642C730.6 86.4423 801 74.809 830 75.6423C773.2 33.2423 730.667 72.9757 716.5 98.1423Z" fill="#F41919"/>
<path d="M670.04 9.31379L659.602 27.0974L704.604 33.6166L705.732 28.2641L719.747 31.999L724.897 26.1273L709.676 9.29117C708.757 8.27527 707.462 7.68058 706.093 7.64595L674.478 6.84634C672.66 6.80036 670.96 7.74527 670.04 9.31379Z" fill="#F41919"/>
<rect x="654.742" y="23.3527" width="55.3588" height="18.1198" rx="7" transform="rotate(10.3315 654.742 23.3527)" fill="#D9D9D9"/>
<path d="M700.604 50.4789L704.44 61.018C704.641 61.5711 704.994 62.0765 705.098 62.6583C705.541 65.1472 702.575 70.5996 700.457 72.4337C698.879 73.7995 697.502 77.1971 696.723 78.4801L697.627 115.597L646.469 121.175L640.769 98.3772C640.451 96.8674 640.373 92.969 642.605 89.4535L653.794 65.1333L657.246 42.1731L700.604 50.4789Z" fill="#D9D9D9"/>
<path d="M680.367 46.508C671.99 45.4958 660.291 42.6658 655.489 41.3773L653.236 51.3236L646.998 60.6688C659.384 61.3822 670.301 68.7606 674.211 72.3606C677.931 67.6532 679.865 53.1641 680.367 46.508Z" fill="#82B5FF"/>
<path d="M706.059 108.389C711.259 86.389 693.559 85.5557 684.059 87.889L655.059 114.889L625.059 114.889C619.226 115.722 607.259 117.289 606.059 116.889C604.859 116.489 603.226 115.389 602.559 114.889L596.059 114.889L596.059 120.889L588.559 121.889C580.559 135.089 587.892 140.056 592.559 140.889L607.559 140.889L625.059 144.889C636.726 144.389 660.959 143.689 664.559 144.889C668.159 146.089 672.726 142.722 674.559 140.889L706.059 108.389Z" fill="#F41919"/>
<circle cx="660.772" cy="50.0136" r="2.5" transform="rotate(1.44881 660.772 50.0136)" fill="#0065F5"/>
<path d="M105.779 48.2669C108.179 29.0669 103.446 20.9336 100.779 19.2669C95.5791 16.0669 95.6123 20.6002 96.2788 23.2669C102.679 41.2669 97.6121 54.1002 94.2788 58.2669C93.2788 60.2669 86.2788 66.0669 66.279 73.2669C46.2791 80.4669 28.6124 71.2669 22.279 65.7669C15.879 64.5669 16.6123 68.6002 17.779 70.7669C19.779 73.1669 30.6123 78.7669 35.779 81.2669C37.779 81.2669 42.779 81.5669 46.779 82.7669C50.779 83.9669 50.4456 86.9336 49.779 88.2669L46.779 92.7669L55.279 92.7669C56.479 86.3669 63.1123 82.4336 66.279 81.2669C109.879 69.6669 122.112 38.7669 122.779 24.7669L122.779 6.76689C120.779 3.56689 118.279 5.43355 117.279 6.76689C116.879 36.7669 109.446 46.9336 105.779 48.2669Z" fill="#5E4D26"/>
<path d="M636 149.5C636 150.881 637.881 152 636.5 152C635.119 152 634 150.881 634 149.5C634 148.119 635.119 147 636.5 147C637.881 147 636 148.119 636 149.5Z" fill="#D9D9D9"/>
<rect x="605" y="113" width="15" height="32" rx="5" fill="#D9D9D9"/>
<path d="M667 156H636.5L644 182.5C660 169.3 666 159.333 667 156Z" fill="#D9D9D9"/>
<path d="M99 159.5C95 159.5 93.5 160.5 87.5 157.5L90 223L101.5 221L99 159.5Z" fill="#FDCA5B"/>
<path d="M83.5 155C80.1798 152.585 78.4757 150.669 75.5 147L39.5 196L39.6043 196.253C41.689 201.313 42.7059 203.782 46 207L83.5 155Z" fill="#FDCA5B"/>
<path d="M216 155.5C212.68 153.085 212 150.5 209.385 145L173.5 193.5C176 198 176.5 200 179 204.5L216 155.5Z" fill="#FDCA5B"/>
</svg>
