<svg width="634" height="419" viewBox="0 0 634 419" fill="none" xmlns="http://www.w3.org/2000/svg">
<path d="M526.979 200.256C502.289 206.882 477.333 214.854 452.319 224.202C436.879 229.972 421.805 236.123 407.121 242.619C404.981 243.566 402.848 244.52 400.726 245.478C398.198 239.669 396.457 233.405 395.647 226.798C392.252 199.044 406.292 173.179 429.18 160.186C436.67 155.936 445.103 153.062 454.182 151.952C487.507 147.873 518.116 168.933 526.983 200.256H526.979Z" fill="#2E2E6D"/>
<path d="M526.978 200.256C502.288 206.882 477.332 214.854 452.319 224.202C436.879 229.972 421.804 236.123 407.121 242.619C404.36 236.545 402.467 229.953 401.615 222.981C398.524 197.732 409.87 174.042 429.176 160.189C436.666 155.94 445.099 153.066 454.178 151.956C487.502 147.877 518.112 168.937 526.978 200.26V200.256Z" fill="#4F4FAA"/>
<mask id="mask0_1_329" style="mask-type:luminance" maskUnits="userSpaceOnUse" x="0" y="0" width="626" height="419">
<path d="M625.501 1.44199L0.947711 0L1.29547e-08 417.019L624.553 418.461L625.501 1.44199Z" fill="white"/>
</mask>
<g mask="url(#mask0_1_329)">
<path d="M703.636 926.745C1051.89 796.556 1275.71 534.577 1203.55 341.597C1131.39 148.618 790.569 97.7161 442.311 227.905C94.053 358.094 -129.766 620.073 -57.6035 813.053C14.5594 1006.03 355.378 1056.93 703.636 926.745Z" fill="#5D5DC9"/>
<path d="M496.124 217.785C456.294 232.629 254.504 312.584 141.596 447.839L84.6959 454.803C176.921 367.735 305.074 288.434 455.629 232.165C469.145 227.113 482.65 222.32 496.12 217.785H496.124Z" fill="#5D5DC9"/>
<path d="M710.867 914.896C356.309 1047.41 11.7499 1001.99 -58.7351 813.462C-99.2871 704.989 -40.2689 572.768 84.6948 454.799L141.595 447.835C254.507 312.584 456.293 232.629 496.123 217.785C836.062 103.324 1157.44 152.26 1225.23 333.599C1295.72 522.13 1065.42 782.386 710.87 914.896H710.867Z" fill="#8B85F4"/>
<path d="M503.06 215.257C503.06 215.257 500.627 216.101 496.122 217.781Z" fill="#5ACDFF"/>
</g>
<path d="M421.359 228.968C423.324 228.968 424.918 227.375 424.918 225.41C424.918 223.445 423.324 221.852 421.359 221.852C419.394 221.852 417.8 223.445 417.8 225.41C417.8 227.375 419.394 228.968 421.359 228.968Z" fill="#2E2E6D"/>
<path d="M412.039 230.485C412.956 230.485 413.7 229.741 413.7 228.824C413.7 227.907 412.956 227.163 412.039 227.163C411.121 227.163 410.377 227.907 410.377 228.824C410.377 229.741 411.121 230.485 412.039 230.485Z" fill="#2E2E6D"/>
<path d="M563.888 189.51C570.522 187.799 577.138 186.157 583.742 184.579" stroke="#4F4FAA" stroke-width="2.05667" stroke-miterlimit="10"/>
<path d="M347.179 268.108C353.597 265.063 360.068 262.064 366.592 259.11C369.721 257.696 372.861 256.289 376.017 254.894C397.662 245.322 419.877 236.256 442.632 227.752C461.828 220.579 480.997 213.953 500.106 207.875" stroke="#4F4FAA" stroke-width="2.05667" stroke-miterlimit="10"/>
<path d="M238.305 386.031C272.405 360.205 351.448 302.214 424.811 282.755C431.636 281.181 441.931 278.748 446.669 282.926C450.798 287.48 447.049 294.919 443.338 300.709C437.776 308.912 430.792 314.622 423.02 321.461C408.968 333.701 391.125 349.363 378.203 363.717C371.929 370.689 367.04 377.204 364.74 382.439C340.878 442.547 631.628 286.871 630.187 287.757" stroke="#9F9FFF" stroke-width="3.59917" stroke-miterlimit="10"/>
<path d="M620.461 208.319C602.801 218.552 584.97 229.265 567.914 240.722C559.804 246.128 506.246 282.154 522.408 287.195C524.199 287.673 526.765 287.715 529.993 287.347C541.65 285.83 554.349 281.477 566.697 277.075C589.084 268.936 611.447 258.939 632.263 249.321" stroke="#9F9FFF" stroke-width="3.59917" stroke-miterlimit="10"/>
<path d="M252.095 233.369C252.624 233.369 253.054 232.852 253.054 232.215C253.054 231.577 252.624 231.06 252.095 231.06C251.566 231.06 251.137 231.577 251.137 232.215C251.137 232.852 251.566 233.369 252.095 233.369Z" fill="#2E2E6D"/>
<path d="M169.041 183.334C169.805 183.334 170.424 182.588 170.424 181.667C170.424 180.746 169.805 180 169.041 180C168.277 180 167.658 180.746 167.658 181.667C167.658 182.588 168.277 183.334 169.041 183.334Z" fill="#2E2E6D"/>
<path d="M153.316 321.579C153.916 321.579 154.402 320.992 154.402 320.268C154.402 319.544 153.916 318.957 153.316 318.957C152.717 318.957 152.23 319.544 152.23 320.268C152.23 320.992 152.717 321.579 153.316 321.579Z" fill="#2E2E6D"/>
<path d="M420.266 242.331C421.592 242.331 422.667 241.035 422.667 239.436C422.667 237.837 421.592 236.541 420.266 236.541C418.94 236.541 417.865 237.837 417.865 239.436C417.865 241.035 418.94 242.331 420.266 242.331Z" fill="#2E2E6D"/>
<path d="M355.835 267.641C356.577 267.641 357.178 266.917 357.178 266.024C357.178 265.131 356.577 264.406 355.835 264.406C355.092 264.406 354.491 265.131 354.491 266.024C354.491 266.917 355.092 267.641 355.835 267.641Z" fill="#2E2E6D"/>
<path d="M441.963 217.26C442.706 217.26 443.307 216.536 443.307 215.643C443.307 214.75 442.706 214.026 441.963 214.026C441.221 214.026 440.62 214.75 440.62 215.643C440.62 216.536 441.221 217.26 441.963 217.26Z" fill="#2E2E6D"/>
<path d="M245.033 291.733C245.525 291.733 245.924 291.252 245.924 290.659C245.924 290.065 245.525 289.584 245.033 289.584C244.541 289.584 244.143 290.065 244.143 290.659C244.143 291.252 244.541 291.733 245.033 291.733Z" fill="#2E2E6D"/>
<path d="M302.292 296.156C302.905 296.156 303.402 295.557 303.402 294.818C303.402 294.079 302.905 293.48 302.292 293.48C301.68 293.48 301.183 294.079 301.183 294.818C301.183 295.557 301.68 296.156 302.292 296.156Z" fill="#2E2E6D"/>
<path d="M316.714 307.789C317.327 307.789 317.824 307.19 317.824 306.452C317.824 305.713 317.327 305.114 316.714 305.114C316.102 305.114 315.605 305.713 315.605 306.452C315.605 307.19 316.102 307.789 316.714 307.789Z" fill="#2E2E6D"/>
<path d="M145.671 277.075C146.427 277.075 147.041 276.336 147.041 275.424C147.041 274.513 146.427 273.774 145.671 273.774C144.914 273.774 144.301 274.513 144.301 275.424C144.301 276.336 144.914 277.075 145.671 277.075Z" fill="#2E2E6D"/>
<path d="M120.86 293.643C121.738 293.643 122.449 292.787 122.449 291.73C122.449 290.673 121.738 289.817 120.86 289.817C119.983 289.817 119.272 290.673 119.272 291.73C119.272 292.787 119.983 293.643 120.86 293.643Z" fill="#2E2E6D"/>
<path d="M355.125 329C358.23 329 360.748 325.967 360.748 322.225C360.748 318.483 358.23 315.45 355.125 315.45C352.019 315.45 349.502 318.483 349.502 322.225C349.502 325.967 352.019 329 355.125 329Z" fill="#2E2E6D"/>
<path d="M150.632 318.96C151.127 318.96 151.528 318.478 151.528 317.882C151.528 317.287 151.127 316.804 150.632 316.804C150.137 316.804 149.736 317.287 149.736 317.882C149.736 318.478 150.137 318.96 150.632 318.96Z" fill="#2E2E6D"/>
<path d="M203.085 294.192C203.964 294.192 204.677 293.334 204.677 292.276C204.677 291.217 203.964 290.359 203.085 290.359C202.206 290.359 201.494 291.217 201.494 292.276C201.494 293.334 202.206 294.192 203.085 294.192Z" fill="#2E2E6D"/>
<path d="M321.533 259.002C322.239 259.002 322.812 258.313 322.812 257.462C322.812 256.611 322.239 255.921 321.533 255.921C320.827 255.921 320.254 256.611 320.254 257.462C320.254 258.313 320.827 259.002 321.533 259.002Z" fill="#2E2E6D"/>
<path d="M276.826 260.889C277.691 260.889 278.392 260.044 278.392 259.002C278.392 257.96 277.691 257.116 276.826 257.116C275.962 257.116 275.261 257.96 275.261 259.002C275.261 260.044 275.962 260.889 276.826 260.889Z" fill="#2E2E6D"/>
<path d="M341.617 214.305C342.332 214.305 342.911 213.606 342.911 212.744C342.911 211.882 342.332 211.184 341.617 211.184C340.902 211.184 340.322 211.882 340.322 212.744C340.322 213.606 340.902 214.305 341.617 214.305Z" fill="#2E2E6D"/>
<path d="M269.606 210.844C270.131 210.844 270.557 210.332 270.557 209.699C270.557 209.067 270.131 208.555 269.606 208.555C269.081 208.555 268.655 209.067 268.655 209.699C268.655 210.332 269.081 210.844 269.606 210.844Z" fill="#2E2E6D"/>
<path d="M244.079 194.985C245.099 194.985 245.925 193.989 245.925 192.762C245.925 191.534 245.099 190.539 244.079 190.539C243.059 190.539 242.232 191.534 242.232 192.762C242.232 193.989 243.059 194.985 244.079 194.985Z" fill="#2E2E6D"/>
<path d="M436.494 186.216C437.063 186.216 437.523 185.66 437.523 184.975C437.523 184.289 437.063 183.734 436.494 183.734C435.926 183.734 435.466 184.289 435.466 184.975C435.466 185.66 435.926 186.216 436.494 186.216Z" fill="#2E2E6D"/>
<path d="M332.288 187.454C332.856 187.454 333.316 186.898 333.316 186.213C333.316 185.527 332.856 184.971 332.288 184.971C331.719 184.971 331.259 185.527 331.259 186.213C331.259 186.898 331.719 187.454 332.288 187.454Z" fill="#2E2E6D"/>
<path d="M242.142 327.782C242.778 327.782 243.293 327.161 243.293 326.394C243.293 325.628 242.778 325.007 242.142 325.007C241.507 325.007 240.991 325.628 240.991 326.394C240.991 327.161 241.507 327.782 242.142 327.782Z" fill="#2E2E6D"/>
<path d="M271.537 314.431C271.987 314.431 272.352 313.992 272.352 313.45C272.352 312.908 271.987 312.468 271.537 312.468C271.087 312.468 270.722 312.908 270.722 313.45C270.722 313.992 271.087 314.431 271.537 314.431Z" fill="#2E2E6D"/>
<path d="M386.237 198.622C386.806 198.622 387.266 198.066 387.266 197.38C387.266 196.695 386.806 196.139 386.237 196.139C385.669 196.139 385.209 196.695 385.209 197.38C385.209 198.066 385.669 198.622 386.237 198.622Z" fill="#2E2E6D"/>
<path d="M484.673 207.377C485.407 207.377 486.001 206.66 486.001 205.776C486.001 204.892 485.407 204.176 484.673 204.176C483.939 204.176 483.345 204.892 483.345 205.776C483.345 206.66 483.939 207.377 484.673 207.377Z" fill="#2E2E6D"/>
<path d="M298.227 205.597C298.615 205.597 298.93 205.217 298.93 204.748C298.93 204.279 298.615 203.899 298.227 203.899C297.839 203.899 297.524 204.279 297.524 204.748C297.524 205.217 297.839 205.597 298.227 205.597Z" fill="#2E2E6D"/>
<path d="M204.427 194.845C204.762 194.845 205.034 194.517 205.034 194.113C205.034 193.708 204.762 193.38 204.427 193.38C204.092 193.38 203.82 193.708 203.82 194.113C203.82 194.517 204.092 194.845 204.427 194.845Z" fill="#2E2E6D"/>
<path d="M111.607 190.509C111.942 190.509 112.214 190.181 112.214 189.777C112.214 189.372 111.942 189.045 111.607 189.045C111.272 189.045 111 189.372 111 189.777C111 190.181 111.272 190.509 111.607 190.509Z" fill="#2E2E6D"/>
<path d="M286.599 182.978L286.528 183.744L286.046 189.014C285.95 190.088 285.676 191.137 285.235 192.11C284.865 192.947 284.374 193.727 283.771 194.431L274.318 205.489L277.42 198.911C278.859 195.866 277.972 192.232 275.291 190.19L267.161 183.997L265.225 182.522L246.168 168.003L242.27 165.034L240.917 164.005C238.439 162.12 235.555 160.828 232.488 160.24L227.09 159.206L223.091 158.441L213.264 156.561C215.818 154.817 218.93 153.996 222.078 154.305L239.391 156.018C240.684 156.145 241.931 156.566 243.041 157.24L257.734 166.194L284.354 179.026C285.859 179.745 286.751 181.326 286.604 182.984L286.599 182.978Z" fill="#7575E0"/>
<path d="M268.853 211.879L257.135 225.592C257.059 225.674 256.983 225.76 256.907 225.841C256.142 226.677 255.235 227.371 254.236 227.893C253.572 228.238 252.868 228.506 252.138 228.689L247.003 229.981L246.258 230.174C244.642 230.579 242.939 229.941 241.991 228.567L225.169 204.273L214.038 191.163C213.202 190.169 212.594 189.004 212.264 187.747L207.88 170.917C207.333 168.804 207.318 166.635 207.789 164.567C207.921 163.99 208.098 163.417 208.311 162.865L217.14 181.053C218.022 182.857 219.238 184.473 220.729 185.816L253.045 214.874C255.346 216.942 258.706 217.342 261.428 215.873L268.859 211.879H268.853Z" fill="#42429B"/>
<path d="M277.422 198.916L274.325 205.489L268.856 211.884L261.426 215.878C258.704 217.347 255.349 216.947 253.043 214.879L220.726 185.821C219.236 184.478 218.02 182.857 217.138 181.058L208.309 162.87C208.841 161.441 209.627 160.108 210.645 158.912C211.416 158.01 212.303 157.219 213.261 156.566L223.088 158.446L227.092 159.206L232.49 160.24C235.552 160.832 238.441 162.12 240.914 164.005L275.293 190.19C277.98 192.237 278.861 195.87 277.422 198.921V198.916Z" fill="#5D5DC9"/>
<path d="M255.459 178.757L251.04 183.931C250.751 184.265 250.259 184.331 249.894 184.088L236.088 174.743C235.373 174.257 235.236 173.258 235.799 172.6L242.266 165.034L246.164 168.003C245.85 168.13 245.571 168.312 245.358 168.566C244.618 169.437 244.907 170.72 246.012 171.434L255.272 177.47C255.708 177.753 255.799 178.362 255.459 178.757Z" fill="#42429B"/>
<path d="M260.985 172.301L259.363 174.201C259.084 174.53 258.602 174.601 258.238 174.368L248.719 168.282C247.928 167.78 246.945 167.699 246.175 168.003L242.277 165.034L244.603 162.317C245.07 161.77 245.865 161.648 246.479 162.029L260.797 171.003C261.248 171.287 261.339 171.9 260.995 172.301H260.985Z" fill="#5D5DC9"/>
<path d="M216.99 165.585L214.777 168.174C214.435 168.574 214.482 169.175 214.882 169.517L216.127 170.58C216.527 170.922 217.128 170.875 217.47 170.475L219.683 167.886C220.025 167.486 219.978 166.885 219.578 166.543L218.334 165.48C217.934 165.138 217.332 165.185 216.99 165.585Z" fill="#42429B"/>
<path d="M283.161 217.003L445.969 356.126C445.969 356.126 433.689 340.573 427.064 328.375C420.44 316.177 407.632 295.912 399.836 289.253C387.464 278.682 364.499 281.656 345.249 265.207C330.242 252.38 331.017 235.003 318.757 224.528C306.613 214.15 283.156 217.003 283.156 217.003H283.161Z" fill="#FDCA5B"/>
<path d="M281.323 225.243C281.323 225.243 279.675 235.581 289.128 243.659C301.161 253.941 308.707 251.022 321.424 261.887C334.141 272.752 332.433 285.715 345.494 296.875C359.757 309.062 393.234 320.87 393.234 320.87L281.323 225.243Z" fill="#FDCA5B"/>
<path d="M230.562 155.142L227.09 159.206L223.091 158.441L226.269 154.716L230.562 155.142Z" fill="#5D5DC9"/>
<path d="M227.091 159.206L222.089 165.059C221.749 165.459 221.146 165.505 220.746 165.165L219.499 164.101C219.098 163.762 219.053 163.159 219.392 162.758L223.082 158.441L227.081 159.206H227.091Z" fill="#42429B"/>
<path d="M269.124 222.101L270.716 219.8C271.101 219.243 271.831 219.05 272.444 219.339L275.82 220.935C277.173 221.574 278.435 219.912 277.452 218.781L275.11 216.085C274.699 215.614 274.659 214.93 275.004 214.413L279.808 207.217C280.401 206.33 281.724 206.416 282.196 207.374L290.128 223.449C291.547 226.322 288.896 229.52 285.809 228.658L269.895 224.219C268.982 223.966 268.587 222.881 269.129 222.101H269.124Z" fill="#FFA624"/>
<path d="M285.242 192.11C284.872 192.947 284.375 193.727 283.777 194.431L283.382 194.892L263.356 177.784L264.091 176.928L285.242 192.115V192.11Z" fill="#5D5DC9"/>
<path d="M236.889 208.737L256.91 225.841C256.144 226.682 255.232 227.376 254.228 227.888L236.154 209.594L236.889 208.737Z" fill="#2E2E6D"/>
<path d="M267.159 183.997L263.96 187.737C263.712 188.026 263.271 188.066 262.977 187.813L262.191 187.139C261.903 186.891 261.867 186.45 262.115 186.156L265.227 182.517L267.164 183.992L267.159 183.997Z" fill="#42429B"/>
<path d="M269.992 180.678L267.159 183.997L265.222 182.522L268.147 179.102C268.395 178.808 268.836 178.772 269.13 179.025L269.916 179.694C270.21 179.948 270.245 180.389 269.997 180.678H269.992Z" fill="#5D5DC9"/>
</svg>
