<svg width="375" height="418" viewBox="0 0 375 418" fill="none" xmlns="http://www.w3.org/2000/svg">
<path d="M415.979 200.256C391.289 206.882 366.333 214.854 341.319 224.202C325.879 229.972 310.805 236.123 296.121 242.619C293.981 243.566 291.848 244.52 289.726 245.478C287.198 239.669 285.457 233.405 284.647 226.798C281.252 199.044 295.292 173.179 318.18 160.186C325.67 155.936 334.103 153.062 343.182 151.952C376.507 147.873 407.116 168.933 415.983 200.256H415.979Z" fill="#2E2E6D"/>
<path d="M415.978 200.256C391.288 206.882 366.332 214.854 341.319 224.201C325.879 229.972 310.804 236.123 296.121 242.619C293.36 236.545 291.467 229.953 290.615 222.981C287.524 197.732 298.87 174.042 318.176 160.189C325.666 155.939 334.099 153.066 343.178 151.956C376.502 147.877 407.112 168.936 415.978 200.26V200.256Z" fill="#4F4FAA"/>
<mask id="mask0_516_9368" style="mask-type:luminance" maskUnits="userSpaceOnUse" x="-111" y="0" width="626" height="419">
<path d="M514.501 1.44199L-110.052 0L-111 417.019L513.553 418.461L514.501 1.44199Z" fill="white"/>
</mask>
<g mask="url(#mask0_516_9368)">
<path d="M592.636 926.745C940.894 796.556 1164.71 534.577 1092.55 341.597C1020.39 148.618 679.569 97.7161 331.311 227.905C-16.947 358.094 -240.766 620.073 -168.603 813.053C-96.4405 1006.03 244.378 1056.93 592.636 926.745Z" fill="#5D5DC9"/>
<path d="M385.124 217.785C345.294 232.629 143.504 312.584 30.5964 447.839L-26.3041 454.803C65.9207 367.735 194.074 288.434 344.629 232.165C358.145 227.113 371.65 222.32 385.12 217.785H385.124Z" fill="#5D5DC9"/>
<path d="M599.867 914.895C245.309 1047.41 -99.25 1001.99 -169.735 813.462C-210.287 704.989 -151.269 572.768 -26.3051 454.799L30.5954 447.835C143.507 312.584 345.293 232.629 385.123 217.785C725.062 103.324 1046.44 152.26 1114.23 333.598C1184.72 522.13 954.425 782.386 599.87 914.895H599.867Z" fill="#8B85F4"/>
</g>
<path d="M310.359 228.968C312.324 228.968 313.918 227.375 313.918 225.41C313.918 223.445 312.324 221.852 310.359 221.852C308.394 221.852 306.8 223.445 306.8 225.41C306.8 227.375 308.394 228.968 310.359 228.968Z" fill="#2E2E6D"/>
<path d="M301.039 230.485C301.956 230.485 302.7 229.742 302.7 228.824C302.7 227.907 301.956 227.163 301.039 227.163C300.121 227.163 299.377 227.907 299.377 228.824C299.377 229.742 300.121 230.485 301.039 230.485Z" fill="#2E2E6D"/>
<path d="M236.179 268.108C242.597 265.063 249.068 262.064 255.592 259.11C258.721 257.696 261.861 256.289 265.017 254.894C286.662 245.322 308.877 236.256 331.632 227.752C350.828 220.579 369.998 213.953 389.106 207.875" stroke="#4F4FAA" stroke-width="2.05667" stroke-miterlimit="10"/>
<path d="M127.305 386.031C161.405 360.205 240.448 302.214 313.811 282.755C320.636 281.181 330.931 278.748 335.669 282.926C339.798 287.48 336.049 294.919 332.338 300.709C326.776 308.912 319.792 314.622 312.02 321.461C297.968 333.701 280.125 349.363 267.203 363.717C260.929 370.689 256.04 377.205 253.74 382.439C229.878 442.547 520.628 286.872 519.187 287.757" stroke="#9F9FFF" stroke-width="3.59917" stroke-miterlimit="10"/>
</svg>
