<svg width="412" height="104" viewBox="0 0 412 104" fill="none" xmlns="http://www.w3.org/2000/svg">
<g clip-path="url(#clip0_15757_180425)">
<rect width="412" height="104" fill="#4888FB"/>
<path d="M5.5651 6.76364L28.5582 -53.425L57.683 -40.1058L75.6369 -12.4111L26.9091 24.1745L5.5651 6.76364Z" fill="#61C7FF"/>
<path d="M12.8331 10.0853L44.5828 -46.7905L82.8824 -15.5485L28.5608 31.8472L12.8331 10.0853Z" fill="#C8EBFF"/>
<path d="M29.9917 44.0823C23.2594 52.3355 8.42098 51.3752 -3.15024 41.9363C-14.7215 32.4973 -18.6438 18.155 -11.9109 9.90118L-3.94153 0.131524L37.9611 34.3127L29.9917 44.0823Z" fill="#E8A103"/>
<path d="M9.03133 30.7133L-1.28777 43.3634C-1.59934 43.1533 -1.90559 42.9178 -2.20312 42.6904L8.15156 29.9966C8.35255 29.7502 8.70348 29.7152 8.94926 29.9157C9.19677 30.1165 9.23232 30.4669 9.03133 30.7133Z" fill="#FFA624"/>
<path d="M2.69953 20.0775L-9.61292 35.1713C-9.84688 34.8485 -10.0722 34.5327 -10.2987 34.2169L1.81976 19.3609C2.02074 19.1145 2.37168 19.0795 2.61745 19.2799C2.86435 19.4803 2.90052 19.8311 2.69953 20.0775Z" fill="#FFA624"/>
<path d="M3.65007 23.5485L-7.73011 37.4995C-7.98562 37.203 -8.23315 36.9131 -8.47305 36.6151L2.7708 22.8313C2.96427 22.5941 3.33133 22.5568 3.5685 22.7503C3.8149 22.9513 3.84354 23.3113 3.65007 23.5485Z" fill="#FFA624"/>
<path d="M27.8976 37.0515L17.6 49.6752C17.1106 49.7006 16.6271 49.7012 16.1328 49.6787L27.0183 36.3342C27.2118 36.097 27.5702 36.0528 27.816 36.2533C28.0538 36.4472 28.091 36.8143 27.8976 37.0515Z" fill="#FFA624"/>
<path d="M22.1369 35.2884L10.9431 49.0108C10.5313 48.9235 10.1265 48.8276 9.72656 48.707L21.2571 34.5717C21.4581 34.3254 21.809 34.2903 22.0548 34.4908C22.3028 34.691 22.3379 35.042 22.1369 35.2884Z" fill="#FFA624"/>
<path d="M12.735 30.9733L1.26156 45.0385C0.935456 44.8462 0.616866 44.6446 0.289062 44.4355L11.8557 30.256C12.0492 30.0188 12.4162 29.9816 12.6534 30.1751C12.9004 30.3765 12.9284 30.7361 12.735 30.9733Z" fill="#FFA624"/>
<path d="M27.7363 32.4574L13.8249 49.5113C13.3932 49.4661 12.9507 49.3989 12.5156 49.3213L26.8575 31.7396C27.051 31.5024 27.4094 31.4581 27.6552 31.6586C27.9022 31.8601 27.9303 32.2196 27.7363 32.4574Z" fill="#FFA624"/>
<path d="M37.9605 34.3167C44.6932 26.0631 40.7709 11.7205 29.1998 2.28162C17.6287 -7.15724 2.79054 -8.11806 -3.94217 0.135569C-10.6749 8.3892 -6.75259 22.7318 4.81851 32.1706C16.3896 41.6095 31.2278 42.5703 37.9605 34.3167Z" fill="#FFECC2"/>
<path d="M36.2042 32.8772C42.1447 25.5948 38.3675 12.6817 27.7676 4.03511C17.1677 -4.61151 3.75912 -5.71741 -2.18134 1.56501C-8.12181 8.84742 -4.3446 21.7604 6.25528 30.4071C16.8552 39.0537 30.2638 40.1596 36.2042 32.8772Z" fill="#E8A103"/>
<path d="M10.114 15.548C10.8821 16.1745 11.6889 16.4336 12.5335 16.3254C13.378 16.2171 14.4608 15.7465 15.7806 14.9126C17.1004 14.0787 18.2884 13.4013 19.3463 12.8797C20.4042 12.3582 21.4206 12.0003 22.398 11.807C23.3747 11.6132 24.3309 11.6226 25.2664 11.8331C26.2014 12.0443 27.1287 12.5245 28.0467 13.2733C29.6295 14.5644 30.4636 16.1914 30.5482 18.1525C30.6323 20.1142 29.9913 22.1056 28.6234 24.1262L31.6305 26.5791L29.5705 29.1045L26.5217 26.6174C24.7684 28.2889 22.8882 29.1825 20.883 29.2986C18.8766 29.4149 16.9606 28.7279 15.1345 27.2383L18.8555 22.6766C19.9793 23.5933 21.033 24.019 22.0149 23.9532C22.9972 23.8867 23.8445 23.4175 24.5573 22.5438C25.261 21.6811 25.5888 20.8351 25.5391 20.0066C25.4894 19.1782 25.0813 18.4503 24.3133 17.8238C23.6011 17.2428 22.8407 17.0084 22.0326 17.1197C21.2239 17.2316 20.0817 17.7325 18.6064 18.6227C17.1311 19.513 15.8636 20.2013 14.8043 20.6869C13.7451 21.1726 12.7375 21.4896 11.7816 21.639C10.8251 21.7879 9.9063 21.7476 9.02423 21.5193C8.14217 21.2909 7.27521 20.8283 6.42298 20.1331C4.83034 18.8339 3.99265 17.2215 3.90942 15.2963C3.82619 13.3711 4.49418 11.3567 5.91299 9.25483L3.11665 6.97378L5.16363 4.46439L7.94583 6.73391C9.91145 4.7445 11.9558 3.6308 14.078 3.39006C16.2009 3.14982 18.2221 3.81316 20.1423 5.37947L16.4212 9.94111C15.3066 9.0319 14.2093 8.63209 13.1299 8.74108C12.0499 8.85068 11.0553 9.46279 10.1456 10.578C9.39027 11.504 9.01133 12.4126 9.0089 13.305C9.00475 14.197 9.37425 14.9445 10.114 15.548Z" fill="#FFECC2"/>
<path opacity="0.4" d="M60.4474 -6.68995L49.1592 3.16405L13.4643 -5.33988L19.6452 -16.417L60.4474 -6.68995Z" fill="#42B9FB"/>
<path d="M76.5544 -20.7463L69.6287 -14.6973L24.663 -25.4057L28.4575 -32.1925L76.5544 -20.7463Z" fill="#E25E54"/>
<path d="M45.7285 0.602882C48.0385 2.48722 47.0719 5.24363 47.0719 5.24363C47.0719 5.24363 49.5784 3.74331 51.8884 5.62765C49.5784 3.74331 50.5445 0.986502 50.5445 0.986502C50.5445 0.986502 48.0385 2.48722 45.7285 0.602882Z" fill="#F9BB3D"/>
<path d="M37.8983 18.1223C40.8083 20.4961 39.5905 23.9684 39.5905 23.9684C39.5905 23.9684 42.7481 22.0784 45.6581 24.4522C42.7481 22.0784 43.9652 18.6055 43.9652 18.6055C43.9652 18.6055 40.8083 20.4961 37.8983 18.1223Z" fill="#F2C71C"/>
</g>
<defs>
<clipPath id="clip0_15757_180425">
<rect width="412" height="104" fill="white"/>
</clipPath>
</defs>
</svg>
