<svg width="24" height="24" viewBox="0 0 24 24" fill="none" xmlns="http://www.w3.org/2000/svg">
<g clip-path="url(#clip0_100_1947)">
<path d="M0 11.9991C0 13.467 0.264047 14.873 0.746391 16.173L12 16.6948L23.2536 16.1731C23.736 14.873 24 13.467 24 11.9991C24 10.5313 23.736 9.12522 23.2536 7.82523L12 7.30347L0.746391 7.82519C0.264047 9.12522 0 10.5313 0 11.9991Z" fill="#FFDA44"/>
<path d="M11.9997 -0.00094986C6.84012 -0.00094986 2.44161 3.25555 0.746094 7.82516H23.2534C21.5578 3.25555 17.1593 -0.00094986 11.9997 -0.00094986Z" fill="#D80027"/>
<path d="M23.2536 16.1741H0.746338C2.44185 20.7436 6.84037 24.0002 11.9999 24.0002C17.1595 24.0002 21.558 20.7436 23.2536 16.1741Z" fill="#496E2D"/>
<path d="M11.9997 7.82626L13.0356 11.0147H16.3885L13.6762 12.9855L14.7121 16.174L11.9997 14.2034L9.28729 16.174L10.3234 12.9855L7.61108 11.0147H10.9638L11.9997 7.82626Z" fill="black"/>
</g>
<defs>
<clipPath id="clip0_100_1947">
<rect width="24" height="24" fill="white"/>
</clipPath>
</defs>
</svg>
