<svg width="2208" height="442" viewBox="0 0 2208 442" fill="none" xmlns="http://www.w3.org/2000/svg">
<path d="M402.648 221.659V441.295H347.106V304.975C347.106 289.646 334.676 277.204 319.331 277.204C303.994 277.204 291.56 289.638 291.56 304.975V441.295H179.835V221.659H402.648Z" fill="#43B9FB"/>
<path d="M437.648 221.659V441.429H660.46V221.659H437.648ZM550.989 402.593L479.938 331.542L550.989 260.491L622.04 331.542L550.989 402.593Z" fill="#8B85F4"/>
<path d="M873.85 309.356V221.782H695.454V441.419H918.267V309.356H873.85ZM740.591 266.292H828.697V309.356H740.591V266.292ZM873.114 396.91H740.591V353.865L873.114 353.846V396.91Z" fill="#43B9FB"/>
<path d="M1176.08 385.873V441.419H953.264V221.782H1008.81V385.873H1176.08Z" fill="#43B9FB"/>
<path d="M1211.09 221.659V441.429H1433.9V221.659H1211.09ZM1324.43 402.593L1253.38 331.542L1324.43 260.491L1395.48 331.542L1324.43 402.593Z" fill="#8B85F4"/>
<path d="M1524.42 277.328V385.873H1691.7V441.419H1468.88V221.782H1691.7V277.328H1524.42Z" fill="#43B9FB"/>
<path d="M1839.17 331.418L1949.3 441.543H1870.75L1782.24 353.038V441.543H1726.69V221.789H1782.24V309.739L1870.65 221.659H1949.35L1839.17 331.418Z" fill="#43B9FB"/>
<path d="M2029.17 266.292V309.222H2207.48V441.419H1984.66V396.91H2163.06V353.732H1984.66V221.782H2207.48V266.292H2029.17Z" fill="#43B9FB"/>
<path d="M212.549 65.2949C210.806 64.5764 191.554 51.9536 182.145 45.7321C162.895 36.1182 149.188 60.1662 144.741 73.392C129.366 103.47 124.974 121.782 118.517 134.986C113.351 145.55 111.813 217.214 111.689 251.726C104.611 274.237 104.08 284.34 104.7 286.578C106.455 291.745 106.538 307.16 106.36 314.221L124.595 323.178C128.275 321.218 132.334 314.745 133.904 311.754C132.261 301.783 143.689 287.091 149.871 284.127C149.623 278.883 146.153 265.186 144.449 258.994C134.663 229.747 155.578 221.984 167.259 221.758C187.353 220.609 214.29 209.788 225.247 204.522L265.286 192.62C284.056 184.073 299.967 181.075 305.576 180.644C315.834 170.669 340.751 165.551 351.926 164.239C351.136 156.064 343.999 147.219 340.529 143.819C327.725 140.081 319.243 137.005 316.602 135.935C298.871 117.46 277.214 112.189 268.602 111.863C264.346 110.779 256.108 105.157 254.834 103.629C248.219 86.8894 214.729 66.193 212.549 65.2949Z" fill="#F01818" stroke="black" stroke-width="1.83368"/>
<path d="M161.964 221.387L150.862 226.327C137.039 235.355 140.032 254.096 143.256 262.338C146.622 265.846 148.287 276.966 148.256 279.161C148.232 280.918 159.343 297 164.902 304.821C169.063 314.406 198.253 307.615 212.328 303.022C217.909 302.674 242.98 293.364 254.818 288.752C272.668 286.288 305.695 274.813 319.977 269.384C324.089 269.118 338.866 265.354 365.083 252.424C391.301 239.493 377.227 194.75 366.912 173.994C364.296 156.735 334.897 165.429 320.525 171.933C316.952 174.316 307.531 179.429 298.435 180.822C289.339 182.214 272.261 189.148 264.859 192.441C250.395 195.42 218.771 202.971 207.986 209.347C197.201 215.723 172.811 220.03 161.964 221.387Z" fill="white" stroke="black" stroke-width="2.09563"/>
<path d="M222.455 79.5598C186.723 53.1221 173.666 53.8368 171.604 57.4988C170.89 57.665 171.294 58.288 171.586 58.5788C174.337 59.7678 178.888 64.725 180.819 67.0549C184.168 73.5913 193.051 80.5261 197.074 83.1765C212.758 92.3308 219.806 109.222 221.37 116.523C223.408 133.154 234.887 122.031 240.372 114.39C252.047 98.4428 233.292 84.5252 222.455 79.5598Z" fill="#9B0A09" fill-opacity="0.62"/>
<path d="M255.972 167.548C255.258 176.178 229.366 189.896 216.509 195.676C208.24 199.117 206.202 201.609 206.217 202.424C207.979 204.305 232.158 196.991 244.027 193.098C248.686 191.304 273.25 181.543 275.394 181.862C277.11 182.117 313.977 169.619 332.196 163.338C336.586 161.924 336.941 160.607 336.57 160.125C331.668 153.93 319.469 155.916 313.982 157.684C305.855 160.865 289.133 159.741 281.788 158.782C269.176 157.174 262.784 157.826 261.164 158.353C257.28 158.524 256.084 164.555 255.972 167.548Z" fill="#BB0F0F"/>
<path d="M142.567 202.419C134.606 166.469 148.132 131.928 155.89 119.151C158.405 114.504 157.914 120.019 157.353 123.357C155.418 132.462 156.649 141.261 157.507 144.522C161.105 153.587 159.791 176.594 158.685 186.964C157.564 205.105 152.007 217.856 149.368 221.964C143.896 226.642 141.058 231.559 140.323 233.432C135.32 243.605 138.453 258.213 140.644 264.246C144.398 272.481 143.464 277.133 142.529 278.429C135.307 292.083 122.35 315.212 128.294 298.499C134.239 281.785 132.449 263.677 130.811 256.712C121.091 230.359 127.193 224.738 135.09 217.464L135.265 217.302C141.65 211.42 142.793 204.929 142.567 202.419Z" fill="#BB0F0F"/>
<path d="M190.534 224.345C198.819 221.882 226.4 212.938 239.154 208.773C236.963 211.515 208.809 223.062 195.006 228.492C187.67 231.71 174.863 238.487 182.318 239.856C189.773 241.224 193.291 243.647 194.119 244.687C192.871 247.173 190.23 252.962 189.645 256.222C188.913 260.298 188.539 260.783 199.081 265.739C203.059 269.535 201.376 272.151 198.671 273.951C196.508 275.39 196.307 278.055 196.477 279.208C232.764 291.447 302.556 267.341 316.144 262.057C327.015 257.831 325.821 259.596 323.865 261.007C316.531 267.369 268.17 280.964 244.906 286.966C212.309 298.647 185.805 302.874 176.628 303.528C155.571 294.055 148.497 261.774 147.593 246.817C146.558 229.825 180.177 227.424 190.534 224.345Z" fill="#E6E6E6"/>
<path d="M347.747 173.779C333.707 173.252 313.93 183.057 305.797 188.025C303.424 190.461 300.665 194.387 308.613 190.604C316.561 186.82 334.364 195.566 342.272 200.412C343.932 200.784 348.213 200.723 352.065 197.501C355.917 194.279 358.83 196.355 359.805 197.796C376.501 223.441 365.348 244.793 357.685 252.263C374.936 240.795 375.182 225.473 373.149 219.245C370.531 204.309 361.786 174.306 347.747 173.779Z" fill="#E6E6E6"/>
<path d="M77.6745 334.939L74.6614 335.834L77.2264 338.488L75.3939 343.815C75.6664 345.191 76.7808 348.021 79.0583 348.328C81.3357 348.635 78.5525 351.53 76.8763 352.939L80.1405 351.969L78.6372 356.105L82.451 356.065L82.6475 362.702L89.2606 367.021L88.9074 372.729L93.2949 369.102L94.041 376.668L97.8517 372.939L103.301 376.102L102.443 373.214L109.069 377.12L108.703 373.13L115.896 376.184L111.842 372.197L121.875 373.314L121.129 370.803L127.023 371.784L124.895 369.683L127.847 368.123L127.176 365.863L130.073 365.958L129.364 363.572L132.198 364.37L133.728 359.406L136.992 358.436L136.005 351.897L138.978 352.243L137.709 347.975L140.094 347.265L139.236 344.378L141.713 342.139C140.427 341.337 137.848 339.707 137.818 339.607C137.788 339.507 138.945 338.498 139.528 338.006L137.241 334.449L138.653 331.844L137.981 329.584L134.086 327.052L134.33 324.657L131.674 323.533L131.039 321.399L128.016 321.341L127.381 319.207L125.759 320.646L124.826 317.507L122.316 318.253L120.86 313.357L119.849 316.39L117.793 315.908L115.183 315.864L115.078 312.753L109.931 314.283L109.788 311.046L106.785 312.895L103.888 312.8L99.8362 312.501L98.3635 314.442L95.5676 313.77L95.486 316.253L89.3342 318.082L88.7131 320.589L79.6734 328.332L77.6745 334.939Z" fill="white" stroke="black" stroke-width="1.57173"/>
<path d="M94.8898 323.822L101.612 319.774C104.288 317.011 102.782 316.967 101.693 317.29C99.9742 317.483 96.7136 318.005 97.4248 318.559C98.136 319.113 96.0765 320.918 94.9578 321.752C89.5721 324.227 87.099 327.185 86.5357 328.355C85.9079 330.226 84.4337 334.062 83.5597 334.432C82.6856 334.801 83.1999 336.133 83.5663 336.753C82.8074 337.57 81.4108 339.798 81.8966 342.168C82.5039 345.13 84.3633 344.031 84.4007 344.156C84.4305 344.257 84.5668 346.248 84.6313 347.231L86.2327 348.941C86.8333 349.582 85.4997 351.072 86.5278 351.313C87.3503 351.505 87.8296 352.474 87.9664 352.935C87.8678 357.2 92.092 363.596 95.7158 364.295C99.3005 364.987 99.5816 366.259 99.9714 368.024L99.9842 368.082C100.381 369.877 104.494 370.841 104.283 369.674C104.115 368.74 105.72 368.837 106.543 369.002L110.73 370.217C110.953 369.741 111.906 368.747 113.933 368.582C115.961 368.416 116.018 367.78 115.793 367.482L122.952 369.044L120.187 366.176C124.507 366.304 131.726 366.381 126.047 365.664C120.368 364.947 113.28 360.714 110.446 358.687C109.707 359.727 108.222 361.78 108.193 361.68C108.155 361.554 104.043 365.646 99.53 359.199C95.9199 354.041 97.3338 352.883 98.492 352.949C101.682 353.413 107.201 353.749 103.765 351.381C99.4694 348.422 93.6065 340.19 92.6293 339.661C91.8475 339.237 90.0437 340.156 89.2395 340.668C89.0281 332.97 92.9183 326.23 94.8898 323.822Z" fill="#D9D9D9"/>
</svg>
