<svg width="449" height="499" viewBox="0 0 449 499" fill="none" xmlns="http://www.w3.org/2000/svg">
<rect x="123" y="169" width="326" height="329.637" rx="20" fill="#2F2F2F"/>
<path d="M397.406 224V443.637H341.864V307.316C341.864 291.987 329.435 279.545 314.09 279.545C298.753 279.545 286.319 291.979 286.319 307.316V443.637H174.594V224H397.406Z" fill="#43B9FB"/>
<path d="M212.549 65.2948C210.806 64.5763 191.554 51.9535 182.145 45.7319C162.895 36.1181 149.188 60.1661 144.741 73.3919C129.366 103.47 124.974 121.782 118.517 134.986C113.351 145.55 111.813 217.214 111.689 251.726C104.611 274.237 104.08 284.34 104.7 286.578C106.455 291.745 106.538 307.16 106.36 314.221L124.595 323.178C128.275 321.218 132.334 314.745 133.904 311.754C132.261 301.783 143.689 287.091 149.871 284.127C149.623 278.883 146.153 265.186 144.449 258.994C134.663 229.747 155.578 221.984 167.259 221.758C187.353 220.609 214.29 209.788 225.247 204.522L265.286 192.62C284.056 184.073 299.967 181.075 305.576 180.644C315.835 170.669 340.751 165.551 351.927 164.239C351.136 156.064 343.999 147.219 340.529 143.819C327.725 140.08 319.243 137.005 316.602 135.935C298.871 117.46 277.214 112.189 268.602 111.863C264.346 110.778 256.108 105.157 254.834 103.629C248.219 86.8892 214.729 66.1929 212.549 65.2948Z" fill="#F01818" stroke="black" stroke-width="1.83368"/>
<path d="M161.964 221.387L150.861 226.327C137.039 235.354 140.031 254.096 143.256 262.338C146.622 265.846 148.287 276.966 148.256 279.161C148.232 280.917 159.343 296.999 164.902 304.821C169.063 314.406 198.253 307.615 212.328 303.021C217.909 302.674 242.98 293.364 254.818 288.752C272.668 286.288 305.695 274.813 319.977 269.384C324.089 269.118 338.866 265.354 365.083 252.423C391.3 239.493 377.226 194.75 366.912 173.994C364.296 156.735 334.897 165.428 320.525 171.932C316.952 174.315 307.531 179.429 298.435 180.821C289.338 182.214 272.261 189.148 264.859 192.441C250.395 195.42 218.771 202.971 207.986 209.347C197.201 215.723 172.811 220.03 161.964 221.387Z" fill="white" stroke="black" stroke-width="2.09563"/>
<path d="M222.455 79.5595C186.723 53.1219 173.666 53.8366 171.604 57.4986C170.89 57.6647 171.295 58.2878 171.586 58.5785C174.337 59.7676 178.888 64.7247 180.819 67.0546C184.168 73.5911 193.051 80.5259 197.074 83.1762C212.758 92.3305 219.806 109.222 221.37 116.523C223.408 133.154 234.887 122.03 240.372 114.39C252.047 98.4426 233.292 84.5249 222.455 79.5595Z" fill="#9B0A09" fill-opacity="0.62"/>
<path d="M255.972 167.548C255.258 176.178 229.366 189.896 216.509 195.676C208.24 199.117 206.202 201.609 206.217 202.424C207.979 204.305 232.158 196.991 244.027 193.098C248.686 191.304 273.25 181.543 275.394 181.862C277.11 182.117 313.977 169.619 332.196 163.338C336.586 161.924 336.941 160.607 336.57 160.125C331.668 153.93 319.469 155.916 313.982 157.684C305.855 160.865 289.133 159.741 281.788 158.782C269.176 157.174 262.784 157.826 261.164 158.353C257.28 158.524 256.084 164.555 255.972 167.548Z" fill="#BB0F0F"/>
<path d="M142.567 202.419C134.606 166.469 148.132 131.928 155.89 119.151C158.405 114.504 157.914 120.019 157.353 123.357C155.418 132.462 156.649 141.261 157.507 144.522C161.105 153.587 159.791 176.594 158.685 186.964C157.564 205.105 152.007 217.856 149.368 221.964C143.896 226.642 141.058 231.558 140.323 233.432C135.32 243.605 138.453 258.213 140.644 264.246C144.398 272.481 143.464 277.133 142.529 278.429C135.307 292.083 122.35 315.212 128.294 298.498C134.239 281.785 132.449 263.677 130.811 256.712C121.091 230.359 127.193 224.738 135.09 217.464L135.265 217.302C141.65 211.419 142.793 204.929 142.567 202.419Z" fill="#BB0F0F"/>
<path d="M190.534 224.345C198.819 221.882 226.399 212.938 239.154 208.773C236.963 211.515 208.809 223.062 195.006 228.492C187.67 231.71 174.863 238.487 182.318 239.856C189.773 241.224 193.291 243.647 194.119 244.687C192.871 247.173 190.23 252.962 189.645 256.222C188.913 260.298 188.539 260.783 199.081 265.739C203.059 269.535 201.376 272.151 198.671 273.951C196.508 275.39 196.307 278.055 196.477 279.208C232.764 291.447 302.556 267.341 316.144 262.057C327.015 257.831 325.821 259.596 323.865 261.007C316.531 267.369 268.17 280.964 244.906 286.966C212.309 298.647 185.805 302.874 176.628 303.528C155.571 294.055 148.497 261.774 147.593 246.817C146.558 229.825 180.177 227.424 190.534 224.345Z" fill="#E6E6E6"/>
<path d="M347.747 173.779C333.707 173.252 313.93 183.057 305.797 188.025C303.424 190.461 300.665 194.387 308.613 190.604C316.561 186.82 334.364 195.566 342.272 200.412C343.932 200.784 348.213 200.723 352.065 197.501C355.917 194.279 358.83 196.355 359.805 197.796C376.501 223.441 365.348 244.793 357.685 252.263C374.936 240.795 375.182 225.473 373.149 219.245C370.531 204.309 361.786 174.306 347.747 173.779Z" fill="#E6E6E6"/>
<path d="M77.6744 334.938L74.6613 335.834L77.2264 338.488L75.3938 343.815C75.6663 345.191 76.7807 348.021 79.0582 348.328C81.3356 348.635 78.5525 351.53 76.8762 352.939L80.1404 351.969L78.6371 356.105L82.451 356.064L82.6474 362.701L89.2605 367.021L88.9073 372.728L93.2948 369.101L94.041 376.668L97.8516 372.939L103.301 376.102L102.443 373.214L109.069 377.12L108.703 373.13L115.896 376.184L111.842 372.197L121.875 373.314L121.129 370.803L127.023 371.784L124.895 369.683L127.847 368.122L127.176 365.863L130.073 365.958L129.364 363.572L132.197 364.37L133.728 359.406L136.992 358.435L136.005 351.897L138.978 352.243L137.709 347.974L140.094 347.265L139.236 344.378L141.713 342.138C140.427 341.336 137.848 339.707 137.818 339.607C137.788 339.506 138.945 338.497 139.528 338.005L137.241 334.449L138.653 331.843L137.981 329.584L134.086 327.052L134.33 324.657L131.673 323.533L131.039 321.399L128.016 321.341L127.381 319.207L125.759 320.645L124.826 317.507L122.315 318.253L120.86 313.357L119.849 316.39L117.792 315.908L115.183 315.864L115.078 312.752L109.931 314.283L109.788 311.045L106.785 312.895L103.888 312.799L99.8361 312.501L98.3634 314.441L95.5675 313.769L95.4859 316.253L89.3341 318.082L88.713 320.589L79.6733 328.332L77.6744 334.938Z" fill="white" stroke="black" stroke-width="1.57173"/>
<path d="M94.8899 323.822L101.612 319.774C104.289 317.011 102.782 316.967 101.693 317.29C99.9743 317.482 96.7137 318.005 97.4248 318.559C98.136 319.113 96.0765 320.918 94.9578 321.752C89.5721 324.227 87.0991 327.185 86.5358 328.354C85.9079 330.226 84.4338 334.062 83.5597 334.431C82.6856 334.8 83.1999 336.132 83.5664 336.752C82.8074 337.57 81.4109 339.798 81.8967 342.168C82.5039 345.13 84.3634 344.031 84.4007 344.156C84.4306 344.257 84.5669 346.247 84.6313 347.23L86.2328 348.941C86.8333 349.582 85.4997 351.071 86.5279 351.312C87.3503 351.505 87.8296 352.474 87.9665 352.934C87.8679 357.2 92.092 363.596 95.7159 364.295C99.3005 364.987 99.5816 366.259 99.9714 368.024L99.9843 368.082C100.381 369.877 104.494 370.841 104.283 369.674C104.115 368.74 105.72 368.837 106.543 369.002L110.73 370.217C110.953 369.741 111.906 368.747 113.933 368.581C115.961 368.416 116.018 367.78 115.793 367.482L122.952 369.043L120.187 366.176C124.507 366.304 131.726 366.381 126.047 365.664C120.368 364.947 113.28 360.714 110.446 358.687C109.707 359.726 108.222 361.78 108.193 361.68C108.155 361.554 104.043 365.646 99.53 359.199C95.9199 354.041 97.3338 352.883 98.492 352.948C101.682 353.412 107.201 353.748 103.765 351.381C99.4694 348.422 93.6065 340.19 92.6293 339.661C91.8475 339.237 90.0437 340.156 89.2395 340.668C89.0281 332.97 92.9183 326.229 94.8899 323.822Z" fill="#D9D9D9"/>
</svg>
